<?xml version="1.0" standalone="no"?>
<!DOCTYPE svg PUBLIC "-//W3C//DTD SVG 20010904//EN"
 "http://www.w3.org/TR/2001/REC-SVG-20010904/DTD/svg10.dtd">
<svg version="1.0" xmlns="http://www.w3.org/2000/svg"
 width="189.000000pt" height="189.000000pt" viewBox="0 0 189.000000 189.000000"
 preserveAspectRatio="xMidYMid meet">
<metadata>
Created by potrace 1.14, written by Peter Selinger 2001-2017
</metadata>
<g transform="translate(0.000000,189.000000) scale(0.100000,-0.100000)"
fill="#000000" stroke="none">
<path d="M1057 1732 c-15 -16 -17 -50 -17 -275 l0 -257 -72 -1 c-89 -2 -102
-3 -154 -18 -149 -41 -272 -141 -338 -276 -45 -90 -57 -140 -58 -228 0 -85 0
-88 11 -106 7 -11 12 -10 27 2 11 9 33 27 51 42 25 20 31 32 29 58 -9 113 72
260 184 335 76 51 147 72 244 72 l77 0 -3 -102 -3 -103 -58 -1 c-103 -2 -187
-53 -219 -133 -18 -46 -12 -126 14 -173 83 -150 303 -138 371 21 7 17 12 149
13 396 1 204 3 380 3 393 1 26 27 29 82 10 61 -20 97 -73 119 -175 13 -54 15
-276 4 -294 -4 -8 -3 -9 5 -5 19 12 60 102 77 168 11 43 15 87 11 141 -7 112
-46 186 -155 299 -47 48 -103 115 -125 150 -22 35 -45 66 -51 70 -20 13 -52 8
-69 -10z"/>
<path d="M1386 870 c-13 -4 -16 -28 -19 -150 -3 -118 -8 -155 -25 -200 -67
-171 -240 -281 -421 -267 -44 4 -99 15 -127 27 -65 28 -143 88 -174 134 -14
20 -27 36 -30 36 -3 0 -21 -15 -42 -33 -34 -31 -36 -34 -23 -62 33 -77 156
-165 288 -205 62 -19 198 -19 274 1 177 44 326 191 377 370 17 58 28 337 14
345 -12 8 -74 11 -92 4z"/>
</g>
</svg>
