<?xml version="1.0" standalone="no"?>
<!DOCTYPE svg PUBLIC "-//W3C//DTD SVG 20010904//EN"
 "http://www.w3.org/TR/2001/REC-SVG-20010904/DTD/svg10.dtd">
<svg version="1.0" xmlns="http://www.w3.org/2000/svg"
 width="1920.000000pt" height="1080.000000pt" viewBox="0 0 1920.000000 1080.000000"
 preserveAspectRatio="xMidYMid meet">

<g transform="translate(0.000000,1080.000000) scale(0.100000,-0.100000)"
fill="#000000" stroke="none">
<path d="M0 5400 l0 -5400 9600 0 9600 0 0 3190 c0 2829 -2 3190 -15 3190 -8
0 -15 5 -15 10 0 6 8 10 18 10 13 0 14 2 4 9 -12 7 -19 25 -21 55 -1 5 -8 3
-16 -4 -17 -14 -50 -6 -40 10 9 15 -8 12 -31 -5 -19 -14 -11 -20 23 -16 6 1
14 -7 18 -18 4 -12 12 -18 21 -14 8 3 14 -1 14 -11 0 -13 -4 -14 -27 -4 -42
18 -104 64 -96 71 3 4 -3 7 -15 7 -11 0 -24 4 -27 10 -3 6 0 10 7 10 8 0 14 8
15 17 1 10 4 33 6 50 4 30 2 32 -19 27 -28 -7 -34 16 -10 35 11 10 16 8 24 -6
9 -16 13 -16 39 -3 15 8 38 25 51 38 26 26 75 31 66 7 -4 -9 0 -15 7 -15 8 -1
0 -7 -17 -14 -24 -11 -33 -22 -37 -47 -5 -37 8 -63 19 -36 3 9 11 14 18 10 6
-4 5 1 -3 10 -12 15 -11 17 8 17 14 0 21 -6 21 -20 0 -14 -7 -20 -22 -20 -17
0 -19 -3 -10 -12 6 -6 19 -13 27 -14 19 -3 22 82 3 89 -10 4 -10 6 0 6 9 1 12
103 12 477 l0 476 -29 -5 c-16 -3 -42 -9 -57 -13 l-29 -6 21 22 c15 15 33 22
58 22 l36 0 0 1604 0 1604 -9600 0 -9600 0 0 -5400z m8760 4610 l0 -270 267
-2 c246 -3 268 -4 271 -20 3 -17 -15 -18 -267 -18 l-271 0 0 -270 c0 -233 -2
-270 -15 -270 -13 0 -15 37 -15 270 l0 270 -272 2 c-235 3 -273 5 -273 18 0
13 38 15 273 18 l272 2 0 270 c0 233 2 270 15 270 13 0 15 -37 15 -270z m3960
-299 c0 -5 11 -8 24 -8 13 0 31 -7 39 -14 13 -12 12 -18 -4 -51 -11 -21 -15
-38 -10 -38 5 0 12 10 15 23 11 39 33 59 55 52 12 -3 19 -10 16 -15 -6 -9 11
-7 60 9 17 5 25 10 19 10 -7 1 -14 10 -17 21 -5 19 3 20 1021 20 609 0 1040
-4 1060 -9 20 -6 32 -6 32 0 0 5 18 9 41 9 26 0 38 -4 34 -11 -4 -6 -19 -7
-36 -4 -22 5 -29 3 -29 -9 0 -9 6 -16 14 -16 29 0 25 -19 -25 -111 -210 -394
-444 -957 -554 -1334 -14 -49 -33 -112 -42 -140 -29 -96 -101 -391 -133 -550
-18 -88 -37 -161 -41 -163 -4 -2 -6 -9 -3 -16 3 -8 -9 -97 -25 -199 -17 -102
-31 -197 -31 -212 0 -14 -3 -24 -8 -21 -4 2 -9 -57 -10 -132 -2 -76 -6 -155
-8 -177 -3 -22 -8 -203 -11 -403 -7 -463 11 -785 67 -1187 22 -154 25 -209 11
-200 -20 12 -106 -18 -133 -47 -16 -16 -28 -33 -28 -38 0 -4 24 -31 53 -59 35
-35 63 -53 87 -56 83 -14 71 10 144 -284 66 -268 73 -307 58 -297 -5 3 -21 -1
-35 -9 -15 -8 -31 -14 -35 -15 -19 -2 -90 -23 -117 -35 -68 -31 -153 -63 -198
-75 -27 -7 -51 -19 -54 -26 -3 -8 -9 -12 -13 -9 -5 3 -38 -8 -74 -25 -36 -17
-82 -34 -103 -37 -21 -3 -40 -10 -43 -14 -3 -4 -17 -9 -30 -11 -43 -6 -91 -40
-84 -60 3 -10 0 -18 -6 -18 -8 0 -10 -9 -6 -25 4 -17 2 -25 -6 -25 -7 -1 1 -7
17 -14 26 -12 28 -15 12 -21 -29 -12 1 -25 31 -14 13 5 27 7 32 4 5 -3 11 -1
15 5 3 5 11 10 17 10 6 0 3 -9 -7 -20 -10 -11 -15 -23 -11 -27 4 -4 11 -1 16
7 7 11 10 12 10 2 0 -9 7 -11 22 -7 16 6 20 4 15 -8 -4 -11 0 -13 13 -10 11 3
27 -2 35 -11 17 -16 40 -13 30 5 -4 5 -2 9 4 9 5 0 18 3 28 6 14 5 15 4 4 -4
-12 -9 -12 -13 3 -27 10 -11 14 -25 10 -37 -4 -14 -2 -18 5 -14 13 8 14 4 5
-18 -3 -9 -13 -16 -21 -16 -9 0 -11 5 -7 13 6 9 4 9 -8 -1 -9 -7 -18 -9 -20
-3 -1 5 -12 3 -23 -6 -17 -13 -17 -15 -2 -10 12 5 20 1 24 -11 9 -24 106 -114
176 -164 31 -22 57 -45 57 -49 0 -5 5 -9 11 -9 11 0 46 -31 41 -37 -7 -7 11
-68 24 -81 8 -7 14 -10 14 -6 0 4 3 4 6 1 4 -4 -4 -15 -16 -25 -16 -13 -20
-23 -14 -33 5 -8 8 -21 6 -29 -1 -8 7 -26 18 -40 11 -14 20 -19 20 -12 0 7 4
11 10 7 5 -3 7 -12 3 -20 -3 -9 1 -15 9 -15 7 0 31 -9 52 -20 22 -10 43 -17
47 -14 5 3 9 -1 9 -8 0 -8 3 -9 8 -3 8 12 22 13 37 4 6 -3 26 -4 45 -2 39 4
103 6 137 4 17 -1 21 -5 16 -18 -4 -10 -2 -14 4 -10 6 4 14 1 16 -5 4 -10 8
-10 14 -2 11 15 180 9 199 -7 8 -6 14 -8 14 -3 0 4 5 3 12 -4 16 -16 48 -15
48 1 1 22 42 -37 86 -126 25 -48 42 -92 39 -98 -4 -5 1 -12 9 -15 20 -8 20
-34 0 -48 -12 -9 -13 -17 -5 -39 11 -28 31 -37 31 -13 0 10 7 12 22 8 21 -5
21 -6 -7 -27 -15 -13 -25 -27 -21 -33 3 -6 -4 -12 -16 -14 -15 -2 -22 -9 -22
-21 2 -13 -3 -16 -18 -11 -15 4 -18 3 -13 -7 6 -9 4 -11 -8 -6 -9 3 -18 0 -21
-9 -3 -8 -1 -14 5 -14 6 0 7 -4 4 -10 -4 -6 6 -11 22 -11 21 -1 23 -3 8 -6
-11 -3 -23 -10 -26 -15 -4 -5 -9 2 -13 17 -5 18 -12 25 -21 21 -8 -3 -15 0
-16 7 0 7 -4 2 -10 -11 -5 -13 -13 -21 -19 -17 -5 3 -7 0 -4 -8 3 -8 1 -18 -5
-22 -6 -3 -11 -15 -11 -26 0 -12 -7 -19 -19 -19 -10 0 -21 -7 -25 -15 -3 -8
-14 -15 -24 -15 -10 0 -22 -3 -25 -7 -9 -8 -51 -14 -101 -14 -30 1 -37 -2 -32
-15 3 -8 0 -16 -7 -18 -6 -2 -32 -9 -57 -16 -59 -17 -65 -17 -62 -2 1 6 -2 12
-8 12 -5 0 -10 -4 -10 -9 0 -5 -22 -15 -50 -22 l-49 -13 33 -36 c38 -42 57
-107 53 -185 -1 -27 0 -228 1 -445 2 -347 5 -392 17 -369 47 86 179 80 221
-11 l19 -40 3 388 c1 213 2 413 2 445 0 69 21 97 74 97 25 0 40 -7 55 -26 20
-26 21 -38 21 -353 l1 -326 19 48 c43 112 118 167 234 175 58 3 82 0 117 -15
65 -29 113 -75 140 -135 24 -52 24 -60 27 -393 3 -297 5 -336 17 -308 34 81
141 77 179 -7 8 -19 12 117 16 577 l5 603 31 31 c61 60 166 45 206 -31 16 -30
18 -61 19 -250 0 -175 3 -209 12 -185 22 56 38 75 79 96 72 37 150 16 202 -55
20 -25 21 -43 24 -253 l3 -225 22 43 c40 80 117 109 194 72 71 -33 74 -45 72
-343 l-1 -266 -57 2 c-31 1 -56 3 -56 4 0 5 -71 10 -200 14 -77 2 -140 5 -140
6 0 5 -88 10 -220 14 -77 2 -140 5 -140 6 0 5 -72 10 -200 14 -77 2 -140 5
-140 6 0 5 -88 10 -220 14 -77 2 -140 5 -140 6 0 5 -72 10 -200 14 -77 2 -140
5 -140 6 0 5 -88 10 -220 14 -77 2 -140 5 -140 6 0 5 -72 10 -200 14 -77 2
-140 5 -140 6 0 2 -72 9 -140 13 l-40 3 -3 224 c-2 123 -7 231 -12 239 -6 10
-10 11 -10 4 0 -10 -26 -13 -97 -13 l-98 0 3 -226 c2 -165 -1 -223 -9 -218 -6
3 -75 8 -153 9 -77 2 -143 4 -146 5 -3 1 -8 2 -12 1 -5 0 -8 3 -8 9 0 5 45 8
113 6 61 -3 112 -5 112 -6 0 -1 21 -3 46 -4 26 -1 46 2 46 8 0 7 -47 12 -131
13 -72 0 -142 3 -156 6 l-25 4 0 226 c0 165 -4 230 -13 239 -6 6 -12 22 -12
35 0 13 -9 32 -21 44 -14 14 -18 24 -11 31 8 7 7 15 -1 23 -30 32 -45 54 -40
59 4 3 0 6 -8 6 -11 0 -11 2 1 10 8 5 10 10 5 10 -6 0 -19 23 -30 51 -11 28
-28 55 -37 60 -14 8 -16 6 -11 -7 3 -9 0 -20 -8 -25 -11 -8 -10 -13 9 -28 26
-22 28 -31 7 -31 -19 0 -19 -14 0 -30 9 -7 13 -15 10 -18 -3 -3 -12 3 -19 14
-8 10 -18 15 -22 11 -12 -12 11 -42 30 -41 9 1 13 -2 10 -7 -3 -5 1 -9 8 -9 9
0 9 -3 -2 -10 -13 -8 -13 -11 -1 -19 10 -6 12 -19 7 -42 -3 -19 -2 -29 2 -22
5 8 13 9 22 3 10 -6 11 -10 3 -10 -15 0 -5 -31 16 -46 9 -7 12 -18 7 -29 -4
-11 0 -25 10 -36 17 -18 12 -19 -164 -19 -100 0 -182 3 -182 8 0 4 7 18 16 30
8 12 12 22 7 22 -4 0 -3 4 2 8 18 13 36 52 24 52 -6 0 -3 7 5 16 9 8 17 27 17
42 1 15 4 38 6 52 2 14 6 89 7 168 3 140 6 157 29 157 7 0 12 17 12 43 0 23
-3 42 -7 42 -5 0 -8 9 -8 21 0 12 4 17 11 14 10 -7 38 22 39 40 0 6 -5 3 -10
-5 -13 -20 -29 -2 -32 35 -1 17 -7 33 -13 37 -6 5 -5 8 4 8 11 0 11 3 1 15
-10 12 -10 15 4 15 9 0 16 5 16 10 0 6 -5 10 -11 10 -5 0 -7 5 -4 11 4 5 -1
19 -10 29 -9 10 -14 24 -10 29 3 6 -1 14 -9 17 -13 5 -13 9 -1 28 13 19 12 25
0 50 -8 16 -15 44 -15 62 0 19 -5 34 -11 34 -5 0 -8 4 -4 9 6 11 -17 151 -25
151 -4 0 -5 19 -3 42 2 23 -4 61 -14 86 -9 24 -17 63 -18 85 -1 45 -11 90 -26
122 -14 32 -81 278 -114 423 l-6 24 24 -24 c13 -13 56 -61 97 -108 150 -174
336 -346 610 -564 74 -59 141 -115 147 -124 7 -8 28 -25 47 -36 75 -45 125
-81 126 -91 1 -13 70 -56 80 -50 4 3 10 -2 14 -10 6 -17 -9 -29 -25 -19 -8 4
-8 0 0 -15 10 -18 9 -20 -6 -14 -12 5 -11 1 5 -15 12 -12 25 -22 28 -22 15 0
74 -33 74 -42 0 -5 -6 -6 -12 -2 -9 5 -9 2 1 -9 7 -9 18 -17 23 -17 9 0 21 -9
55 -40 15 -14 15 -15 -5 -18 -28 -4 -29 -22 -2 -29 19 -5 20 -6 3 -20 -10 -8
-12 -12 -6 -8 23 11 55 -14 47 -37 -4 -12 -1 -24 7 -29 7 -4 10 -11 6 -16 -5
-4 -12 -1 -18 7 -8 13 -10 13 -19 0 -6 -10 -6 -16 3 -19 7 -2 15 -10 20 -17 4
-7 15 -11 25 -10 10 2 19 -5 23 -18 3 -12 11 -20 17 -19 6 2 9 -4 6 -12 -6
-15 -29 -20 -68 -16 -19 1 -19 1 -1 -19 19 -21 7 -28 -13 -8 -10 10 -15 10
-21 -1 -5 -7 -13 -11 -17 -8 -5 3 -17 -1 -27 -8 -18 -13 -18 -14 1 -24 16 -9
24 -7 36 5 19 18 22 4 4 -15 -11 -11 -10 -13 5 -8 10 4 17 1 17 -5 0 -9 3 -9
12 0 7 7 15 12 19 12 9 0 -9 -59 -24 -78 -13 -17 -37 -15 -37 3 0 8 8 15 17
15 12 0 14 3 6 11 -8 8 -17 5 -32 -10 -12 -12 -26 -21 -31 -21 -5 0 -10 -7
-10 -15 0 -8 -4 -15 -9 -15 -5 0 -11 -7 -15 -15 -5 -13 -2 -14 15 -4 12 6 42
10 67 9 72 -4 79 -2 59 13 -16 11 -15 12 8 13 14 1 25 -2 25 -7 0 -5 10 -9 23
-9 21 -1 21 -1 4 -15 -11 -7 -26 -11 -35 -7 -11 4 -6 -7 12 -29 16 -18 34 -46
41 -61 9 -22 12 45 14 319 2 294 5 352 18 382 16 35 25 77 15 67 -2 -3 -13 -1
-24 5 -10 5 -24 7 -31 2 -24 -15 -47 -10 -47 11 0 15 -3 17 -11 9 -9 -9 -18
-8 -35 4 -13 8 -21 19 -18 24 3 5 0 9 -5 9 -6 0 -11 -7 -11 -15 0 -12 -7 -14
-27 -9 -16 4 -31 11 -34 16 -3 6 -10 10 -15 9 -21 -1 -54 12 -54 21 0 5 -5 6
-11 3 -11 -8 -129 45 -129 57 0 4 -7 8 -15 8 -8 0 -15 5 -15 11 0 5 -4 7 -10
4 -5 -3 -10 -2 -10 3 0 5 -12 17 -26 27 -15 9 -23 12 -19 5 5 -8 3 -11 -6 -8
-8 3 -14 15 -13 27 0 16 -5 21 -23 21 -13 0 -23 6 -23 13 -1 18 -48 49 -63 41
-9 -5 -9 -4 1 7 16 18 15 29 -4 29 -8 0 -12 5 -9 10 3 6 2 10 -3 10 -5 0 -14
10 -21 22 -6 13 -9 15 -7 6 6 -19 -9 -25 -19 -8 -3 6 -11 10 -16 10 -6 0 -7
-4 -4 -10 3 -6 -1 -7 -9 -4 -19 7 -21 24 -3 24 18 1 -53 30 -79 32 -14 2 -20
7 -17 16 6 13 -36 59 -49 54 -8 -2 -12 14 -9 31 1 5 -3 6 -9 2 -5 -3 -13 1
-16 9 -3 9 -10 14 -14 11 -4 -3 -11 2 -14 11 -3 8 -10 12 -16 9 -6 -3 -7 1 -4
9 3 9 1 16 -6 16 -6 0 -18 7 -26 15 -9 8 -23 15 -32 15 -24 1 -48 21 -56 47
-4 12 -16 25 -27 28 -10 4 -19 10 -19 15 0 4 -10 10 -22 14 -17 4 -19 8 -10
14 9 6 6 12 -13 20 -14 6 -25 19 -25 27 0 9 -4 13 -10 10 -5 -3 -10 -1 -10 4
0 6 5 11 12 11 12 0 2 15 -10 15 -12 1 -67 57 -64 66 2 9 -4 16 -60 78 -16 16
-28 33 -28 36 0 4 -11 16 -25 27 -14 11 -23 24 -19 29 3 5 -1 12 -10 15 -9 3
-12 12 -9 22 5 12 2 14 -11 9 -9 -4 -15 -3 -12 2 3 4 -4 17 -14 29 -11 12 -20
26 -20 32 0 5 -5 10 -11 10 -5 0 -8 4 -4 9 7 12 -41 61 -51 52 -4 -3 -4 4 -1
17 3 15 1 22 -9 22 -7 0 -18 9 -24 21 -7 11 -21 30 -32 41 -11 11 -18 28 -15
39 3 12 0 19 -9 19 -8 0 -18 10 -23 23 -5 12 -18 33 -30 46 -12 13 -21 33 -21
43 0 11 -4 17 -8 14 -5 -3 -9 0 -9 7 0 19 -66 157 -75 157 -4 0 -8 11 -8 24 0
14 -5 28 -10 31 -6 4 -8 11 -5 16 4 5 1 9 -4 9 -6 0 -10 3 -9 8 0 4 -6 23 -15
43 -9 20 -18 47 -21 60 -6 32 -18 63 -27 69 -4 3 -19 48 -33 100 -31 121 -54
201 -63 220 -10 25 -15 44 -17 71 -2 14 -6 31 -11 38 -4 7 -8 43 -8 80 0 36
-5 69 -11 73 -6 4 -6 11 2 21 10 11 9 17 -2 26 -8 7 -12 19 -9 27 8 22 23 16
20 -8 -1 -16 3 -23 15 -22 10 1 14 -4 11 -12 -2 -7 1 -21 7 -31 10 -16 11 -16
7 5 -3 13 -1 20 5 16 6 -4 8 -22 5 -40 -3 -19 -2 -34 4 -34 5 0 9 4 9 9 0 5 7
11 15 15 10 4 20 -5 29 -29 15 -35 38 -45 52 -23 5 8 2 9 -9 5 -13 -5 -17 -1
-17 18 0 15 -6 25 -14 25 -12 0 -30 49 -21 58 2 2 14 -12 27 -32 25 -38 42
-45 52 -20 3 8 2 12 -4 9 -6 -3 -10 -1 -10 4 0 6 -8 11 -17 11 -15 0 -14 2 2
14 11 8 23 12 27 10 10 -6 10 -1 1 21 -5 15 -8 14 -20 -6 -13 -24 -13 -24 -8
6 3 17 2 24 -1 17 -7 -16 -34 3 -34 24 0 17 27 19 32 2 3 -7 7 -5 11 6 4 10 3
15 -3 11 -6 -3 -10 -1 -10 5 0 6 -11 8 -27 4 -16 -3 -23 -2 -18 3 6 4 11 15
11 23 1 8 5 24 10 34 5 14 4 17 -5 12 -9 -6 -12 -1 -10 16 2 14 -4 32 -14 42
-9 10 -14 22 -11 28 5 7 2 8 -6 3 -9 -5 -10 -2 -5 14 6 19 -2 26 -27 22 -4 0
-5 5 -2 12 6 16 -20 69 -29 60 -6 -6 -11 15 -10 44 1 7 -3 11 -7 8 -5 -3 -11
8 -15 25 -4 16 -11 30 -16 30 -4 0 -6 14 -2 32 4 21 3 29 -5 24 -6 -3 -17 7
-25 24 -9 16 -12 30 -9 30 4 0 7 13 7 29 0 26 -2 28 -16 15 -14 -13 -15 -10
-9 31 4 25 4 47 1 50 -2 3 -6 16 -8 28 -2 12 -8 24 -13 25 -6 2 -10 14 -10 27
0 14 -8 32 -18 42 -23 23 -52 85 -52 112 0 12 -4 21 -9 21 -5 0 -11 9 -14 21
-4 16 -3 18 9 8 11 -9 14 -7 14 14 0 14 -4 29 -10 32 -5 3 -10 -1 -10 -9 0 -9
-6 -13 -14 -10 -8 3 -11 15 -8 30 3 19 1 23 -12 18 -12 -5 -16 0 -17 17 -2 64
-18 142 -31 150 -5 4 -11 18 -11 32 -1 14 -5 24 -8 22 -5 -4 -22 66 -35 140
-3 16 -9 32 -13 35 -4 3 -8 14 -8 25 -1 11 -5 54 -8 95 -4 41 -6 82 -6 90 0 8
1 40 1 70 0 30 7 102 15 160 9 58 17 133 20 167 2 35 8 71 13 80 6 10 10 40
10 66 1 26 4 52 8 58 3 6 7 20 9 32 5 40 16 90 21 98 2 4 0 10 -6 14 -7 4 -7
12 0 25 13 24 13 53 0 45 -15 -9 -12 11 3 23 14 12 22 66 9 58 -12 -7 -7 24
10 64 12 29 12 36 1 38 -15 4 -17 18 -3 27 6 4 8 10 5 15 -3 5 -2 11 3 13 4 3
7 23 6 44 -1 21 3 47 9 58 14 25 15 35 6 60 -4 13 0 25 10 33 9 8 10 10 2 6
-11 -5 -13 -3 -8 10 4 10 7 29 7 42 0 14 11 35 25 48 l24 22 -32 -4 c-31 -5
-31 -4 -16 14 9 11 15 30 13 43 -4 20 -2 22 11 11 13 -11 14 -10 9 4 -3 9 -1
23 5 30 13 15 -1 32 -17 22 -5 -3 -9 1 -9 7 0 7 14 14 31 15 17 2 35 7 40 12
5 5 0 6 -14 3 -17 -5 -21 -3 -15 6 5 10 2 11 -13 7 -26 -9 -37 8 -17 27 8 9
15 21 15 27 0 6 6 10 14 8 8 -2 15 0 15 5 2 22 0 27 -14 27 -8 0 -15 5 -15 11
0 5 4 7 10 4 6 -4 7 6 4 25 -4 20 -3 30 5 30 7 0 9 5 6 10 -3 6 -3 15 1 22 4
6 9 36 10 65 3 41 0 53 -11 53 -17 0 -9 26 10 34 9 3 12 0 8 -10 -3 -7 -2 -14
1 -14 10 0 40 73 37 89 -1 7 2 10 8 6 7 -4 11 5 11 23 0 29 21 58 33 45 4 -3
7 0 7 7 0 8 10 25 23 38 12 14 16 22 9 17 -19 -10 0 26 22 45 9 7 16 23 16 35
0 12 6 28 14 34 8 7 18 26 21 42 4 16 11 31 16 34 5 4 9 11 9 17 0 6 -5 7 -13
2 -7 -5 -5 -2 5 8 10 9 18 20 18 26 0 22 142 223 179 252 22 18 38 36 35 41
-2 4 25 40 61 80 69 77 115 154 114 191 0 23 -1 23 -11 -2 -6 -14 -16 -38 -24
-55 -7 -16 -15 -37 -18 -46 -5 -20 -66 -65 -66 -50 0 6 9 15 20 21 11 6 18 15
15 21 -4 6 -13 5 -25 -1 -16 -9 -18 -7 -15 10 6 33 56 118 73 125 11 4 13 8 5
13 -15 10 2 52 22 52 8 0 15 5 15 11 0 5 -3 9 -7 7 -46 -22 -63 -33 -63 -40 0
-5 5 -6 11 -2 7 4 1 -7 -11 -24 -13 -17 -29 -33 -37 -36 -8 -3 -12 -10 -9 -15
3 -5 -1 -14 -9 -21 -11 -9 -14 -7 -12 12 1 26 22 52 35 44 4 -2 13 4 20 15 7
10 8 19 3 19 -6 0 -13 -4 -16 -10 -3 -5 -11 -10 -17 -10 -7 0 -6 5 2 15 6 8 9
23 5 34 -3 11 0 31 6 43 7 13 14 30 15 38 4 22 26 60 36 60 4 0 8 9 8 20 0 11
6 20 13 20 8 0 14 7 14 15 0 11 -8 8 -29 -12 -15 -15 -28 -21 -28 -15 0 7 0
15 0 20 0 4 4 7 10 7 5 0 17 10 25 23 17 23 8 31 -13 10 -13 -13 -15 -8 -6 16
4 12 11 13 24 6 9 -5 20 -6 24 -3 3 3 6 -2 6 -13 0 -13 5 -9 17 14 9 18 27 42
41 52 19 15 21 20 8 20 -9 0 -19 6 -22 14 -3 8 -12 12 -20 9 -23 -9 -16 11 9
23 26 13 177 17 177 5z m102 -3 c-17 -8 -26 -8 -34 0 -9 9 -4 12 23 11 32 0
33 -1 11 -11z m48 8 c0 -3 -4 -8 -10 -11 -5 -3 -10 -1 -10 4 0 6 5 11 10 11 6
0 10 -2 10 -4z m35 -26 c-3 -5 -12 -10 -18 -10 -7 0 -6 4 3 10 19 12 23 12 15
0z m-395 -24 c0 -11 -19 -15 -25 -6 -3 5 1 10 9 10 9 0 16 -2 16 -4z m-93
-203 c-6 -14 -13 -20 -15 -14 -2 6 -9 8 -14 5 -6 -4 -9 -3 -6 2 3 5 8 17 11
26 4 11 12 15 21 12 12 -5 13 -10 3 -31z m-22 -55 c-2 -35 -14 -71 -42 -124
-23 -46 -24 -47 -18 -14 4 19 16 52 27 73 10 21 16 42 13 48 -4 5 -1 16 5 24
16 19 16 19 15 -7z m28 -173 c-3 -9 -8 -14 -10 -11 -3 3 -2 9 2 15 9 16 15 13
8 -4z m-29 -167 c-3 -4 -9 -8 -15 -8 -5 0 -9 4 -9 8 0 5 7 9 15 9 8 0 12 -4 9
-9z m-352 -390 c-7 -7 -12 -8 -12 -2 0 14 12 26 19 19 2 -3 -1 -11 -7 -17z
m7028 -1182 c0 -3 -4 -8 -10 -11 -5 -3 -10 -1 -10 4 0 6 5 11 10 11 6 0 10 -2
10 -4z m-35 -96 c-3 -5 -11 -10 -16 -10 -6 0 -7 5 -4 10 3 6 11 10 16 10 6 0
7 -4 4 -10z m-8315 -50 c0 -11 -4 -20 -9 -20 -5 0 -18 -3 -28 -6 -17 -5 -17
-5 0 6 9 6 17 18 17 25 0 8 5 15 10 15 6 0 10 -9 10 -20z m8190 -450 c0 -5 -4
-10 -10 -10 -5 0 -10 5 -10 10 0 6 5 10 10 10 6 0 10 -4 10 -10z m-186 -82
c-1 -13 -3 -25 -4 -28 -3 -7 -7 -23 -8 -37 -1 -7 -7 -13 -13 -13 -7 0 -9 9 -5
23 4 12 9 30 11 40 4 17 14 37 19 37 1 0 2 -10 0 -22z m88 -61 c31 6 62 -20
53 -45 -3 -9 0 -10 15 -2 16 9 20 8 20 -5 0 -9 5 -13 10 -10 6 3 10 -1 10 -9
0 -9 7 -16 15 -16 18 0 20 -30 3 -31 -10 0 -10 -2 0 -6 14 -5 17 -33 3 -33 -6
0 -13 5 -16 10 -10 16 -28 11 -21 -6 10 -26 -12 -45 -43 -38 -41 10 -46 16
-26 31 17 11 17 13 2 13 -9 0 -19 -11 -23 -25 -5 -21 -12 -25 -41 -25 -44 0
-123 20 -123 31 0 5 9 9 21 9 11 0 17 5 14 10 -4 6 -11 8 -16 5 -12 -8 -11 16
2 70 6 25 15 42 20 39 15 -9 69 19 69 35 0 11 3 12 11 4 7 -7 25 -9 41 -6z
m363 -47 c3 -5 -1 -10 -9 -10 -9 0 -16 5 -16 10 0 6 4 10 9 10 6 0 13 -4 16
-10z m-8252 -173 c3 -8 0 -14 -6 -14 -7 0 -21 -4 -32 -9 -20 -7 -20 -7 -1 14
22 25 32 27 39 9z m7857 -12 c0 -19 -20 -29 -32 -17 -15 15 -2 43 17 36 8 -3
15 -12 15 -19z m-7922 -395 c53 -246 56 -270 38 -270 -8 0 -19 -6 -23 -12 -13
-20 -68 -37 -87 -26 -9 5 -25 7 -35 3 -10 -3 -35 2 -55 10 -21 9 -35 11 -31 6
8 -14 -10 -14 -33 -1 -9 5 -30 14 -45 20 -19 7 -26 14 -21 22 6 9 3 9 -9 -1
-14 -11 -18 -11 -24 5 -3 11 -15 31 -25 46 -13 19 -22 58 -29 123 -10 96 -7
121 13 109 7 -4 8 -2 4 5 -4 6 -1 14 8 17 8 3 18 15 22 26 4 15 8 17 14 8 6
-9 10 -7 15 9 3 12 11 19 16 16 5 -4 9 2 9 13 0 18 49 62 70 62 6 0 8 5 5 10
-3 6 1 10 9 10 9 0 16 7 16 15 0 8 6 15 13 15 8 0 19 11 25 24 8 18 20 26 44
28 38 3 26 39 96 -292z m130 42 c2 -7 -2 -10 -12 -6 -9 3 -16 11 -16 16 0 13
23 5 28 -10z m4 -69 c-6 -2 -10 -9 -7 -14 4 -5 -1 -6 -10 -2 -13 5 -14 7 -3
14 7 5 18 8 23 8 6 0 4 -3 -3 -6z m-7933 -17 c22 -26 -10 -63 -44 -50 -18 7
-20 50 -2 57 22 9 34 7 46 -7z m-763 -19 c4 -4 2 -18 -4 -32 -10 -22 -15 -24
-38 -14 -60 22 -126 -24 -140 -98 -10 -54 12 -88 56 -88 31 0 35 3 38 28 3 21
-1 27 -16 27 -26 0 -30 6 -24 35 4 23 8 25 64 25 57 0 60 -1 55 -22 -3 -13
-10 -49 -17 -80 -13 -65 -22 -71 -109 -71 -49 0 -58 4 -83 32 -63 70 -21 221
72 260 26 11 135 10 146 -2z m1800 -17 c-3 -16 -9 -43 -12 -60 -6 -30 -6 -30
40 -30 42 0 46 2 52 28 20 89 19 87 52 90 18 2 32 2 32 0 0 -2 -13 -66 -30
-143 -16 -77 -30 -143 -30 -147 0 -5 -16 -8 -36 -8 -31 0 -35 3 -30 20 6 21
10 36 20 83 7 28 6 28 -41 25 l-47 -3 -14 -62 c-13 -60 -15 -63 -43 -63 -36 0
-36 -2 -3 152 33 158 28 148 65 148 30 0 31 -2 25 -30z m6944 -5 c0 -8 -9 -15
-20 -15 -20 0 -26 11 -13 23 12 13 33 7 33 -8z m-8630 -51 c0 -14 2 -14 22 0
12 9 33 16 46 16 20 0 23 -4 18 -22 -3 -13 -6 -26 -6 -30 0 -5 -11 -8 -23 -8
-41 0 -55 -25 -81 -142 -5 -23 -12 -28 -36 -28 -17 0 -30 3 -30 8 0 4 10 55
22 115 20 99 24 107 45 107 14 0 23 -6 23 -16z m241 0 c11 -14 13 -14 21 0 5
9 18 16 28 16 23 0 26 -23 11 -80 -5 -19 -15 -61 -21 -92 -10 -52 -14 -58 -36
-58 -13 0 -24 5 -24 11 0 8 -4 8 -14 0 -20 -16 -72 -17 -90 -2 -40 34 -27 142
24 193 32 32 80 38 101 12z m275 8 c7 -4 8 -15 3 -29 -7 -18 -13 -21 -42 -16
-29 4 -38 1 -50 -18 -15 -23 -20 -53 -18 -93 1 -16 7 -18 46 -13 39 6 45 4 45
-12 0 -33 -33 -47 -97 -43 -79 6 -84 150 -8 210 28 22 97 30 121 14z m124 1
c-1 -5 -11 -55 -24 -113 l-22 -105 -32 -3 c-18 -2 -32 -1 -32 3 0 8 40 198 45
213 5 13 65 17 65 5z m173 -8 c13 -13 16 -13 21 0 3 8 17 15 31 15 20 0 25 -4
22 -17 -3 -10 -13 -54 -22 -98 -24 -115 -24 -115 -51 -115 -13 0 -24 4 -24 9
0 5 -13 3 -29 -5 -41 -20 -76 -5 -91 40 -16 48 9 136 46 165 31 24 76 27 97 6z
m256 6 c8 -5 11 -16 7 -29 -6 -17 -13 -19 -46 -15 -52 7 -54 -16 -5 -46 31
-18 35 -25 35 -60 0 -50 -31 -74 -94 -74 -53 0 -66 7 -66 38 0 22 2 24 27 14
33 -12 73 -4 73 16 0 8 -13 21 -30 30 -54 28 -64 72 -25 110 18 19 35 25 67
25 24 0 49 -4 57 -9z m300 -3 c11 -10 14 -10 18 0 3 6 16 12 29 12 28 0 28 9
-4 -145 -16 -76 -18 -80 -46 -83 -18 -2 -26 0 -21 7 8 14 3 14 -30 -3 -29 -15
-49 -12 -77 12 -38 32 -11 172 39 201 25 14 76 13 92 -1z m642 -4 c11 -14 13
-14 21 0 5 9 18 16 28 16 23 0 26 -23 11 -80 -5 -19 -15 -61 -21 -92 -10 -52
-14 -58 -36 -58 -13 0 -24 5 -24 11 0 8 -4 8 -14 0 -20 -16 -72 -17 -90 -2
-40 34 -27 142 24 193 32 32 80 38 101 12z m181 -9 c-4 -19 -3 -19 20 3 27 25
68 30 68 8 0 -30 -13 -46 -36 -46 -31 0 -50 -31 -67 -105 -13 -57 -15 -60 -45
-63 -18 -2 -32 -1 -32 3 0 8 40 198 45 213 3 7 15 12 27 10 17 -2 22 -9 20
-23z m178 9 c0 -14 2 -14 22 0 31 22 74 20 91 -4 l14 -20 18 20 c20 22 74 27
93 8 15 -15 15 -76 -1 -153 -12 -57 -14 -60 -45 -63 -18 -2 -32 -1 -32 1 0 3
7 40 16 82 16 79 12 101 -18 90 -20 -8 -34 -40 -49 -114 -13 -60 -14 -61 -46
-61 -37 0 -36 -4 -12 90 13 51 11 90 -4 90 -26 0 -47 -36 -63 -108 -16 -71
-17 -72 -49 -72 l-32 0 13 58 c7 31 18 83 24 115 10 51 14 57 36 57 15 0 24
-6 24 -16z m477 -10 c22 -23 25 -32 21 -80 -6 -67 -31 -104 -82 -121 -31 -11
-43 -10 -72 2 -42 17 -58 54 -49 114 15 97 120 147 182 85z m143 11 c0 -14 3
-14 24 0 35 23 77 16 95 -16 13 -24 13 -36 -3 -113 l-19 -86 -32 0 -33 0 14
58 c18 75 18 122 1 122 -26 0 -47 -36 -63 -108 -16 -71 -17 -72 -49 -72 l-32
0 13 58 c7 31 18 83 24 115 10 51 14 57 36 57 15 0 24 -6 24 -15z m234 -7 c3
-13 6 -41 6 -64 0 -22 3 -44 7 -48 4 -3 21 25 39 64 32 68 34 70 69 70 l36 0
-52 -97 c-119 -223 -126 -233 -186 -233 -28 0 -33 4 -33 24 0 18 7 25 29 29
55 11 59 47 24 245 -5 30 -4 32 25 32 22 0 31 -6 36 -22z m239 -10 l13 -32 24
32 c18 25 31 32 57 32 18 0 33 -3 33 -6 0 -3 -19 -29 -42 -56 l-42 -50 16 -42
c8 -22 19 -49 23 -58 6 -15 2 -18 -28 -18 -31 0 -37 4 -47 33 l-11 32 -27 -33
c-23 -28 -33 -33 -61 -30 l-33 3 46 56 46 56 -20 48 c-26 61 -26 65 10 65 24
0 32 -6 43 -32z m285 23 c8 -5 12 -17 10 -27 -3 -16 -11 -18 -46 -16 -52 4
-56 -14 -9 -43 66 -42 55 -114 -21 -134 -54 -15 -96 -1 -100 32 -3 25 -2 26
30 17 65 -19 93 14 39 46 -53 32 -61 96 -14 123 22 13 93 14 111 2z m4865 -8
c-3 -7 -9 -13 -14 -13 -5 0 -9 6 -9 13 0 8 6 14 14 14 8 0 12 -6 9 -14z m55
-91 c-12 -31 -28 -38 -35 -14 -4 11 35 57 43 50 2 -3 -2 -19 -8 -36z m-4818
-77 c0 -13 -40 -82 -54 -94 -9 -7 -22 -11 -31 -8 -12 5 -12 11 -1 39 7 18 16
41 19 51 4 11 17 17 37 17 16 0 30 -2 30 -5z m-712 -350 c-21 -19 -47 -35 -58
-35 -25 0 -25 5 1 41 16 23 28 29 57 29 l37 -1 -37 -34z m-3280 -12 c-3 -24
-8 -28 -40 -31 -21 -2 -38 -4 -38 -6 0 -2 -37 -177 -45 -213 -4 -18 -12 -23
-35 -23 -36 0 -37 4 -10 120 27 116 26 120 -10 120 -25 0 -30 4 -30 23 0 13 3
27 7 30 3 4 51 7 105 7 l99 0 -3 -27z m9642 17 c0 -5 -8 -10 -17 -10 -15 0
-16 2 -3 10 19 12 20 12 20 0z m-9040 -35 c0 -20 5 -25 26 -25 21 0 25 -4 22
-22 -2 -18 -11 -24 -34 -26 -27 -3 -32 -8 -37 -35 -3 -18 -9 -47 -13 -64 -6
-31 -5 -33 20 -33 21 0 26 -5 26 -24 0 -18 -7 -25 -30 -30 -17 -3 -42 -1 -56
5 -26 9 -27 11 -21 72 3 34 9 72 13 85 5 16 2 22 -10 22 -25 0 -19 29 9 40 14
5 30 21 37 35 15 34 48 34 48 0z m2260 0 c0 -20 5 -25 26 -25 21 0 25 -4 22
-22 -2 -18 -11 -24 -34 -26 -27 -3 -32 -8 -37 -35 -3 -18 -9 -47 -13 -64 -6
-31 -5 -33 20 -33 21 0 26 -5 26 -24 0 -18 -7 -25 -30 -30 -17 -3 -42 -1 -56
5 -26 9 -27 11 -21 72 3 34 9 72 13 85 5 16 2 22 -10 22 -25 0 -19 29 9 40 14
5 30 21 37 35 15 34 48 34 48 0z m-2718 -42 c17 -15 18 -15 18 0 0 11 8 17 25
17 30 0 30 2 3 -127 -20 -95 -23 -103 -45 -103 -13 0 -23 4 -23 9 0 6 -15 4
-32 -3 -58 -24 -98 8 -98 78 0 104 92 183 152 129z m178 1 c0 -14 2 -14 22 0
29 20 72 20 92 0 23 -22 21 -57 -9 -191 -4 -18 -12 -23 -35 -23 -35 0 -34 -3
-15 91 11 51 12 76 5 83 -26 26 -61 -35 -85 -146 -4 -23 -11 -28 -35 -28 -17
0 -30 3 -30 8 0 4 10 55 22 115 20 99 24 107 45 107 14 0 23 -6 23 -16z m422
-9 c-4 -19 -3 -19 20 3 27 25 68 30 68 8 0 -30 -13 -46 -36 -46 -31 0 -50 -31
-67 -105 -13 -57 -15 -60 -45 -63 -18 -2 -32 -1 -32 3 0 8 40 198 45 213 3 7
15 12 27 10 17 -2 22 -9 20 -23z m188 16 c0 -5 -7 -42 -15 -82 -11 -51 -12
-76 -5 -83 26 -26 61 35 85 147 4 22 11 27 35 27 17 0 30 -3 30 -7 0 -5 -10
-56 -22 -115 -20 -100 -24 -108 -45 -108 -15 0 -23 6 -23 17 0 14 -2 14 -20
-2 -27 -24 -79 -24 -96 0 -21 28 -19 61 11 193 4 17 12 22 35 22 17 0 30 -4
30 -9z m240 -7 c0 -14 2 -14 22 0 31 22 75 20 90 -3 11 -19 12 -19 38 1 37 27
81 21 97 -13 10 -21 9 -42 -4 -112 l-17 -87 -33 0 c-37 0 -36 -4 -12 90 13 51
11 90 -4 90 -26 0 -47 -36 -63 -108 -16 -71 -16 -72 -49 -72 l-32 0 13 58 c18
77 18 122 -1 122 -26 0 -43 -37 -69 -152 -5 -23 -12 -28 -36 -28 -17 0 -30 3
-30 8 0 4 10 55 22 115 20 99 24 107 45 107 14 0 23 -6 23 -16z m590 -4 c11
-11 20 -27 20 -36 0 -43 -53 -84 -110 -84 -33 0 -40 -19 -16 -39 11 -9 25 -10
50 -2 34 9 36 8 36 -14 0 -31 -12 -37 -71 -38 -84 -1 -118 59 -84 149 29 77
127 112 175 64z m130 3 c0 -15 2 -15 19 1 29 26 83 18 98 -15 10 -21 9 -42 -4
-112 l-17 -87 -34 0 c-23 0 -33 4 -29 13 10 27 30 157 24 163 -11 11 -44 -7
-55 -30 -6 -14 -17 -52 -23 -85 -13 -60 -14 -61 -47 -61 -27 0 -32 3 -28 18 2
9 12 53 21 97 9 44 19 88 22 98 6 23 53 23 53 0z m345 7 c3 -6 4 -19 0 -29 -5
-16 -12 -19 -38 -14 -44 7 -70 -23 -71 -80 l-1 -42 43 1 c37 1 42 -2 42 -22 0
-29 -11 -36 -66 -37 -63 0 -88 26 -87 91 1 59 24 106 61 126 31 17 108 21 117
6z m202 -12 c32 -30 32 -111 0 -159 -46 -69 -145 -71 -173 -3 -22 52 2 136 48
168 33 24 97 20 125 -6z m145 -3 c-4 -19 -3 -19 20 3 26 24 77 29 96 10 15
-15 15 -76 -1 -153 -12 -57 -14 -60 -45 -63 -18 -2 -32 -1 -32 2 0 2 7 37 15
77 16 77 15 99 -8 99 -24 0 -39 -28 -57 -103 -16 -69 -18 -72 -48 -75 -18 -2
-32 -1 -32 3 0 8 40 198 45 213 3 7 15 12 27 10 17 -2 22 -9 20 -23z m420 0
c-4 -19 -3 -19 20 3 27 25 68 30 68 8 0 -30 -13 -46 -36 -46 -31 0 -50 -31
-67 -105 -13 -57 -15 -60 -45 -63 -18 -2 -32 -1 -32 3 0 8 40 198 45 213 3 7
15 12 27 10 17 -2 22 -9 20 -23z m270 11 c48 -36 44 -129 -7 -184 -26 -29 -38
-35 -74 -35 -59 0 -91 31 -91 91 0 55 25 108 59 127 33 18 91 18 113 1z m329
4 c15 -9 17 -15 9 -29 -8 -16 -17 -18 -50 -14 -51 7 -51 -5 0 -46 47 -37 51
-67 17 -107 -19 -22 -32 -26 -73 -27 -60 -1 -74 6 -74 39 0 28 0 27 36 14 31
-12 64 -5 64 14 0 8 -16 26 -35 40 -64 49 -37 126 46 126 22 0 49 -5 60 -10z
m139 1 c0 -5 -7 -42 -15 -82 -11 -51 -12 -76 -5 -83 26 -26 61 35 85 147 4 22
11 27 35 27 17 0 30 -3 30 -7 0 -5 -10 -56 -22 -115 -20 -100 -24 -108 -45
-108 -15 0 -23 6 -23 17 0 14 -2 14 -20 -2 -27 -24 -79 -24 -96 0 -21 28 -19
61 11 193 4 17 12 22 35 22 17 0 30 -4 30 -9z m-1080 -494 c0 -8 -13 -78 -30
-155 -16 -78 -30 -144 -30 -147 0 -3 -15 -5 -33 -5 l-34 0 19 88 c53 251 47
232 79 232 18 0 29 -5 29 -13z m129 6 c0 -5 -15 -75 -33 -158 l-32 -150 -32
-3 c-18 -2 -32 -1 -32 2 0 9 60 290 65 304 5 13 65 17 64 5z m1155 1 c23 -9
20 -41 -5 -54 -38 -21 -69 28 -31 49 21 13 17 12 36 5z m5894 -39 c2 -40 -5
-45 -17 -12 -5 13 -5 27 1 35 14 17 15 16 16 -23z m-4438 11 c0 -37 -12 -46
-60 -46 -34 0 -50 -4 -54 -16 -10 -27 -7 -34 19 -34 36 0 75 -42 75 -80 0 -72
-48 -114 -129 -113 -61 1 -71 7 -71 44 0 26 2 29 19 19 50 -26 111 -4 111 40
0 33 -23 45 -64 34 -18 -4 -28 -2 -32 9 -5 13 20 130 32 149 3 5 39 8 80 8 57
0 74 -3 74 -14z m-4820 -31 c0 -20 5 -25 26 -25 21 0 25 -4 22 -22 -2 -18 -11
-24 -34 -26 -27 -3 -32 -8 -37 -35 -3 -18 -9 -47 -13 -64 -6 -31 -5 -33 20
-33 21 0 26 -5 26 -24 0 -18 -7 -25 -30 -30 -17 -3 -42 -1 -56 5 -26 9 -27 11
-21 72 3 34 9 72 13 85 5 16 2 22 -10 22 -25 0 -19 29 9 40 14 5 30 21 37 35
15 34 48 34 48 0z m670 0 c0 -20 5 -25 26 -25 21 0 25 -4 22 -22 -2 -18 -11
-24 -34 -26 -27 -3 -32 -8 -37 -35 -3 -18 -9 -47 -13 -64 -6 -31 -5 -33 20
-33 21 0 26 -5 26 -24 0 -18 -7 -25 -30 -30 -17 -3 -42 -1 -56 5 -26 9 -27 11
-21 72 3 34 9 72 13 85 5 16 2 22 -10 22 -25 0 -19 29 9 40 14 5 30 21 37 35
15 34 48 34 48 0z m3330 0 c0 -20 5 -25 26 -25 21 0 25 -4 22 -22 -2 -18 -11
-24 -34 -26 -27 -3 -32 -8 -37 -35 -3 -18 -9 -47 -13 -64 -6 -31 -5 -33 20
-33 21 0 26 -5 26 -24 0 -18 -7 -25 -30 -30 -17 -3 -42 -1 -56 5 -26 9 -27 11
-21 72 3 34 9 72 13 85 5 16 2 22 -10 22 -25 0 -19 29 9 40 14 5 30 21 37 35
15 34 48 34 48 0z m-4634 -33 c7 -4 8 -15 3 -29 -7 -18 -13 -21 -42 -16 -29 4
-38 1 -50 -18 -15 -23 -20 -53 -18 -93 1 -16 7 -18 46 -13 39 6 45 4 45 -12 0
-33 -33 -47 -97 -43 -79 6 -84 150 -8 210 28 22 97 30 121 14z m176 -9 c17
-15 18 -15 18 0 0 11 8 17 25 17 30 0 30 2 3 -127 -20 -95 -23 -103 -45 -103
-13 0 -23 4 -23 9 0 6 -15 4 -32 -3 -58 -24 -98 8 -98 78 0 104 92 183 152
129z m178 1 c0 -14 2 -14 22 0 29 20 72 20 92 0 23 -22 21 -57 -9 -191 -4 -18
-12 -23 -35 -23 -35 0 -34 -3 -15 91 11 51 12 76 5 83 -26 26 -61 -35 -85
-146 -4 -23 -11 -28 -35 -28 -17 0 -30 3 -30 8 0 4 10 55 22 115 20 99 24 107
45 107 14 0 23 -6 23 -16z m492 -1 c17 -15 18 -15 18 0 0 11 8 17 25 17 30 0
30 2 3 -127 -20 -95 -23 -103 -45 -103 -13 0 -23 4 -23 9 0 6 -15 4 -32 -3
-58 -24 -98 8 -98 78 0 104 92 183 152 129z m178 1 c0 -14 2 -14 22 0 29 20
72 20 92 0 23 -22 21 -57 -9 -191 -4 -18 -12 -23 -35 -23 -35 0 -34 -3 -15 91
11 51 12 76 5 83 -26 26 -61 -35 -85 -146 -4 -23 -11 -28 -35 -28 -17 0 -30 3
-30 8 0 4 10 55 22 115 20 99 24 107 45 107 14 0 23 -6 23 -16z m522 -1 c10
-9 18 -30 18 -49 0 -41 -31 -64 -95 -72 -48 -5 -54 -12 -29 -36 18 -19 19 -19
62 -7 30 9 32 8 32 -14 0 -27 -23 -38 -84 -38 -97 0 -118 143 -31 211 34 27
100 30 127 5z m225 -3 c1 -8 5 -41 8 -73 l7 -59 35 76 c35 73 38 76 70 76 19
0 33 -4 31 -8 -1 -4 -36 -69 -76 -144 -78 -147 -105 -178 -158 -178 -30 0 -34
3 -34 25 0 18 5 25 19 25 10 0 29 8 42 19 23 19 23 19 11 117 -7 55 -15 109
-19 122 -5 22 -3 23 28 20 21 -2 35 -9 36 -18z m327 -17 c3 -21 6 -56 6 -78
l1 -40 40 78 c36 71 42 77 70 77 38 0 40 7 -53 -168 -74 -138 -97 -162 -153
-162 -20 0 -25 5 -25 24 0 18 7 25 29 29 48 10 53 33 36 146 -20 134 -20 131
14 131 25 0 29 -4 35 -37z m298 20 c17 -15 18 -15 18 0 0 11 8 17 25 17 30 0
30 2 3 -127 -20 -95 -23 -103 -45 -103 -13 0 -23 4 -23 9 0 6 -15 4 -32 -3
-58 -24 -98 8 -98 78 0 104 92 183 152 129z m638 -3 c11 -11 20 -27 20 -36 0
-43 -53 -84 -110 -84 -33 0 -40 -19 -16 -39 11 -9 25 -10 50 -2 34 9 36 8 36
-14 0 -31 -12 -37 -71 -38 -84 -1 -118 59 -84 149 29 77 127 112 175 64z m116
-57 l7 -77 38 77 c36 70 42 77 69 77 17 0 30 -3 30 -6 0 -3 -26 -55 -57 -115
-57 -107 -59 -109 -94 -109 l-35 0 -12 103 c-16 133 -17 127 17 127 29 0 29 0
37 -77z m293 65 c11 -10 14 -10 18 0 3 6 16 12 29 12 28 0 28 9 -4 -145 -16
-76 -18 -80 -46 -83 -18 -2 -26 0 -21 7 8 14 3 14 -30 -3 -29 -15 -49 -12 -77
12 -38 32 -11 172 39 201 25 14 76 13 92 -1z m181 -3 c0 -14 3 -14 24 0 35 23
77 16 95 -16 13 -24 13 -36 -3 -113 l-19 -86 -32 0 -33 0 14 58 c18 75 18 122
1 122 -26 0 -47 -36 -63 -108 -16 -71 -17 -72 -49 -72 l-32 0 13 58 c7 31 18
83 24 115 10 51 14 57 36 57 15 0 24 -6 24 -15z m370 -7 c-1 -13 -13 -79 -29
-147 -31 -138 -47 -161 -107 -161 -30 0 -34 3 -34 25 0 18 5 25 19 25 30 0 37
18 67 153 27 127 27 127 56 127 23 0 28 -4 28 -22z m116 -20 c-20 -123 -20
-138 2 -138 24 0 45 42 62 123 11 54 13 57 41 57 35 0 35 0 8 -130 -20 -92
-24 -100 -45 -100 -16 0 -24 6 -24 17 0 14 -2 14 -20 -2 -27 -24 -79 -24 -97
1 -16 20 -14 66 7 162 11 49 13 52 42 52 30 0 31 0 24 -42z m246 17 c-4 -19
-3 -19 20 3 26 24 77 29 96 10 15 -15 15 -76 -1 -153 -12 -57 -14 -60 -45 -63
-18 -2 -32 -1 -32 2 0 2 7 37 15 77 16 77 15 99 -8 99 -24 0 -39 -28 -57 -103
-16 -69 -18 -72 -48 -75 -18 -2 -32 -1 -32 3 0 8 40 198 45 213 3 7 15 12 27
10 17 -2 22 -9 20 -23z m517 8 c31 -25 37 -83 16 -139 -21 -54 -52 -77 -107
-77 -75 0 -109 73 -74 157 29 69 115 99 165 59z m219 8 c8 -5 12 -17 10 -27
-3 -16 -11 -18 -46 -16 -52 4 -56 -14 -9 -43 66 -42 55 -114 -21 -134 -54 -15
-96 -1 -100 32 -3 25 -2 26 30 17 65 -19 93 14 39 46 -53 32 -61 96 -14 123
22 13 93 14 111 2z m4811 -133 c1 -5 -3 -8 -8 -8 -12 0 -22 30 -14 43 6 10 20
-13 22 -35z m-9694 -360 c20 -9 31 -8 50 2 33 18 43 5 24 -28 -17 -32 -43 -39
-76 -21 -18 10 -26 10 -35 1 -15 -15 -48 -16 -48 -2 0 11 45 60 54 60 3 0 17
-5 31 -12z m775 -11 c0 -12 -4 -36 -9 -53 -9 -31 -9 -31 18 -21 40 15 79 2 87
-29 6 -23 -10 -147 -23 -181 -6 -15 -63 -18 -63 -4 0 5 7 42 15 82 11 51 12
76 5 83 -26 26 -61 -35 -85 -146 -4 -23 -11 -28 -35 -28 -17 0 -30 3 -30 8 0
4 14 76 32 160 l31 152 29 0 c22 0 28 -4 28 -23z m698 -1 c6 -27 -25 -48 -49
-35 -23 12 -24 23 -3 44 21 20 48 16 52 -9z m732 9 c0 -8 -13 -78 -30 -155
-16 -77 -30 -143 -30 -145 0 -3 -11 -5 -25 -5 -14 0 -25 5 -25 11 0 8 -4 8
-14 0 -20 -16 -72 -17 -90 -2 -40 34 -27 142 24 193 30 29 76 38 97 17 8 -8
14 4 23 45 11 53 13 56 41 56 19 0 29 -5 29 -15z m928 -20 c-21 -19 -47 -35
-58 -35 -25 0 -25 5 1 41 16 23 28 29 57 29 l37 -1 -37 -34z m370 11 c6 -27
-25 -48 -49 -35 -23 12 -24 23 -3 44 21 20 48 16 52 -9z m-3736 -83 c17 -15
18 -15 18 0 0 11 8 17 25 17 30 0 30 2 3 -127 -20 -95 -23 -103 -45 -103 -13
0 -23 4 -23 9 0 6 -15 4 -32 -3 -58 -24 -98 8 -98 78 0 104 92 183 152 129z
m178 1 c0 -14 2 -14 22 0 29 20 72 20 92 0 23 -22 21 -57 -9 -191 -4 -18 -12
-23 -35 -23 -35 0 -34 -3 -15 91 11 51 12 76 5 83 -26 26 -61 -35 -85 -146 -4
-23 -11 -28 -35 -28 -17 0 -30 3 -30 8 0 4 10 55 22 115 20 99 24 107 45 107
14 0 23 -6 23 -16z m342 2 c48 -36 44 -129 -7 -184 -26 -29 -38 -35 -74 -35
-59 0 -91 31 -91 91 0 55 25 108 59 127 33 18 91 18 113 1z m227 5 c8 -5 11
-16 7 -29 -6 -17 -13 -19 -46 -15 -52 7 -54 -16 -5 -46 31 -18 35 -25 35 -60
0 -50 -31 -74 -94 -74 -53 0 -66 7 -66 38 0 22 2 24 27 14 33 -12 73 -4 73 16
0 8 -13 21 -30 30 -54 28 -64 72 -25 110 18 19 35 25 67 25 24 0 49 -4 57 -9z
m550 -3 c11 -10 14 -10 18 0 3 6 16 12 29 12 28 0 28 9 -4 -145 -16 -76 -18
-80 -46 -83 -18 -2 -26 0 -21 7 8 14 3 14 -30 -3 -29 -15 -49 -12 -77 12 -38
32 -11 172 39 201 25 14 76 13 92 -1z m276 2 c3 -6 4 -19 0 -29 -5 -16 -12
-19 -38 -14 -44 7 -70 -23 -71 -80 l-1 -42 43 1 c37 1 42 -2 42 -22 0 -29 -11
-36 -66 -37 -63 0 -88 26 -87 91 1 59 24 106 61 126 31 17 108 21 117 6z m121
-7 c-2 -10 -12 -54 -21 -98 -25 -119 -23 -115 -56 -115 -16 0 -29 3 -29 8 0 4
10 55 22 115 l22 107 34 0 c27 0 32 -3 28 -17z m206 0 c10 -9 18 -30 18 -49 0
-41 -31 -64 -95 -72 -48 -5 -54 -12 -29 -36 18 -19 19 -19 62 -7 30 9 32 8 32
-14 0 -27 -23 -38 -84 -38 -97 0 -118 143 -31 211 34 27 100 30 127 5z m138 0
c0 -15 2 -15 19 1 29 26 83 18 98 -15 10 -21 9 -42 -4 -112 l-17 -87 -34 0
c-23 0 -33 4 -29 13 10 27 30 157 24 163 -11 11 -44 -7 -55 -30 -6 -14 -17
-52 -23 -85 -13 -60 -14 -61 -47 -61 -27 0 -32 3 -28 18 2 9 12 53 21 97 9 44
19 88 22 98 6 23 53 23 53 0z m589 0 c31 -25 37 -83 16 -139 -21 -54 -52 -77
-107 -77 -75 0 -109 73 -74 157 29 69 115 99 165 59z m261 0 c0 -15 1 -15 18
0 26 24 79 22 92 -3 l11 -20 21 20 c26 24 71 26 92 4 23 -22 21 -57 -9 -191
-4 -18 -12 -23 -35 -23 -35 0 -34 -3 -15 90 15 73 14 90 -9 90 -23 0 -39 -28
-56 -103 -16 -69 -18 -72 -48 -75 -18 -2 -32 -1 -32 1 0 3 7 40 16 82 16 79
12 101 -18 90 -20 -8 -34 -40 -49 -114 -13 -60 -14 -61 -47 -61 -27 0 -32 3
-28 18 2 9 12 53 21 97 9 44 19 88 22 98 6 23 53 23 53 0z m384 -10 c-3 -16
-10 -44 -15 -63 -15 -60 -12 -90 11 -90 25 0 45 38 60 118 13 62 13 62 47 62
28 0 33 -3 29 -17 -2 -10 -12 -54 -21 -98 -9 -44 -19 -88 -22 -97 -6 -24 -53
-24 -53 -1 0 14 -2 15 -17 1 -27 -23 -52 -29 -73 -18 -38 20 -42 45 -24 140
l17 90 34 0 c31 0 33 -2 27 -27z m313 19 c7 -4 10 -17 6 -30 -5 -19 -10 -21
-43 -16 -52 8 -60 -11 -16 -37 40 -23 54 -58 40 -98 -12 -32 -67 -53 -118 -44
-31 5 -36 9 -36 33 0 28 1 28 35 17 29 -9 39 -8 51 5 14 14 11 18 -25 47 -48
38 -55 77 -19 111 22 21 100 28 125 12z m139 -9 c-2 -10 -12 -54 -21 -98 -25
-119 -23 -115 -56 -115 -16 0 -29 3 -29 8 0 4 10 55 22 115 l22 107 34 0 c27
0 32 -3 28 -17z m200 9 c7 -4 8 -15 3 -29 -7 -18 -13 -21 -42 -16 -29 4 -38 1
-50 -18 -15 -23 -20 -53 -18 -93 1 -16 7 -18 46 -13 39 6 45 4 45 -12 0 -33
-33 -47 -97 -43 -79 6 -84 150 -8 210 28 22 97 30 121 14z m175 -8 c11 -14 13
-14 21 0 5 9 18 16 28 16 23 0 26 -23 11 -80 -5 -19 -15 -61 -21 -92 -10 -52
-14 -58 -36 -58 -13 0 -24 5 -24 11 0 8 -4 8 -14 0 -20 -16 -72 -17 -90 -2
-40 34 -27 142 24 193 32 32 80 38 101 12z m157 -181 c4 -25 -27 -46 -52 -37
-16 6 -22 45 -9 58 16 15 58 1 61 -21z m-2338 -448 c0 -96 -3 -115 -15 -115
-12 0 -15 19 -15 108 0 60 3 112 7 115 18 19 23 -3 23 -108z m271 95 c10 0 19
-7 19 -15 0 -11 -9 -13 -42 -9 -62 9 -98 -21 -98 -81 0 -35 5 -48 26 -64 15
-12 41 -21 60 -21 32 0 34 2 34 35 0 31 -3 35 -25 35 -14 0 -25 5 -25 10 0 6
18 10 41 10 l40 0 -3 -52 -3 -53 -61 -3 c-58 -3 -63 -1 -88 28 -33 40 -36 105
-5 144 20 26 73 48 97 40 8 -2 22 -4 33 -4z m-2201 -10 c0 -5 -13 -10 -30 -10
l-30 0 0 -95 c0 -78 -3 -95 -15 -95 -12 0 -15 17 -15 95 l0 95 -35 0 c-19 0
-35 5 -35 10 0 6 33 10 80 10 47 0 80 -4 80 -10z m1281 -76 l32 -85 32 83 c25
65 37 84 54 86 20 3 21 0 21 -102 0 -88 -3 -106 -15 -106 -12 0 -15 16 -16 83
l0 82 -32 -83 c-21 -53 -37 -81 -46 -80 -7 2 -28 41 -45 88 l-31 85 -3 -87
c-4 -125 -22 -111 -22 17 0 97 1 105 19 105 15 0 27 -19 52 -86z m-855 36 c13
0 24 -4 24 -10 0 -5 -11 -10 -25 -10 -25 0 -26 -2 -23 -57 3 -51 6 -58 26 -61
35 -5 26 -24 -10 -20 -33 3 -33 3 -36 63 -2 39 -8 64 -18 72 -13 9 -13 13 -1
20 7 4 17 17 22 28 8 19 9 19 12 -2 3 -17 11 -23 29 -23z m1244 14 c0 -8 9
-14 20 -14 11 0 20 -4 20 -10 0 -5 -9 -10 -20 -10 -18 0 -20 -7 -20 -60 0 -53
2 -60 20 -60 11 0 20 -4 20 -10 0 -17 -57 -12 -64 6 -3 9 -6 40 -6 69 0 34 -5
55 -12 57 -9 3 -8 9 5 22 9 10 17 22 17 27 0 6 5 7 10 4 6 -3 10 -13 10 -21z
m-1540 -24 c9 -6 16 -32 18 -78 l4 -69 -53 -1 c-59 -1 -79 10 -79 43 0 29 15
41 63 49 29 5 37 11 35 24 -3 13 -13 17 -41 16 -35 -1 -45 5 -30 19 9 10 66 8
83 -3z m90 -2 c0 -9 3 -9 12 0 17 17 64 15 82 -4 22 -21 23 -144 1 -144 -11 0
-15 16 -17 68 -3 60 -5 67 -24 70 -36 5 -54 -23 -54 -84 0 -41 -4 -54 -15 -54
-12 0 -15 16 -15 80 0 64 3 80 15 80 8 0 15 -5 15 -12z m283 0 c4 -10 7 -10
18 0 14 13 49 17 49 4 0 -4 -13 -13 -30 -19 -29 -11 -30 -14 -30 -72 0 -48 -3
-61 -15 -61 -12 0 -15 16 -15 80 0 72 10 102 23 68z m117 -41 c0 -63 16 -90
50 -85 27 3 37 29 39 96 1 23 6 42 11 42 6 0 10 -33 10 -80 0 -47 -4 -80 -10
-80 -5 0 -10 5 -10 12 0 9 -3 9 -12 0 -7 -7 -26 -12 -43 -12 -17 0 -36 5 -43
12 -15 15 -16 148 -2 148 6 0 10 -24 10 -53z m271 42 c11 -6 20 -5 24 1 3 5
22 10 40 10 44 0 55 -20 55 -99 0 -48 -3 -61 -15 -61 -12 0 -15 14 -15 65 0
52 -4 67 -16 72 -33 12 -49 -11 -52 -76 -2 -45 -7 -61 -17 -61 -12 0 -15 15
-15 65 0 52 -4 67 -16 72 -33 12 -49 -11 -52 -76 -2 -45 -7 -61 -17 -61 -12 0
-15 16 -15 78 l0 77 47 2 c26 1 55 -3 64 -8z m689 -9 c11 -11 20 -31 20 -45 0
-24 -3 -25 -55 -25 -58 0 -66 -8 -38 -35 11 -11 28 -15 50 -13 22 3 33 0 33
-9 0 -9 -15 -13 -44 -13 -57 0 -91 36 -82 89 11 67 73 94 116 51z m270 1 c13
-25 13 -141 0 -141 -5 0 -10 5 -10 12 0 9 -3 9 -12 0 -17 -17 -73 -15 -88 2
-6 8 -10 25 -8 38 2 18 14 26 51 37 34 11 47 19 44 30 -2 12 -13 15 -40 14
-35 -2 -46 5 -30 20 3 4 23 7 44 7 28 0 41 -5 49 -19z m446 8 c4 -8 9 -8 17 0
14 14 47 14 47 1 0 -5 -6 -10 -14 -10 -30 0 -46 -30 -46 -86 0 -41 -4 -54 -15
-54 -12 0 -15 16 -15 80 0 74 9 97 26 69z m213 -15 c45 -57 15 -134 -52 -134
-45 0 -72 30 -72 80 0 76 80 110 124 54z m81 -27 c0 -63 16 -90 50 -85 27 3
37 29 39 96 1 23 6 42 11 42 6 0 10 -33 10 -80 0 -47 -4 -80 -10 -80 -5 0 -10
5 -10 12 0 9 -3 9 -12 0 -7 -7 -26 -12 -43 -12 -17 0 -36 5 -43 12 -15 15 -16
148 -2 148 6 0 10 -24 10 -53z m285 31 c8 -13 15 -41 15 -64 0 -53 -25 -78
-75 -72 -35 4 -35 4 -35 -34 0 -27 -4 -38 -15 -38 -12 0 -15 19 -15 113 l0
112 55 2 c46 2 56 -1 70 -19z m8878 -73 c-3 -9 -8 -14 -10 -11 -3 3 -2 9 2 15
9 16 15 13 8 -4z m31 -54 c-13 -27 -28 -53 -35 -56 -8 -6 -8 -2 1 14 6 12 8
30 5 41 -4 12 2 23 17 34 36 25 38 19 12 -33z m66 25 c0 -8 -4 -17 -9 -21 -5
-3 -12 -18 -16 -34 -3 -16 -14 -35 -23 -42 -14 -11 -15 -11 -4 1 6 8 12 24 12
36 0 31 17 74 30 74 5 0 10 -6 10 -14z m-10770 -10 c0 -25 -19 -66 -30 -66 -9
0 -7 27 6 68 5 17 24 15 24 -2z m10795 -22 c-8 -16 -15 -23 -15 -16 0 17 20
55 26 49 2 -2 -2 -17 -11 -33z m50 -1 c-17 -40 -43 -73 -31 -40 3 10 6 25 6
32 0 13 26 45 36 45 2 0 -3 -17 -11 -37z m95 7 c4 7 15 10 23 7 13 -5 13 -11
3 -41 -14 -41 -26 -56 -26 -34 0 9 -7 18 -15 22 -8 3 -15 1 -15 -4 0 -6 -5
-10 -11 -10 -7 0 -9 10 -5 25 4 17 2 25 -6 25 -8 1 -5 7 7 15 17 14 20 13 28
-1 7 -13 11 -13 17 -4z m130 -14 c6 -8 18 -12 26 -9 13 5 19 -9 14 -32 -11
-45 -19 -73 -25 -88 -6 -13 -3 -16 9 -11 9 3 16 14 16 24 0 10 9 22 21 25 19
6 20 7 2 20 -14 11 -16 16 -5 26 10 11 12 10 12 -1 0 -7 7 -22 17 -32 9 -11
11 -18 5 -18 -7 0 -12 -9 -12 -20 0 -11 -5 -20 -11 -20 -7 0 -9 -10 -5 -25 5
-20 3 -25 -14 -25 -11 0 -20 6 -20 14 0 8 -9 12 -25 11 -16 -2 -23 1 -18 8 13
22 9 56 -9 60 -9 3 -18 1 -20 -5 -2 -5 -12 -6 -21 -2 -14 5 -17 13 -12 28 4
11 7 29 6 38 0 25 13 30 35 13 15 -12 16 -14 2 -9 -15 5 -15 3 -5 -19 l12 -25
12 30 c17 39 17 38 -8 38 -11 0 -17 5 -14 10 9 14 21 12 35 -4z m-299 -63 c-9
-16 -10 -14 -11 12 0 21 3 26 11 18 8 -8 8 -16 0 -30z m-7 -25 c7 -5 5 -8 -5
-8 -18 0 -32 24 -21 35 4 3 8 0 11 -7 2 -7 9 -16 15 -20z m78 -10 c-6 -6 -7 0
-4 19 5 21 7 23 10 9 2 -10 0 -22 -6 -28z m59 15 c-12 -20 -14 -14 -5 12 4 9
9 14 11 11 3 -2 0 -13 -6 -23z m-114 -5 c-3 -8 -6 -5 -6 6 -1 11 2 17 5 13 3
-3 4 -12 1 -19z m427 -55 c-5 -90 -10 -107 -24 -98 -18 11 7 175 26 175 1 0 1
-35 -2 -77z m-262 42 c-5 -31 -20 -33 -16 -2 3 28 2 27 13 27 4 0 6 -11 3 -25z
m401 -50 c-1 -42 -8 -75 -19 -95 -23 -38 -34 -38 -34 -1 0 40 10 62 24 54 6
-4 5 1 -2 10 -11 13 -11 23 -2 54 25 75 34 68 33 -22z m-116 33 c-3 -8 -6 -5
-6 6 -1 11 2 17 5 13 3 -3 4 -12 1 -19z m196 -72 c4 4 7 2 7 -4 0 -20 -19 -23
-30 -5 -8 15 -9 13 -4 -9 4 -17 2 -28 -4 -28 -6 0 -13 -8 -16 -17 -3 -10 -4
14 -1 52 5 102 17 123 30 57 5 -30 13 -50 18 -46z m-513 75 c0 -6 -4 -13 -10
-16 -5 -3 -10 1 -10 9 0 9 5 16 10 16 6 0 10 -4 10 -9z m-43 -23 c-3 -8 -6 -5
-6 6 -1 11 2 17 5 13 3 -3 4 -12 1 -19z m401 -28 c0 -17 -4 -28 -9 -25 -5 4
-9 20 -9 36 0 39 17 29 18 -11z m-262 3 c-10 -10 -19 5 -10 18 6 11 8 11 12 0
2 -7 1 -15 -2 -18z m-96 3 c0 -3 -4 -8 -10 -11 -5 -3 -10 -1 -10 4 0 6 5 11
10 11 6 0 10 -2 10 -4z m24 -11 c3 -8 1 -15 -4 -15 -6 0 -10 7 -10 15 0 8 2
15 4 15 2 0 6 -7 10 -15z m283 -37 c-3 -7 -5 -2 -5 12 0 14 2 19 5 13 2 -7 2
-19 0 -25z m34 -3 c15 10 10 -22 -6 -35 -13 -11 -15 -7 -14 26 1 22 3 31 6 21
2 -9 9 -15 14 -12z m-34 -37 c-3 -8 -6 -5 -6 6 -1 11 2 17 5 13 3 -3 4 -12 1
-19z m2911 -183 c51 -22 81 -52 108 -110 73 -155 -34 -320 -207 -319 -80 0
-145 34 -187 96 -37 56 -44 166 -14 224 23 44 63 84 107 107 39 21 145 22 193
2z m1380 -325 c59 -36 78 -118 42 -177 -50 -83 -176 -84 -224 -3 -21 36 -21
109 0 139 42 59 122 77 182 41z m-3708 -184 c0 -3 -4 -8 -10 -11 -5 -3 -10 -1
-10 4 0 6 5 11 10 11 6 0 10 -2 10 -4z m2738 -97 c40 -14 62 -49 62 -99 0 -33
-6 -48 -29 -71 -65 -64 -171 -20 -171 71 0 53 14 78 53 95 39 17 46 18 85 4z
m-5041 -119 c1 -19 7 -66 13 -105 9 -62 28 -285 28 -325 0 -8 0 -49 1 -90 1
-41 -1 -91 -3 -110 -3 -19 -8 -71 -11 -115 -3 -44 -11 -101 -17 -128 -5 -26
-11 -63 -12 -82 -2 -19 -6 -38 -9 -42 -4 -3 -7 -17 -7 -30 0 -13 -6 -23 -12
-23 -10 0 -9 -3 1 -9 9 -6 10 -11 2 -15 -6 -4 -8 -13 -4 -19 13 -21 12 -37 -3
-37 -16 0 -19 -16 -4 -25 15 -9 12 -45 -5 -51 -8 -4 -15 -10 -15 -15 0 -5 7
-9 15 -9 23 0 18 -17 -7 -24 -13 -3 -83 -6 -157 -6 l-133 0 7 23 c4 12 8 40
10 62 4 57 16 206 19 230 1 11 5 25 9 31 3 6 8 25 9 43 1 17 5 31 9 31 4 0 11
25 14 55 4 32 12 53 19 52 7 -1 10 15 8 47 -1 28 0 57 4 65 3 9 8 27 10 41 10
80 46 229 69 285 4 11 19 47 32 80 13 33 28 68 34 78 6 11 8 21 5 24 -3 3 2
19 10 35 9 17 13 32 10 35 -3 3 1 15 9 27 8 11 15 29 15 39 0 12 6 17 17 15
12 -2 18 -14 20 -38z m4551 8 c23 -16 48 -44 61 -70 21 -44 21 -54 21 -629 l1
-584 20 37 c32 62 106 86 168 54 36 -19 52 -39 61 -79 4 -17 8 160 9 395 1
239 5 438 10 451 28 72 118 92 172 38 l29 -29 1 -324 c0 -275 2 -317 13 -283
29 90 62 131 136 164 81 37 171 23 240 -37 77 -65 74 -47 80 -522 5 -420 5
-425 23 -388 22 44 75 72 117 63 32 -7 80 -50 80 -71 0 -8 4 -14 10 -14 6 0
11 276 12 774 3 763 3 775 24 803 11 15 41 39 67 52 38 19 56 22 93 16 62 -9
118 -59 133 -120 7 -29 11 -219 12 -567 1 -288 5 -508 9 -489 28 117 196 137
251 29 18 -34 19 -62 19 -357 0 -299 -1 -319 -17 -316 -10 2 -18 4 -18 5 0 1
-63 4 -140 6 -128 4 -200 9 -200 14 0 1 -63 4 -140 6 -132 4 -220 9 -220 14 0
1 -63 4 -140 6 -128 4 -200 9 -200 14 0 1 -63 4 -140 6 -132 4 -220 9 -220 14
0 1 -63 4 -140 6 -128 4 -200 9 -200 14 0 1 -63 4 -140 6 -126 3 -200 9 -200
14 0 1 -70 4 -155 6 -85 3 -169 6 -187 7 l-32 1 -1 431 c0 413 1 431 20 463
29 46 76 72 134 72 79 0 130 -43 157 -130 4 -14 8 186 8 445 1 434 3 473 20
510 34 74 90 107 177 102 46 -2 72 -9 102 -29z m-1421 -18 c87 -52 83 -198 -6
-245 -96 -49 -211 18 -211 123 0 85 56 142 140 142 27 0 58 -8 77 -20z m-1982
-360 c3 -6 -1 -7 -9 -4 -18 7 -21 14 -7 14 6 0 13 -4 16 -10z m2509 -90 c63
-31 81 -63 81 -142 0 -63 -2 -69 -35 -103 -139 -143 -361 53 -233 206 50 59
118 73 187 39z m-3537 -22 c-3 -8 -6 -5 -6 6 -1 11 2 17 5 13 3 -3 4 -12 1
-19z m1123 -48 c0 -5 -5 -10 -11 -10 -5 0 -7 5 -4 10 3 6 8 10 11 10 2 0 4 -4
4 -10z m40 -190 c-20 -13 -43 -13 -35 0 3 6 16 10 28 10 18 0 19 -2 7 -10z
m-50 -14 c0 -3 -4 -8 -10 -11 -5 -3 -10 -1 -10 4 0 6 5 11 10 11 6 0 10 -2 10
-4z m30 -70 c0 -3 -4 -8 -10 -11 -5 -3 -10 -1 -10 4 0 6 5 11 10 11 6 0 10 -2
10 -4z m-2057 -310 c7 -17 -76 -150 -86 -140 -13 13 -7 57 11 77 12 15 13 18
2 12 -16 -9 15 31 40 52 20 16 27 16 33 -1z m-112 -15 c4 7 11 10 15 6 4 -3 1
-13 -5 -21 -7 -8 -10 -24 -6 -36 9 -29 -2 -55 -30 -68 -20 -9 -25 -8 -30 7 -3
10 -3 24 -1 32 3 8 10 34 16 59 10 38 13 41 22 26 8 -15 12 -16 19 -5z m5182
-753 c-4 -8 29 -10 239 -12 69 0 124 -4 122 -8 -5 -8 28 -10 228 -12 64 0 114
-4 112 -8 -5 -8 28 -10 238 -12 69 0 124 -4 122 -8 -5 -8 28 -10 228 -12 64 0
114 -4 112 -8 -5 -8 28 -10 238 -12 69 0 124 -4 122 -8 -5 -8 28 -10 228 -12
64 0 114 -4 112 -8 -3 -5 7 -8 21 -8 14 0 24 -4 20 -9 -3 -5 -18 -7 -33 -4
-15 3 -88 6 -162 8 -74 2 -135 4 -135 5 0 5 -87 10 -220 14 -77 2 -140 5 -140
6 0 5 -72 10 -200 14 -77 2 -140 5 -140 6 0 5 -88 10 -220 14 -77 2 -140 5
-140 6 0 5 -72 10 -200 14 -77 2 -140 5 -140 6 0 5 -88 10 -220 14 -77 2 -140
5 -140 6 0 5 -72 10 -200 14 -77 2 -141 5 -142 6 -2 1 -12 3 -22 4 -11 0 -22
4 -26 8 -4 4 72 6 168 5 96 -1 173 -5 170 -9z"/>
<path d="M12585 9700 c3 -5 8 -10 11 -10 2 0 4 5 4 10 0 6 -5 10 -11 10 -5 0
-7 -4 -4 -10z"/>
<path d="M12930 9699 c0 -5 5 -7 10 -4 6 3 10 8 10 11 0 2 -4 4 -10 4 -5 0
-10 -5 -10 -11z"/>
<path d="M12616 9689 c3 -5 18 -9 34 -9 16 0 31 4 34 9 3 4 -12 8 -34 8 -22 0
-37 -4 -34 -8z"/>
<path d="M12645 9629 c-4 -6 -5 -12 -2 -15 2 -3 7 2 10 11 7 17 1 20 -8 4z"/>
<path d="M12706 9613 c-6 -14 -5 -15 5 -6 7 7 10 15 7 18 -3 3 -9 -2 -12 -12z"/>
<path d="M12826 9613 c-6 -14 -5 -15 5 -6 7 7 10 15 7 18 -3 3 -9 -2 -12 -12z"/>
<path d="M12720 9571 c-13 -11 -28 -17 -32 -15 -4 3 -14 -9 -23 -25 -8 -17
-24 -35 -35 -41 -20 -11 -27 -2 -12 16 4 5 -7 -5 -25 -23 -18 -18 -33 -39 -33
-48 0 -18 7 -18 39 -1 18 10 20 15 11 21 -9 6 2 15 36 31 54 25 69 23 54 -7
-6 -11 -15 -17 -20 -14 -5 3 -12 -7 -16 -22 -4 -15 -10 -32 -13 -38 -3 -5 -6
-26 -7 -45 -1 -41 -13 -72 -24 -65 -5 3 -12 0 -16 -6 -4 -8 -3 -9 4 -5 7 4 12
2 12 -4 0 -6 4 -8 10 -5 6 4 7 -1 3 -11 -4 -11 -2 -15 4 -11 6 4 14 19 18 34
3 16 13 35 20 43 7 8 18 33 24 55 11 40 31 79 31 60 0 -5 -4 -17 -9 -25 -6 -8
-7 -18 -4 -23 3 -6 12 3 20 19 7 16 11 21 8 12 -7 -26 7 -21 29 9 16 22 17 25
3 20 -11 -4 -14 -2 -11 8 3 8 11 13 17 12 7 -1 12 7 12 18 0 11 6 21 13 21 25
3 27 5 13 13 -11 7 -9 14 14 35 20 19 24 26 12 26 -9 0 -21 -9 -27 -20 -13
-23 -35 -27 -26 -4 3 8 2 12 -4 9 -6 -3 -10 -13 -10 -21 0 -16 -48 -84 -59
-84 -4 0 -7 8 -7 19 0 10 7 18 15 17 7 -1 16 6 19 14 5 13 3 13 -13 0 -17 -14
-17 -13 -11 10 6 21 5 22 -4 7 -6 -9 -16 -15 -21 -11 -6 4 -6 11 2 20 14 17
36 18 41 3 2 -7 10 -4 18 7 14 16 13 17 -4 11 -14 -6 -17 -4 -12 8 7 19 6 19
-24 -4z m-120 -121 c0 -5 -7 -10 -16 -10 -8 0 -12 5 -9 10 3 6 10 10 16 10 5
0 9 -4 9 -10z m92 -42 c-3 -12 -12 -34 -20 -48 -14 -25 -14 -25 -8 9 5 29 22
61 31 61 2 0 1 -10 -3 -22z"/>
<path d="M12637 9545 c-4 -8 -2 -17 2 -20 5 -2 11 4 14 15 6 23 -8 27 -16 5z"/>
<path d="M12571 9532 c-5 -10 -6 -24 -2 -31 6 -9 10 -3 13 18 5 36 3 38 -11
13z"/>
<path d="M12513 9454 c-10 -21 -9 -22 12 -12 12 5 22 15 22 22 0 21 -22 14
-34 -10z"/>
<path d="M12530 9430 c-8 -5 -12 -12 -9 -15 4 -3 12 1 19 10 14 17 11 19 -10
5z"/>
<path d="M12545 9383 c-3 -16 -13 -41 -21 -57 -8 -16 -13 -31 -10 -33 11 -11
24 9 35 52 6 25 16 45 21 45 6 0 10 5 10 10 0 23 -30 8 -35 -17z"/>
<path d="M12666 9265 c-9 -26 -7 -32 5 -12 6 10 9 21 6 23 -2 3 -7 -2 -11 -11z"/>
<path d="M12591 9254 c0 -11 3 -14 6 -6 3 7 2 16 -1 19 -3 4 -6 -2 -5 -13z"/>
<path d="M12639 9203 c-22 -45 -22 -46 -10 -38 13 7 34 55 28 61 -2 2 -10 -8
-18 -23z"/>
<path d="M11921 7923 c-10 -26 -10 -27 4 -9 8 11 15 23 15 28 0 15 -7 8 -19
-19z"/>
<path d="M12758 7849 c-17 -9 -83 -21 -120 -20 -26 0 -22 -12 13 -38 17 -13
28 -25 25 -28 -3 -3 -12 0 -21 7 -13 11 -19 8 -38 -14 -12 -14 -28 -26 -35
-26 -7 0 -12 -4 -12 -8 0 -5 -11 -14 -25 -20 -20 -9 -23 -9 -18 3 3 10 -2 15
-16 15 -12 0 -21 -4 -21 -8 0 -5 -12 -14 -26 -20 -14 -7 -23 -8 -19 -2 3 5 2
10 -4 10 -5 0 -13 -4 -16 -10 -3 -5 -14 -10 -22 -10 -14 0 -13 4 5 20 12 12
22 23 22 25 0 11 -18 4 -37 -15 -20 -18 -22 -18 -28 -2 -6 15 -8 15 -18 1 -17
-22 -47 -32 -47 -14 0 20 -17 27 -24 9 -4 -10 -2 -13 7 -8 14 9 -10 -24 -33
-44 -11 -10 -11 -12 -1 -6 9 5 12 3 7 -5 -4 -6 -11 -9 -16 -6 -10 6 -50 -47
-50 -67 0 -7 -14 -40 -31 -72 -19 -38 -24 -54 -13 -45 15 12 16 11 9 -20 -5
-26 -4 -32 5 -26 8 5 11 4 6 -3 -4 -6 -13 -9 -21 -5 -17 6 -19 -5 -6 -25 6
-10 19 -2 51 30 57 56 68 98 13 46 -22 -21 -24 -21 -17 -3 9 26 33 45 56 45
12 0 15 -5 11 -17 -5 -12 4 -8 30 11 41 31 48 43 17 26 -11 -6 -20 -7 -20 -2
0 13 29 36 37 29 8 -8 73 20 87 37 17 21 72 36 85 23 8 -8 11 -5 11 11 0 15 6
22 19 22 10 0 24 6 30 14 6 7 29 16 51 19 22 3 47 12 56 21 9 10 19 14 22 11
4 -3 0 -10 -8 -15 -11 -7 -5 -9 20 -8 19 0 49 -6 65 -14 21 -11 49 -14 95 -10
59 4 64 3 51 -12 -12 -14 -12 -16 3 -10 9 3 16 10 16 14 0 18 52 -5 67 -30 14
-24 21 -27 50 -24 24 3 33 0 33 -10 0 -8 15 -17 35 -20 19 -4 34 -12 32 -18
-1 -6 4 -13 12 -16 8 -2 11 0 7 6 -4 6 2 8 14 5 27 -7 25 -11 -12 -22 l-33 -9
33 -1 c17 -1 32 -5 32 -11 0 -5 -6 -7 -14 -4 -9 3 -13 -2 -12 -18 1 -15 -5
-24 -19 -26 -11 -3 -23 -9 -26 -14 -4 -7 -9 -6 -13 1 -4 6 -2 11 3 11 6 0 11
3 11 8 0 4 -22 6 -49 5 -55 -1 -60 4 -68 72 -7 56 -13 57 -13 2 0 -54 -7 -77
-25 -77 -8 0 -26 -15 -40 -32 -15 -18 -25 -26 -22 -17 4 13 1 15 -13 12 -16
-4 -24 6 -44 51 -14 31 -28 73 -32 93 -12 64 -32 -15 -33 -131 -1 -27 -4 -46
-8 -43 -3 4 -16 -2 -28 -13 -28 -26 -52 -17 -60 21 -11 49 -24 42 -18 -11 5
-46 4 -50 -13 -43 -11 4 -24 12 -30 17 -15 15 -45 76 -55 111 -9 32 -7 1 7
-106 6 -41 4 -47 -14 -51 -12 -4 -26 0 -33 8 -6 8 -15 12 -19 9 -4 -3 -11 10
-14 28 -4 17 -13 46 -21 62 -14 30 -14 30 -8 -15 3 -25 12 -64 18 -88 9 -30
10 -44 2 -49 -6 -3 -13 -1 -15 5 -2 8 -12 7 -34 -4 -16 -8 -35 -13 -42 -11
-18 7 -46 70 -46 101 0 14 -5 26 -11 26 -7 0 -9 -9 -6 -22 3 -13 9 -47 13 -75
7 -53 6 -53 -21 -53 -15 0 -33 -8 -40 -17 -11 -15 -15 -15 -29 -4 -9 7 -16 20
-16 28 0 8 -4 12 -8 9 -5 -3 -7 -19 -4 -36 3 -25 1 -30 -15 -30 -11 0 -26 -11
-33 -25 -12 -22 -12 -30 3 -54 9 -16 17 -39 17 -50 0 -12 5 -21 11 -21 6 0 9
-7 6 -15 -4 -8 -1 -17 5 -21 7 -5 8 -2 3 6 -6 9 -4 11 4 6 7 -5 10 -11 7 -14
-3 -3 2 -14 11 -26 16 -18 14 -17 -14 3 -39 26 -44 14 -8 -17 14 -12 26 -22
28 -21 12 3 35 -15 30 -24 -3 -6 -1 -7 6 -3 6 4 21 4 32 1 17 -6 19 -9 8 -16
-8 -5 -17 -3 -21 4 -5 7 -7 1 -6 -15 1 -15 5 -26 8 -26 11 2 86 -15 100 -23
24 -14 -39 -11 -98 5 -29 7 -52 12 -52 10 0 -14 93 -47 132 -48 26 0 45 -3 42
-7 -5 -9 46 -43 66 -44 8 0 18 -15 24 -32 5 -18 13 -33 18 -33 5 0 6 -5 2 -12
-4 -7 -3 -8 4 -4 18 11 54 -28 46 -49 -6 -15 -3 -17 19 -11 16 4 27 2 27 -3 0
-6 7 -8 15 -5 8 4 15 1 15 -6 0 -7 7 -10 14 -7 11 4 13 1 9 -10 -5 -12 -2 -15
10 -10 10 4 14 2 11 -7 -3 -7 4 -21 16 -31 11 -10 20 -13 20 -7 0 7 13 12 29
12 21 0 32 -6 36 -20 3 -11 13 -20 21 -20 8 0 17 -7 20 -15 5 -11 16 -14 45
-11 34 4 39 2 39 -15 0 -22 25 -26 33 -5 9 23 47 26 65 5 18 -20 58 -26 64 -8
2 5 11 7 21 3 12 -4 16 -12 12 -23 -4 -10 -3 -13 3 -6 6 6 12 19 15 30 4 17 5
17 6 -4 l1 -23 21 23 c16 18 19 20 15 6 -5 -14 -2 -16 11 -9 19 11 53 4 53
-11 0 -6 -7 -18 -15 -27 -15 -16 -13 -17 27 -8 24 5 63 9 88 10 25 0 49 3 54
6 16 9 80 6 83 -4 2 -5 -14 -8 -34 -8 -49 2 -59 -3 -59 -25 0 -11 6 -17 13
-14 7 3 13 9 13 15 0 5 5 6 12 2 7 -4 8 -3 4 4 -4 7 -3 12 3 12 5 0 11 -5 13
-11 6 -18 89 11 98 35 8 19 9 19 9 2 1 -15 3 -16 16 -6 9 7 30 13 47 12 23 -1
28 2 18 8 -11 7 -9 11 12 19 26 10 86 60 74 62 -3 1 -9 2 -13 3 -5 1 -14 5
-20 9 -9 6 -11 3 -7 -10 5 -14 4 -15 -4 -4 -6 8 -8 20 -5 27 8 20 -8 39 -18
23 -6 -10 -9 -8 -9 7 0 12 -10 29 -22 38 -19 13 -19 15 -3 7 14 -6 31 -5 53 4
27 12 32 12 32 1 0 -8 7 -16 15 -20 10 -4 15 1 15 15 0 16 5 20 20 16 11 -3
18 -2 15 3 -3 4 2 10 10 14 8 3 17 1 20 -5 4 -5 11 -7 16 -3 5 3 15 1 22 -4
20 -15 56 -21 61 -8 3 7 9 5 16 -6 6 -10 23 -18 37 -18 25 0 25 1 9 25 -9 13
-15 34 -15 47 1 13 -2 31 -6 41 -5 13 -2 17 13 17 11 0 23 7 26 16 4 10 2 13
-7 9 -6 -4 2 5 18 20 17 14 23 23 15 20 -11 -4 -16 1 -17 15 -1 11 3 20 8 20
5 0 6 12 3 26 -5 19 -4 25 5 20 14 -9 15 18 1 44 -7 14 -6 17 8 16 9 0 16 4
15 9 -1 6 10 16 24 22 21 10 24 10 19 -3 -3 -7 0 -14 5 -14 7 0 9 11 7 25 -3
14 -1 25 3 25 5 0 9 -5 9 -11 0 -5 6 -7 13 -3 8 5 8 2 -2 -9 -8 -10 -9 -17 -3
-17 6 0 12 -10 14 -22 2 -13 10 -23 18 -24 9 0 10 1 3 3 -7 3 -13 11 -13 20 0
10 6 13 16 9 14 -5 15 -4 4 9 -10 12 -10 15 0 15 16 0 3 52 -16 63 -8 5 -12
12 -9 18 6 9 -25 69 -36 69 -3 0 -6 10 -5 23 1 12 -4 41 -10 64 -11 35 -10 42
2 47 8 3 14 13 14 22 0 10 5 14 15 10 13 -4 13 -2 5 14 -15 27 4 34 37 13 27
-17 28 -17 13 1 -14 18 -13 18 10 11 l25 -7 -25 27 -25 27 25 -7 c14 -4 28
-13 32 -19 4 -6 10 -7 14 -3 4 4 -6 21 -22 39 -27 29 -28 30 -6 25 12 -3 22
-2 22 3 0 8 -26 22 -45 25 -5 0 -9 6 -8 12 1 6 -7 19 -17 28 -21 19 -28 41
-10 30 5 -3 7 0 4 9 -3 8 -11 13 -18 10 -18 -7 -51 32 -35 42 12 7 62 -42 103
-101 13 -20 21 -24 26 -14 6 8 -13 38 -53 85 -34 40 -66 73 -71 73 -5 1 -3 -6
4 -14 11 -13 7 -14 -28 -10 -23 3 -53 10 -67 15 -15 6 -31 8 -36 5 -5 -4 -17
-1 -26 4 -13 8 -14 10 -3 11 10 0 11 3 4 10 -14 14 -67 24 -60 11 3 -5 -13 -3
-37 4 -23 7 -41 17 -40 23 1 5 -7 12 -17 15 -11 3 -20 0 -20 -6 0 -6 -10 -1
-23 11 -13 12 -33 22 -44 22 -12 0 -23 8 -26 20 -4 16 -13 20 -55 19 -51 -2
-143 16 -176 33 -16 8 -18 7 -12 -8 6 -17 6 -17 -12 -1 -10 9 -33 17 -50 17
-18 0 -32 5 -32 10 0 7 -13 8 -36 4 -26 -5 -35 -3 -30 4 8 14 -47 6 -79 -11
-11 -6 -51 -12 -90 -13 -38 -2 -81 -6 -95 -9 -19 -5 -22 -4 -10 4 18 13 7 14
-18 2 -25 -13 -86 -31 -103 -31 -8 1 4 9 26 20 22 11 33 19 26 20 -33 0 9 23
48 26 22 1 51 10 63 18 22 16 21 16 -25 10 -34 -5 -47 -3 -47 6 0 9 -10 10
-32 6 -18 -4 -41 -7 -50 -7 -9 0 -20 -9 -23 -19 -6 -19 -7 -19 -28 0 -13 13
-28 18 -40 14 -13 -4 -17 -2 -13 5 9 14 -3 14 -26 0z m176 -14 c-10 -8 -26
-14 -34 -14 -9 0 -4 6 10 14 33 19 49 19 24 0z m-124 -20 c0 -2 -13 -11 -30
-20 -16 -9 -30 -11 -30 -6 0 7 22 19 58 30 1 1 2 -1 2 -4z m100 -25 c0 -5 -8
-10 -17 -10 -15 0 -16 2 -3 10 19 12 20 12 20 0z m407 -16 c-3 -3 -12 -4 -19
-1 -8 3 -5 6 6 6 11 1 17 -2 13 -5z m-503 -20 c13 -5 14 -9 5 -20 -15 -19 -22
-18 -37 6 -10 16 -10 20 2 20 8 0 22 -3 30 -6z m686 -44 c6 -11 7 -20 3 -20
-5 0 -16 9 -26 20 -14 16 -14 20 -2 20 8 0 19 -9 25 -20z m-630 -5 c0 -9 -81
-25 -93 -18 -8 5 1 10 23 14 47 9 70 10 70 4z m-544 -111 c-11 -7 -22 -12 -25
-9 -2 3 4 12 15 19 10 8 21 12 24 9 3 -2 -4 -11 -14 -19z m1639 -14 c8 -13 -5
-13 -25 0 -13 8 -13 10 2 10 9 0 20 -4 23 -10z m131 -78 c-4 -3 -14 2 -24 12
-16 18 -16 18 6 6 13 -6 21 -14 18 -18z m-136 -188 c0 -12 -4 -12 -19 -2 -11
7 -18 15 -15 20 7 11 34 -3 34 -18z m125 -304 c-3 -5 -12 -10 -18 -10 -7 0 -6
4 3 10 19 12 23 12 15 0z m-865 -53 c0 18 50 -9 50 -28 0 -22 -29 -45 -67 -52
-31 -6 -33 -5 -33 23 0 17 4 30 9 30 5 0 13 10 16 21 6 17 9 19 16 8 5 -9 9
-10 9 -2z m-214 -55 c7 -4 17 -32 23 -63 11 -54 45 -118 89 -167 11 -13 23
-23 26 -23 26 3 24 -3 -3 -9 -19 -4 -63 -4 -98 1 -78 11 -199 60 -195 79 2 7
-5 21 -14 31 -14 15 -14 22 -3 46 13 30 90 93 114 93 7 0 17 5 20 10 7 12 25
13 41 2z m674 -98 c0 -8 6 -23 12 -34 11 -16 9 -22 -6 -33 -11 -8 -16 -19 -12
-25 4 -7 2 -12 -4 -12 -7 0 -10 -6 -7 -14 5 -13 -31 -26 -72 -26 -14 0 -14 2
-1 10 9 6 10 10 3 10 -7 0 3 32 24 80 29 63 39 77 50 69 7 -6 13 -18 13 -25z
m181 -68 c13 12 22 14 31 6 7 -6 17 -10 21 -9 5 1 16 -10 25 -26 20 -32 6 -64
-24 -59 -11 2 -32 6 -49 8 -86 14 -91 21 -53 70 19 24 23 26 26 10 4 -17 5
-17 23 0z m-171 -96 c13 -8 13 -10 -2 -10 -9 0 -20 5 -23 10 -8 13 5 13 25 0z
m260 -6 c0 -8 -5 -12 -10 -9 -6 4 -8 11 -5 16 9 14 15 11 15 -7z m-970 -8 c0
-3 -4 -8 -10 -11 -5 -3 -10 -1 -10 4 0 6 5 11 10 11 6 0 10 -2 10 -4z m213 -3
c-7 -2 -19 -2 -25 0 -7 3 -2 5 12 5 14 0 19 -2 13 -5z m87 -43 c0 -5 -5 -10
-11 -10 -5 0 -7 5 -4 10 3 6 8 10 11 10 2 0 4 -4 4 -10z m400 -80 c0 -5 -7
-10 -16 -10 -8 0 -12 5 -9 10 3 6 10 10 16 10 5 0 9 -4 9 -10z m-60 -60 c0 -5
-7 -7 -15 -4 -8 4 -15 8 -15 10 0 2 7 4 15 4 8 0 15 -4 15 -10z m-90 -34 c0
-3 -4 -8 -10 -11 -5 -3 -10 -1 -10 4 0 6 5 11 10 11 6 0 10 -2 10 -4z"/>
<path d="M13628 6683 c7 -3 16 -2 19 1 4 3 -2 6 -13 5 -11 0 -14 -3 -6 -6z"/>
<path d="M12604 7794 c4 -12 2 -15 -9 -10 -8 3 -15 1 -15 -4 0 -5 -10 -12 -22
-16 -22 -7 -22 -7 -3 -15 11 -4 25 -8 30 -8 12 -1 45 55 37 63 -12 12 -24 5
-18 -10z"/>
<path d="M13120 7800 c-8 -5 -10 -10 -5 -10 6 0 17 5 25 10 8 5 11 10 5 10 -5
0 -17 -5 -25 -10z"/>
<path d="M12570 7630 c-18 -12 -2 -12 25 0 13 6 15 9 5 9 -8 0 -22 -4 -30 -9z"/>
<path d="M14040 7615 c7 -9 15 -13 17 -11 7 7 -7 26 -19 26 -6 0 -6 -6 2 -15z"/>
<path d="M12095 7420 c-18 -8 -17 -9 8 -9 15 -1 27 4 27 9 0 12 -8 12 -35 0z"/>
<path d="M12160 7045 c0 -5 5 -17 10 -25 5 -8 10 -10 10 -5 0 6 -5 17 -10 25
-5 8 -10 11 -10 5z"/>
<path d="M14046 6912 c-2 -4 -1 -14 5 -22 7 -12 9 -10 9 8 0 23 -5 28 -14 14z"/>
<path d="M14150 6890 c0 -5 5 -10 11 -10 5 0 7 5 4 10 -3 6 -8 10 -11 10 -2 0
-4 -4 -4 -10z"/>
<path d="M14070 6871 c0 -6 -7 -7 -17 -4 -11 4 -14 3 -9 -6 4 -6 3 -18 -3 -25
-8 -9 -7 -13 4 -13 8 0 12 4 9 8 -3 5 7 11 21 15 14 3 24 11 22 17 -5 15 -27
21 -27 8z"/>
<path d="M14110 6861 c0 -10 30 -24 37 -17 3 2 -5 9 -16 16 -12 6 -21 7 -21 1z"/>
<path d="M13763 6567 c4 -10 7 -24 7 -30 0 -8 3 -8 11 0 9 9 7 16 -7 30 -17
17 -18 17 -11 0z"/>
<path d="M12031 5144 c0 -11 3 -14 6 -6 3 7 2 16 -1 19 -3 4 -6 -2 -5 -13z"/>
<path d="M12180 4846 c0 -8 7 -17 16 -20 13 -5 14 -4 6 7 -7 8 -9 17 -5 20 3
4 1 7 -5 7 -7 0 -12 -6 -12 -14z"/>
<path d="M12228 4596 c-3 -17 -1 -23 8 -19 7 2 12 13 11 24 -2 27 -14 24 -19
-5z"/>
<path d="M12116 4588 c3 -5 10 -6 15 -3 13 9 11 12 -6 12 -8 0 -12 -4 -9 -9z"/>
<path d="M12160 4550 c0 -5 7 -7 15 -4 8 4 15 8 15 10 0 2 -7 4 -15 4 -8 0
-15 -4 -15 -10z"/>
<path d="M12223 4531 c16 -10 28 -21 27 -25 0 -4 4 -14 9 -24 13 -22 14 -1 1
33 -5 14 -14 24 -19 20 -5 -3 -12 -1 -16 5 -3 5 -12 10 -18 10 -7 0 1 -9 16
-19z"/>
<path d="M12180 4460 c0 -5 5 -10 10 -10 6 0 10 5 10 10 0 6 -4 10 -10 10 -5
0 -10 -4 -10 -10z"/>
<path d="M13867 3546 c-3 -8 2 -16 14 -19 21 -6 22 -5 13 17 -8 20 -20 21 -27
2z"/>
<path d="M13525 2400 c-3 -5 -1 -10 4 -10 6 0 11 5 11 10 0 6 -2 10 -4 10 -3
0 -8 -4 -11 -10z"/>
<path d="M13900 1919 c0 -5 5 -7 10 -4 6 3 10 8 10 11 0 2 -4 4 -10 4 -5 0
-10 -5 -10 -11z"/>
<path d="M13934 1818 c-3 -4 4 -8 15 -8 12 0 21 4 21 8 0 5 -7 9 -15 9 -9 0
-18 -4 -21 -9z"/>
<path d="M12950 1709 c0 -5 5 -7 10 -4 6 3 10 8 10 11 0 2 -4 4 -10 4 -5 0
-10 -5 -10 -11z"/>
<path d="M13740 1690 c-9 -6 -10 -10 -3 -10 6 0 15 5 18 10 8 12 4 12 -15 0z"/>
<path d="M12930 1670 c0 -5 5 -10 11 -10 5 0 7 5 4 10 -3 6 -8 10 -11 10 -2 0
-4 -4 -4 -10z"/>
<path d="M13823 1660 c-13 -5 -23 -11 -23 -14 0 -7 40 6 46 15 6 10 6 10 -23
-1z"/>
<path d="M13880 1650 c0 -5 5 -10 10 -10 6 0 10 5 10 10 0 6 -4 10 -10 10 -5
0 -10 -4 -10 -10z"/>
<path d="M13841 1636 c-8 -10 -9 -16 -1 -21 5 -3 13 1 16 10 9 22 -1 29 -15
11z"/>
<path d="M12906 1595 c4 -8 8 -15 10 -15 2 0 4 7 4 15 0 8 -4 15 -10 15 -5 0
-7 -7 -4 -15z"/>
<path d="M13880 1550 c0 -5 5 -10 10 -10 6 0 10 5 10 10 0 6 -4 10 -10 10 -5
0 -10 -4 -10 -10z"/>
<path d="M13033 1540 c2 -8 0 -24 -6 -35 -10 -19 -9 -19 9 -5 10 8 20 14 21
15 1 0 -6 9 -14 20 -9 11 -13 13 -10 5z"/>
<path d="M13826 1463 c-6 -14 -5 -15 5 -6 7 7 10 15 7 18 -3 3 -9 -2 -12 -12z"/>
<path d="M13768 1443 c7 -3 16 -2 19 1 4 3 -2 6 -13 5 -11 0 -14 -3 -6 -6z"/>
<path d="M13783 645 c0 -6 24 -11 56 -12 142 -2 172 -4 167 -11 -2 -4 53 -8
122 -8 196 -2 224 -3 218 -12 -2 -4 53 -8 122 -8 210 -2 243 -4 238 -12 -2 -4
48 -8 112 -8 200 -2 233 -4 228 -12 -2 -4 53 -8 122 -8 210 -2 243 -4 238 -12
-2 -4 48 -8 112 -8 200 -2 233 -4 228 -12 -2 -4 53 -8 122 -8 210 -2 243 -4
238 -12 -2 -4 48 -8 112 -8 202 -2 233 -4 228 -12 -3 -5 6 -8 19 -8 14 1 24 6
23 11 -3 10 -16 13 -78 20 -19 2 -35 4 -35 5 0 1 -67 4 -150 6 -136 4 -210 9
-210 14 0 1 -63 4 -140 6 -126 3 -200 9 -200 14 0 1 -67 4 -150 6 -136 4 -210
9 -210 14 0 1 -63 4 -140 6 -128 4 -200 9 -200 14 0 1 -67 4 -150 6 -136 4
-210 9 -210 14 0 1 -63 4 -140 6 -128 4 -200 9 -200 14 0 1 -67 4 -150 6 -137
4 -210 9 -210 14 0 1 -30 3 -66 4 -41 1 -66 -2 -66 -9z"/>
<path d="M18715 6710 c-3 -5 -2 -10 4 -10 5 0 13 5 16 10 3 6 2 10 -4 10 -5 0
-13 -4 -16 -10z"/>
<path d="M18820 6705 c-8 -9 -8 -15 -2 -15 12 0 26 19 19 26 -2 2 -10 -2 -17
-11z"/>
<path d="M18690 6650 c0 -5 5 -10 10 -10 6 0 10 5 10 10 0 6 -4 10 -10 10 -5
0 -10 -4 -10 -10z"/>
<path d="M18770 6650 c0 -5 5 -10 11 -10 5 0 7 5 4 10 -3 6 -8 10 -11 10 -2 0
-4 -4 -4 -10z"/>
<path d="M2585 5930 c-8 -16 -15 -45 -15 -65 0 -28 4 -35 19 -35 24 0 41 21
51 63 14 64 -27 92 -55 37z"/>
<path d="M3166 5941 c-26 -28 -33 -99 -12 -107 23 -9 53 21 60 60 12 61 -14
85 -48 47z"/>
<path d="M3714 5935 c-9 -14 -17 -42 -18 -63 -1 -31 3 -37 22 -40 18 -3 26 4
38 33 30 72 -4 128 -42 70z"/>
<path d="M4355 5930 c-8 -16 -15 -45 -15 -65 0 -28 4 -35 19 -35 24 0 41 21
51 63 14 64 -27 92 -55 37z"/>
<path d="M5155 5936 c-10 -15 -15 -39 -13 -63 3 -33 6 -38 28 -38 21 0 27 7
39 44 10 31 11 49 4 60 -16 25 -40 24 -58 -3z"/>
<path d="M2351 5356 c-16 -19 -31 -84 -24 -102 7 -19 38 -18 54 2 19 24 18
108 -2 112 -9 1 -21 -4 -28 -12z"/>
<path d="M3942 5364 c-25 -17 -29 -44 -8 -44 8 0 24 8 36 18 19 15 20 20 8 30
-11 9 -19 8 -36 -4z"/>
<path d="M4605 5340 c-20 -39 -20 -89 1 -97 24 -9 48 9 58 45 20 71 -27 114
-59 52z"/>
<path d="M5455 5350 c-11 -12 -19 -36 -19 -63 -1 -36 2 -42 21 -45 31 -4 55
36 51 85 -4 44 -25 54 -53 23z"/>
<path d="M2331 4776 c-16 -19 -31 -84 -24 -102 7 -19 38 -18 54 2 19 24 18
108 -2 112 -9 1 -21 -4 -28 -12z"/>
<path d="M3001 4776 c-16 -19 -31 -84 -24 -102 7 -19 38 -18 54 2 19 24 18
108 -2 112 -9 1 -21 -4 -28 -12z"/>
<path d="M3673 4774 c-15 -15 -23 -29 -17 -31 19 -6 64 16 64 31 0 27 -20 27
-47 0z"/>
<path d="M4551 4776 c-16 -19 -31 -84 -24 -102 7 -19 38 -18 54 2 19 24 18
108 -2 112 -9 1 -21 -4 -28 -12z"/>
<path d="M5162 4784 c-25 -17 -29 -44 -8 -44 8 0 24 8 36 18 19 15 20 20 8 30
-11 9 -19 8 -36 -4z"/>
<path d="M5594 4765 c-9 -14 -17 -42 -18 -63 -1 -31 3 -37 22 -40 18 -3 26 4
38 33 30 72 -4 128 -42 70z"/>
<path d="M7001 4776 c-17 -20 -32 -78 -25 -98 8 -26 41 -22 59 6 34 51 2 136
-34 92z"/>
<path d="M4475 4180 c-8 -16 -15 -45 -15 -65 0 -28 4 -35 19 -35 24 0 41 21
51 63 14 64 -27 92 -55 37z"/>
<path d="M2131 4196 c-16 -19 -31 -84 -24 -102 7 -19 38 -18 54 2 19 24 18
108 -2 112 -9 1 -21 -4 -28 -12z"/>
<path d="M2625 4190 c-11 -12 -19 -36 -19 -63 -1 -36 2 -42 21 -45 31 -4 55
36 51 85 -4 44 -25 54 -53 23z"/>
<path d="M3424 4185 c-9 -14 -17 -42 -18 -63 -1 -31 3 -37 22 -40 18 -3 26 4
38 33 30 72 -4 128 -42 70z"/>
<path d="M4003 4194 c-15 -15 -23 -29 -17 -31 19 -6 64 16 64 31 0 27 -20 27
-47 0z"/>
<path d="M4731 4196 c-17 -20 -32 -78 -25 -98 8 -26 41 -22 59 6 34 51 2 136
-34 92z"/>
<path d="M6225 4180 c-8 -16 -15 -45 -15 -65 0 -28 4 -35 19 -35 24 0 41 21
51 63 14 64 -27 92 -55 37z"/>
<path d="M2260 3571 c-35 -10 -41 -51 -8 -51 29 0 48 17 48 42 0 19 -2 20 -40
9z"/>
<path d="M3680 3620 c-10 -18 -8 -20 30 -20 41 0 49 7 28 28 -18 18 -46 14
-58 -8z"/>
<path d="M3970 3571 c-29 -8 -34 -44 -7 -49 23 -5 47 15 47 39 0 20 -2 21 -40
10z"/>
<path d="M4606 3624 c-32 -31 -13 -104 27 -104 33 0 47 19 47 60 0 56 -39 79
-74 44z"/>
<path d="M4972 3628 c-17 -17 -15 -83 3 -98 21 -18 48 -8 63 23 24 50 -29 112
-66 75z"/>
<path d="M11810 1110 c0 -5 7 -7 15 -4 8 4 15 8 15 10 0 2 -7 4 -15 4 -8 0
-15 -4 -15 -10z"/>
</g>
</svg>
