<?xml version="1.0" standalone="no"?>
<!DOCTYPE svg PUBLIC "-//W3C//DTD SVG 20010904//EN"
 "http://www.w3.org/TR/2001/REC-SVG-20010904/DTD/svg10.dtd">
<svg version="1.0" xmlns="http://www.w3.org/2000/svg"
 width="1920.000000pt" height="1080.000000pt" viewBox="0 0 1920.000000 1080.000000"
 preserveAspectRatio="xMidYMid meet">

<g transform="translate(0.000000,1080.000000) scale(0.100000,-0.100000)"
fill="#000000" stroke="none">
<path d="M0 5400 l0 -5400 6615 0 6615 0 0 518 c0 284 3 527 6 539 l6 23 -693
2 -694 3 -17 90 c-35 186 -68 460 -68 575 0 97 29 240 59 297 12 21 40 61 63
90 199 241 178 205 308 523 132 321 198 521 210 643 6 53 14 141 20 195 13
134 67 286 180 502 10 19 41 89 69 155 28 66 60 131 71 145 l19 25 58 -56 c94
-92 253 -228 286 -244 38 -19 50 -9 20 15 -31 25 -29 40 6 40 16 0 38 3 48 7
16 6 16 5 4 -10 -12 -15 -9 -21 12 -18 4 0 7 -6 7 -15 0 -8 -4 -12 -10 -9 -5
3 -10 2 -10 -3 0 -6 8 -13 17 -16 13 -5 14 -9 5 -15 -18 -11 -12 -27 20 -63
15 -16 42 -54 59 -84 17 -31 38 -58 45 -61 8 -3 14 -10 14 -17 0 -7 15 -28 34
-48 19 -20 31 -40 28 -44 -4 -4 -2 -5 3 -1 6 3 30 -10 54 -28 23 -19 56 -40
72 -47 16 -7 29 -16 29 -19 0 -4 39 -6 88 -5 85 1 90 3 192 55 58 29 117 62
132 73 16 11 32 17 37 14 12 -8 152 78 249 153 96 74 65 79 272 -44 93 -55
156 -101 202 -147 38 -37 68 -72 68 -79 0 -6 -46 -57 -103 -114 -113 -112
-155 -169 -133 -182 7 -5 15 -15 18 -23 3 -10 30 11 86 66 44 45 84 78 89 73
4 -4 15 -4 23 1 12 8 11 10 -5 10 -17 1 -17 2 -5 10 9 5 28 7 44 6 16 -2 30 2
33 10 6 17 33 19 33 3 0 -7 11 -9 30 -6 34 7 37 -1 16 -41 -7 -15 -20 -40 -27
-57 -8 -16 -18 -33 -23 -36 -5 -4 -8 -20 -8 -35 0 -16 -6 -39 -14 -51 -8 -12
-14 -34 -14 -48 0 -22 -17 -49 -60 -95 -9 -9 -22 -31 -29 -50 -8 -19 -19 -39
-26 -45 -13 -11 -29 -46 -27 -58 1 -4 -11 -15 -26 -25 -16 -9 -27 -23 -25 -29
3 -7 0 -13 -6 -13 -6 0 -14 -18 -17 -40 -4 -25 -14 -45 -26 -51 -13 -7 -17
-16 -13 -30 5 -14 3 -17 -9 -13 -9 3 -16 1 -16 -5 0 -6 4 -11 10 -11 5 0 8
-14 6 -30 -2 -17 0 -33 5 -36 14 -8 11 -52 -3 -56 -10 -4 -10 -10 -1 -31 8
-18 9 -27 2 -27 -6 0 -8 -9 -4 -20 3 -11 2 -20 -3 -20 -6 0 -15 -12 -21 -27
-9 -25 -9 -23 -4 14 19 139 -87 263 -224 263 -73 0 -127 -24 -175 -78 -82 -90
-77 -215 11 -303 91 -92 229 -91 327 3 l31 29 12 -29 c8 -18 9 -37 3 -53 -12
-30 -15 -148 -4 -132 6 10 12 10 28 -3 14 -11 15 -14 3 -11 -19 6 -19 -13 -1
-56 14 -33 15 -54 4 -61 -10 -6 -3 -66 7 -66 3 0 6 -41 6 -90 0 -73 3 -90 15
-91 10 0 11 -2 2 -6 -6 -2 -9 -10 -5 -16 9 -14 11 -517 2 -517 -4 0 -12 26
-19 59 -16 78 -26 92 -46 66 -8 -11 -18 -31 -21 -45 -3 -14 -11 -28 -17 -32
-7 -4 -12 -53 -14 -125 -2 -108 -1 -116 12 -92 20 34 52 54 100 62 48 8 90
-12 116 -56 l20 -32 1 260 c1 143 4 330 8 415 l6 155 38 -1 c20 -1 53 -2 72
-3 19 0 34 -4 34 -9 -1 -4 -1 -144 0 -312 l1 -305 25 59 c28 68 53 98 114 134
60 35 169 43 232 15 63 -28 106 -68 137 -127 l27 -51 5 -340 c3 -187 7 -333 8
-323 3 24 60 68 88 68 27 0 84 -26 84 -38 0 -5 7 -17 15 -28 15 -18 15 -18 14
6 -1 14 -1 278 -1 587 2 496 4 563 18 577 8 9 12 16 8 16 -5 0 -3 5 4 12 13
13 45 21 38 9 -3 -4 11 -7 29 -7 18 0 32 3 29 7 -3 6 26 5 34 -1 1 -2 17 -3
35 -4 26 -1 35 -7 49 -36 15 -30 18 -66 19 -245 0 -172 3 -205 12 -180 22 56
38 75 79 96 72 37 150 16 202 -55 19 -25 21 -45 26 -249 3 -139 8 -212 13
-196 5 15 24 41 42 59 63 61 176 47 216 -25 14 -25 18 -76 23 -320 3 -159 6
-313 6 -342 l0 -51 29 29 c38 37 74 38 111 0 l29 -28 3 146 c3 80 5 312 6 515
2 330 4 373 20 399 47 81 156 104 231 50 14 -11 36 -39 48 -64 l22 -44 2 230
c1 127 1 232 1 235 0 3 19 6 43 6 24 0 42 -3 40 -6 -2 -3 12 -6 30 -6 18 0 32
3 29 7 -3 6 26 5 34 -1 3 -3 54 -7 108 -9 25 0 43 -5 40 -9 -3 -5 1 -9 9 -9 8
0 12 4 10 8 -3 4 2 6 12 5 23 -4 30 -29 27 -103 -2 -48 1 -66 12 -70 18 -7 18
-39 0 -46 -12 -5 -14 -49 -15 -244 l-1 -238 20 37 c27 50 62 71 116 71 37 0
50 -5 79 -33 20 -20 36 -45 38 -64 2 -17 5 4 5 46 1 42 -2 80 -8 83 -5 3 -10
14 -9 23 0 14 2 13 9 -3 7 -16 9 -14 9 14 1 19 -2 31 -6 28 -3 -4 -12 -2 -19
4 -18 15 -29 -8 -12 -28 11 -14 11 -16 -1 -12 -8 3 -18 15 -22 28 -6 14 -5 20
1 16 6 -3 10 1 10 10 0 9 4 14 9 11 5 -3 11 1 15 9 4 10 -1 14 -17 12 -14 -1
-22 4 -23 13 -2 25 -16 50 -25 44 -5 -3 -9 2 -9 10 0 9 -4 16 -10 16 -5 0 -10
5 -10 11 0 7 10 5 26 -6 25 -16 25 -16 15 4 -6 11 -16 23 -22 27 -8 5 -8 8 0
14 14 8 -28 56 -55 62 -17 4 -16 6 5 15 22 9 23 10 5 17 -12 5 -23 1 -31 -10
-7 -10 -13 -13 -13 -8 0 6 -7 11 -15 11 -19 0 -20 -23 -1 -30 9 -4 12 -14 9
-27 -5 -20 -7 -19 -20 11 -15 37 -11 59 12 59 20 0 19 24 -1 40 -8 8 -20 22
-26 33 -9 17 -8 19 6 14 9 -4 16 -2 16 3 0 5 -8 10 -17 12 -15 3 -14 6 6 17
13 7 21 9 17 3 -3 -5 2 -16 11 -23 14 -12 16 -12 8 0 -6 11 -4 13 8 8 11 -4
17 -1 17 9 0 8 -4 13 -9 10 -5 -3 -14 8 -21 24 -16 39 -29 47 -27 16 2 -29
-15 -30 -21 -1 -5 31 -10 162 -5 143 2 -10 9 -18 13 -18 12 0 1 82 -12 95 -8
7 -9 6 -4 -3 4 -6 2 -12 -4 -12 -7 0 -9 7 -6 16 3 9 6 18 6 20 0 3 4 2 10 -1
11 -7 1 27 -11 35 -4 3 -4 21 1 40 4 19 8 31 9 25 1 -5 6 -3 11 5 13 20 12 31
-2 27 -7 -1 -13 12 -14 33 -2 19 -6 59 -9 87 -4 29 -5 55 -3 57 2 2 -7 15 -20
28 -12 14 -19 28 -15 31 3 4 0 7 -8 7 -30 1 -91 71 -71 83 4 2 1 2 -6 1 -7 -2
-18 5 -24 16 -14 21 -38 27 -38 9 0 -5 -5 -7 -11 -4 -6 4 -10 1 -8 -6 3 -29
-2 -38 -21 -34 -29 6 -41 15 -34 26 3 5 10 7 15 4 5 -4 9 0 9 9 0 8 -4 16 -9
18 -4 2 -12 14 -16 27 -6 20 -4 23 9 18 22 -9 20 6 -2 20 -12 7 -24 8 -33 2
-8 -5 -9 -9 -4 -9 6 0 3 -4 -5 -9 -20 -13 -32 -3 -25 20 5 13 2 19 -10 19 -9
0 -13 -4 -10 -10 8 -13 -25 0 -47 19 -26 22 -23 28 15 28 17 0 26 -2 19 -4 -6
-3 -12 -12 -12 -20 0 -10 6 -13 16 -9 9 3 18 6 20 6 2 0 4 9 4 20 0 11 4 20
10 20 5 0 7 -7 4 -15 -4 -10 0 -15 15 -15 27 0 27 15 0 34 -13 9 -19 21 -16
30 3 8 2 18 -3 21 -4 3 -10 0 -12 -7 -3 -8 -11 -3 -21 12 -13 21 -14 31 -4 62
7 21 15 38 19 38 5 0 8 4 8 9 0 4 -17 7 -39 5 -29 -2 -43 2 -56 16 -10 11 -13
20 -8 20 17 0 22 38 6 51 -12 10 -13 8 -9 -14 3 -15 1 -27 -4 -27 -5 0 -8 12
-7 27 2 19 9 29 27 34 24 7 24 10 -2 13 -7 1 -13 13 -13 28 0 14 -4 30 -9 35
-6 5 -6 2 -1 -7 7 -12 6 -13 -6 -2 -12 11 -12 14 1 22 13 8 11 12 -8 25 -12 9
-20 21 -17 26 4 5 14 2 23 -7 21 -21 28 -3 11 28 -11 21 -11 22 5 9 15 -12 19
-11 37 8 11 12 17 26 14 31 -3 6 3 10 14 10 11 0 23 5 26 10 9 14 -5 12 -37
-4 -20 -10 -29 -11 -38 -2 -9 8 -9 5 0 -14 l13 -25 -27 25 c-15 13 -23 26 -17
28 5 2 7 10 4 19 -4 11 -2 14 5 9 7 -4 12 -3 12 3 0 5 -4 13 -10 16 -5 3 -10
1 -10 -5 0 -6 -5 -8 -12 -4 -7 4 -8 3 -4 -5 4 -6 0 -14 -8 -17 -9 -3 -16 -10
-16 -16 0 -5 5 -6 10 -3 6 3 10 2 10 -3 0 -6 -8 -13 -17 -16 -15 -6 -15 -8 -3
-16 11 -7 8 -10 -12 -10 -23 0 -27 4 -24 23 3 12 5 25 5 28 1 4 10 9 21 12 21
5 28 27 9 27 -5 0 -7 6 -3 13 4 6 4 9 0 5 -5 -4 -19 -3 -32 2 -15 6 -26 6 -30
-1 -3 -6 -17 -9 -30 -6 -16 3 -24 0 -24 -9 0 -18 -14 -18 -30 1 -13 16 -13 16
42 19 32 2 28 14 -6 18 -20 2 -36 0 -36 -4 0 -5 -6 -8 -12 -7 -28 3 -39 -1
-32 -13 6 -10 4 -10 -8 0 -10 8 -14 21 -10 35 3 12 1 19 -3 15 -4 -4 -16 -3
-26 3 -23 12 -24 2 -2 -23 9 -10 14 -20 11 -23 -9 -9 -58 20 -53 33 2 6 -3 12
-11 12 -11 0 -13 6 -9 21 6 18 4 20 -11 11 -20 -11 -69 8 -77 30 -3 10 -12 9
-35 -5 -28 -16 -31 -16 -26 -2 4 9 1 27 -6 40 -10 19 -19 23 -37 19 -14 -4
-23 -2 -23 6 0 6 4 9 9 6 5 -3 11 1 15 9 3 8 0 15 -7 15 -7 0 -22 3 -34 6 -17
5 -23 2 -23 -10 0 -9 -4 -16 -10 -16 -5 0 -10 7 -10 15 0 8 -4 15 -10 15 -5 0
-10 -7 -10 -16 0 -22 -58 -8 -81 20 -10 11 -21 18 -25 13 -4 -4 -2 -13 4 -19
17 -17 15 -33 -2 -19 -11 9 -15 9 -18 -1 -4 -11 -8 -10 -21 0 -9 8 -25 11 -36
7 -17 -5 -20 -3 -15 12 4 12 3 14 -3 5 -13 -17 -88 -9 -112 12 -9 9 -21 13
-24 10 -8 -8 -87 72 -87 88 0 6 -3 8 -7 5 -9 -9 -53 33 -53 50 0 7 -11 13 -25
13 -14 0 -28 7 -31 15 -4 8 -10 13 -14 10 -5 -3 -26 4 -46 16 -41 23 -57 27
-121 33 -23 3 -50 9 -60 14 -10 6 -22 11 -28 11 -29 5 -62 14 -81 23 -22 10
-29 38 -9 38 7 0 19 8 26 17 13 15 12 16 -8 11 -13 -4 -26 -2 -29 3 -3 5 7 9
23 9 38 0 73 10 73 21 0 14 -28 11 -32 -3 -6 -16 -94 17 -102 39 -5 13 -9 13
-22 2 -11 -9 -17 -10 -22 -1 -4 6 -20 9 -35 8 -15 -2 -30 0 -32 4 -3 4 20 11
50 15 30 3 58 11 61 17 4 7 2 8 -4 4 -7 -4 -12 -3 -12 2 0 10 9 12 105 32 28
6 64 13 80 17 17 4 45 7 63 7 17 1 32 4 32 8 0 6 52 22 80 23 38 2 138 17 165
25 17 5 66 11 110 13 44 3 91 9 105 15 14 5 28 8 33 5 4 -2 14 3 23 12 9 9 23
14 30 11 8 -3 14 -2 14 3 0 5 12 12 28 16 25 7 25 8 7 15 -18 8 -18 9 5 9 14
1 41 14 60 31 19 16 41 29 48 30 7 0 11 3 8 8 -2 4 21 9 52 10 30 1 62 8 71
15 12 9 13 9 7 0 -9 -16 25 -18 41 -2 8 8 17 8 33 -1 12 -6 43 -9 71 -7 27 3
51 1 54 -3 2 -4 30 -10 62 -14 126 -15 253 -67 378 -155 190 -134 397 -347
535 -552 88 -129 204 -405 280 -665 109 -373 234 -938 260 -1174 l11 -105 44
-38 c24 -20 53 -56 64 -80 20 -42 21 -58 21 -445 0 -372 5 -446 25 -381 8 25
61 59 93 59 36 0 80 -27 97 -60 9 -17 18 -30 20 -30 3 0 5 261 5 580 0 320 2
584 4 589 3 4 22 6 43 5 21 -1 57 -2 81 -3 24 -1 41 -5 38 -9 -3 -5 1 -9 9 -9
8 0 12 3 10 6 -2 4 16 7 40 7 24 0 42 -3 40 -6 -2 -3 12 -6 30 -6 l33 0 2 162
c1 197 -8 241 -60 288 -51 46 -110 56 -173 28 -24 -11 -48 -25 -52 -31 -5 -9
-11 -9 -19 -1 -16 12 -16 13 -21 -234 -3 -104 -9 -194 -14 -199 -7 -7 -10 -3
-9 9 1 10 -2 30 -6 43 -6 16 -5 21 3 17 16 -10 14 3 -3 20 -8 7 -12 24 -9 36
3 16 2 19 -5 10 -10 -15 -30 77 -41 190 -3 37 -12 73 -19 80 -7 7 -12 41 -13
82 -1 51 -3 62 -8 41 -7 -29 -8 -28 -24 25 -9 31 -24 84 -32 118 -9 35 -23 78
-31 97 -8 19 -19 58 -25 86 -6 28 -17 63 -25 77 -8 15 -14 33 -14 40 0 7 -13
47 -29 90 -16 42 -39 109 -51 147 -12 39 -47 122 -78 185 -31 63 -55 121 -54
127 2 7 -2 13 -8 13 -5 0 -10 7 -10 16 0 9 -5 12 -12 8 -7 -4 -8 -3 -4 5 4 6
1 23 -8 36 -9 13 -16 39 -16 57 1 31 1 32 15 14 8 -11 15 -25 15 -32 0 -7 12
-26 27 -41 l27 -28 -27 47 c-29 50 -33 63 -16 53 11 -7 -45 99 -66 125 -7 8
-16 25 -19 38 -4 12 -11 22 -15 22 -5 0 -20 27 -35 60 -15 32 -31 62 -36 65
-4 3 -11 19 -15 35 -4 16 -11 32 -16 35 -5 4 -6 -2 -2 -12 5 -14 3 -16 -7 -6
-7 6 -12 24 -13 40 0 15 -10 43 -22 62 -13 18 -21 40 -18 49 4 9 2 13 -4 9 -6
-4 -10 5 -11 21 0 24 -68 191 -138 339 -13 28 -24 56 -24 62 0 5 -6 16 -13 23
-7 7 -37 58 -66 113 -55 104 -90 163 -128 218 -12 18 -39 59 -60 91 -21 33
-51 75 -68 95 -19 23 -21 29 -7 17 37 -32 25 -9 -37 69 -33 41 -62 84 -66 95
-4 14 -12 19 -21 16 -8 -3 -12 -2 -9 3 3 6 -2 14 -12 19 -18 11 -25 30 -27 79
0 17 -4 29 -8 27 -10 -6 -47 81 -54 128 -4 21 -11 38 -16 38 -26 0 -110 288
-107 370 0 25 0 47 -1 50 -1 3 -3 16 -6 30 -2 14 -6 35 -9 48 -11 44 8 28 69
-62 27 -40 36 -29 11 14 -26 46 -16 56 18 19 17 -20 41 -40 51 -43 20 -7 20
-7 0 16 -10 12 -26 29 -35 38 -9 8 -42 50 -74 93 -32 43 -71 90 -85 105 -15
15 -54 63 -87 107 -33 44 -68 86 -77 94 -34 29 -119 153 -195 290 -45 79 -81
146 -81 150 0 3 -11 22 -24 42 -40 58 -88 151 -101 194 -7 22 -18 40 -25 40
-6 0 -23 20 -36 45 -13 25 -23 41 -24 35 -1 -33 -110 239 -110 276 0 10 -16
32 -35 50 -19 19 -35 39 -35 47 0 7 -4 10 -10 7 -8 -5 -15 10 -8 18 2 1 -10
23 -25 49 -15 26 -27 51 -27 57 0 5 -11 22 -24 36 -13 14 -27 37 -31 52 -3 14
-35 69 -71 123 -35 54 -64 103 -64 111 0 7 19 -5 42 -26 23 -22 36 -32 29 -23
-7 9 -10 22 -7 27 8 12 -51 81 -69 81 -7 0 -20 12 -30 26 -26 40 -68 85 -73
79 -10 -10 -51 37 -45 51 3 8 2 14 -3 12 -5 -2 -9 0 -9 4 0 11 -117 128 -140
140 -19 10 -19 10 -6 -8 8 -10 -8 3 -37 30 -28 27 -49 53 -46 58 3 4 -4 8 -15
8 -11 0 -25 8 -30 18 -5 10 -61 62 -123 117 -62 54 -127 113 -145 132 -18 18
-38 33 -46 33 -7 0 -24 12 -38 26 -27 29 -103 80 -168 113 -24 12 -68 42 -98
67 -30 24 -58 44 -62 44 -4 0 -15 13 -24 30 -10 16 -46 49 -81 72 -271 182
-305 202 -401 228 -44 12 -89 27 -100 33 -11 6 -78 11 -150 12 -123 2 -329 27
-485 60 -36 8 -115 17 -175 21 -143 9 -243 -12 -364 -74 -92 -47 -152 -66
-245 -77 -33 -4 -53 -11 -46 -15 8 -5 -7 -12 -36 -18 -27 -6 -107 -27 -178
-46 -143 -39 -195 -66 -320 -166 -44 -37 -101 -80 -126 -97 -54 -37 -96 -81
-140 -148 -106 -159 -127 -193 -139 -223 -15 -37 -37 -52 -76 -52 -43 0 -122
-83 -162 -169 -18 -40 -31 -76 -28 -79 3 -3 5 0 5 6 0 28 20 9 21 -20 1 -18 5
0 9 40 8 88 30 123 30 47 0 -71 -31 -176 -60 -205 -3 -3 -6 -43 -7 -90 -2 -62
-6 -87 -17 -95 -9 -5 -34 -21 -57 -35 -39 -24 -69 -64 -69 -92 0 -7 7 -3 15 9
8 11 24 23 36 26 17 5 20 2 16 -14 -4 -14 2 -21 26 -29 29 -8 27 -9 -20 -7
-46 2 -50 0 -42 -15 7 -13 6 -16 -4 -12 -26 10 -26 -33 -1 -57 13 -12 24 -30
24 -40 0 -9 7 -19 15 -23 18 -6 9 -36 -11 -36 -8 0 -14 -5 -14 -11 0 -6 7 -9
15 -6 17 7 81 -68 65 -78 -5 -3 -10 -11 -10 -16 0 -6 5 -7 11 -3 15 9 29 -14
29 -46 0 -15 5 -31 11 -37 11 -11 -3 -50 -21 -63 -4 -3 -1 -45 6 -95 26 -166
30 -170 45 -39 6 53 26 137 49 208 22 65 40 125 40 133 0 8 4 11 10 8 6 -3 10
1 10 10 0 9 5 13 10 10 6 -3 10 3 10 14 0 12 3 21 8 21 11 0 43 61 36 71 -3 5
0 9 5 9 6 0 11 -10 11 -22 1 -21 2 -21 16 5 11 21 21 27 35 24 10 -3 16 -1 13
4 -3 5 2 12 10 15 9 3 13 10 10 16 -3 5 -13 4 -22 -4 -16 -12 -16 -11 0 7 16
19 18 24 18 43 0 4 5 0 11 -8 9 -13 10 -13 7 0 -3 24 12 61 25 59 34 -4 49 2
43 17 -3 8 -2 12 4 9 6 -3 23 3 39 15 17 12 32 16 36 11 7 -12 35 -3 35 11 0
5 -4 7 -8 4 -5 -3 -9 1 -9 9 0 11 4 12 13 4 8 -7 16 -5 26 5 10 9 20 11 29 5
11 -7 10 -9 -4 -9 -11 0 -15 -4 -11 -12 5 -7 3 -8 -6 -3 -9 5 -11 4 -6 -4 4
-7 -2 -15 -16 -20 -13 -6 -17 -10 -10 -10 22 -1 3 -21 -21 -22 -12 0 -16 -3
-9 -6 17 -7 74 20 60 28 -6 4 3 14 23 25 38 20 62 26 54 14 -9 -15 21 -18 40
-3 19 14 19 15 -5 9 -21 -6 -22 -5 -7 4 9 6 21 9 26 6 4 -3 24 -1 45 5 33 9
35 12 21 25 -8 9 -15 17 -15 19 0 5 66 -11 79 -19 6 -4 11 -2 11 3 0 6 -7 11
-16 11 -8 0 -12 5 -9 10 5 8 11 8 19 1 7 -6 15 -8 19 -5 3 3 3 -5 0 -18 -4
-18 -3 -20 6 -8 6 8 11 10 11 4 0 -16 -25 -35 -35 -26 -5 4 -5 1 -1 -5 8 -15
-10 -18 -19 -3 -3 6 -12 10 -18 10 -7 0 -3 -7 8 -16 11 -8 19 -24 17 -34 -5
-30 13 -24 25 8 11 26 11 26 8 2 -2 -14 -4 -31 -4 -38 -1 -6 -7 -11 -13 -10
-7 2 -12 -4 -10 -12 1 -8 -7 -4 -18 10 -12 15 -18 18 -14 8 3 -10 1 -18 -5
-18 -6 0 -8 -7 -5 -15 4 -8 10 -12 15 -9 5 3 9 0 9 -5 0 -6 -7 -11 -15 -11 -8
0 -15 -5 -15 -11 0 -5 4 -8 8 -5 4 2 14 1 22 -4 11 -7 7 -10 -13 -15 -15 -4
-27 -11 -27 -17 0 -5 5 -6 10 -3 6 3 10 2 10 -4 0 -5 3 -18 6 -28 5 -14 4 -15
-4 -4 -9 12 -12 10 -17 -12 -4 -15 -10 -25 -14 -22 -4 2 -8 -2 -8 -10 0 -8 4
-12 8 -9 18 11 -3 -42 -22 -57 -15 -11 -20 -23 -17 -37 4 -14 -2 -28 -20 -44
-14 -13 -22 -16 -17 -8 4 8 -2 5 -14 -8 -12 -12 -20 -28 -18 -35 4 -9 6 -9 6
1 1 6 6 12 11 12 13 0 -4 -35 -34 -70 -20 -23 -20 -23 -1 -11 11 8 5 0 -14
-18 -18 -17 -29 -31 -23 -31 6 0 9 -7 6 -15 -4 -8 -10 -13 -14 -10 -5 3 -12 0
-16 -6 -4 -7 -3 -9 3 -6 6 4 13 1 16 -7 3 -8 -2 -16 -15 -19 -12 -4 -17 -10
-13 -17 5 -7 -4 -22 -21 -36 -23 -19 -25 -23 -11 -24 10 0 15 4 12 10 -4 6 1
7 11 3 14 -5 14 -7 -5 -18 -12 -6 -19 -13 -16 -16 3 -3 -5 -14 -17 -25 l-23
-19 18 21 c16 19 16 22 2 34 -13 11 -14 10 -10 -3 4 -8 1 -18 -5 -22 -7 -4 -9
2 -5 22 3 15 7 37 9 49 2 11 6 25 9 31 3 5 0 10 -8 10 -8 0 -16 -4 -16 -9 -1
-4 -2 -12 -3 -17 0 -5 -5 -13 -10 -18 -5 -4 -6 -3 -3 3 4 8 -3 11 -22 10 -24
-1 -28 -4 -25 -23 3 -16 -1 -23 -18 -26 -21 -3 -22 -4 -4 -12 13 -6 23 -3 31
9 12 16 13 15 19 -1 6 -14 9 -15 15 -4 5 8 11 9 15 3 3 -5 0 -15 -8 -21 -11
-9 -15 -9 -19 1 -3 10 -7 10 -17 1 -9 -8 -19 -9 -32 -2 -10 5 -19 7 -19 4 -1
-3 -2 -9 -3 -14 0 -5 -13 -21 -28 -36 -30 -30 -34 -40 -18 -50 6 -3 10 1 10 9
0 9 5 16 10 16 7 0 7 -6 0 -20 -6 -11 -20 -20 -31 -20 -16 0 -18 5 -13 28 6
26 6 26 -9 7 -19 -23 -22 -45 -7 -45 6 0 10 -5 10 -11 0 -5 -4 -8 -9 -5 -4 3
-6 -6 -3 -20 3 -15 -2 -32 -12 -43 -16 -18 -16 -19 1 -17 13 1 19 -7 21 -26 2
-16 7 -28 12 -28 5 0 7 -6 4 -14 -3 -8 0 -17 5 -21 6 -3 8 -11 5 -17 -4 -7 -2
-8 4 -4 7 4 12 2 12 -4 0 -6 5 -8 11 -4 8 5 6 10 -5 16 -20 11 -21 24 -2 31 8
3 13 -1 12 -11 -1 -14 7 -17 41 -14 24 1 45 -3 49 -10 5 -7 3 -8 -6 -3 -7 4
-16 2 -21 -6 -7 -12 -9 -12 -9 0 0 11 -4 10 -16 -5 -13 -16 -15 -16 -10 -1 3
9 2 17 -3 17 -5 0 -11 -10 -13 -22 -4 -24 2 -26 72 -29 23 -1 24 -2 6 -15 -10
-7 -23 -11 -29 -7 -6 4 -7 1 -3 -6 5 -7 14 -10 22 -7 11 4 11 0 -2 -19 -9 -13
-12 -30 -8 -36 4 -8 3 -9 -4 -5 -8 5 -12 -4 -13 -26 -1 -18 -3 -44 -5 -58 -2
-14 -4 -37 -5 -52 0 -29 -14 -38 -22 -15 -2 6 -4 -1 -4 -17 0 -15 -5 -31 -10
-35 -5 -3 -8 -27 -7 -54 1 -26 -2 -50 -7 -53 -5 -3 -9 -15 -9 -28 0 -17 -12
-30 -48 -49 -50 -27 -52 -30 -53 -82 -2 -57 -1 -60 23 -39 32 26 -10 -16 -95
-96 -67 -63 -68 -64 -83 -42 -18 26 -65 52 -93 52 -11 0 -31 -15 -44 -32 -31
-42 -75 -176 -83 -253 -6 -54 -8 -57 -15 -30 -5 17 -11 64 -14 105 -11 129
-39 182 -116 214 -45 19 -69 5 -75 -42 -2 -17 -22 -73 -44 -125 -22 -52 -40
-102 -40 -112 0 -10 -5 -35 -11 -55 -11 -36 -13 -37 -39 -29 -34 12 -80 -4
-80 -28 0 -10 -15 -41 -34 -68 -18 -28 -44 -75 -58 -105 -77 -166 -98 -218
-98 -238 0 -12 -9 -41 -19 -65 -20 -41 -45 -156 -37 -164 2 -3 -4 -35 -14 -71
-10 -37 -21 -80 -24 -96 -6 -23 -9 -27 -17 -15 -6 9 -9 10 -9 2 0 -7 -6 -10
-14 -7 -9 3 -19 -4 -27 -18 -6 -13 -18 -27 -25 -31 -8 -4 -14 -15 -14 -23 0
-8 -7 -29 -16 -46 -22 -42 -26 -86 -10 -111 10 -15 14 -57 15 -127 1 -97 6
-184 16 -285 3 -22 8 -71 11 -109 l7 -69 39 44 c30 34 38 39 33 20 -27 -95
-97 -126 -183 -82 -57 30 -201 220 -280 370 -24 47 -62 119 -84 159 -21 40
-51 108 -65 150 -31 93 -51 134 -115 234 -56 87 -95 113 -153 102 l-35 -6 0
2386 0 2386 4800 0 4800 0 0 540 0 540 -9600 0 -9600 0 0 -5400z m13070 3865
c0 -7 -42 -23 -78 -30 -24 -5 -24 -4 8 14 33 19 70 27 70 16z m143 -12 c-7 -2
-21 -2 -30 0 -10 3 -4 5 12 5 17 0 24 -2 18 -5z m-60 -10 c-7 -2 -21 -2 -30 0
-10 3 -4 5 12 5 17 0 24 -2 18 -5z m54 -9 c-3 -3 -12 -4 -19 -1 -8 3 -5 6 6 6
11 1 17 -2 13 -5z m-282 -24 c-3 -5 -11 -10 -16 -10 -6 0 -7 5 -4 10 3 6 11
10 16 10 6 0 7 -4 4 -10z m1240 -92 c16 -10 36 -18 42 -18 19 0 93 -34 93 -42
0 -5 -5 -8 -12 -8 -16 0 -142 62 -146 72 -2 4 -14 8 -27 8 -13 0 -26 4 -29 9
-9 13 46 -1 79 -21z m-1815 -152 c0 -2 -7 -7 -16 -10 -8 -3 -12 -2 -9 4 6 10
25 14 25 6z m-428 -308 c-7 -7 -12 -8 -12 -2 0 14 12 26 19 19 2 -3 -1 -11 -7
-17z m-65 -60 c-3 -8 -6 -5 -6 6 -1 11 2 17 5 13 3 -3 4 -12 1 -19z m-61 -34
c-4 -9 -9 -15 -11 -12 -3 3 -3 13 1 22 4 9 9 15 11 12 3 -3 3 -13 -1 -22z
m-61 -94 c-4 -17 -9 -29 -12 -26 -3 2 -2 19 2 36 4 17 9 29 12 26 3 -2 2 -19
-2 -36z m-52 -60 c-3 -11 -9 -20 -15 -20 -5 0 -4 9 2 20 6 11 12 20 14 20 2 0
2 -9 -1 -20z m3547 -90 c25 -22 41 -39 35 -39 -5 0 -30 18 -55 39 -25 22 -40
40 -35 40 6 0 30 -18 55 -40z m-3614 4 c-3 -9 -6 -19 -6 -24 0 -4 -15 -13 -32
-21 -18 -7 -37 -19 -41 -26 -16 -27 -24 -12 -13 28 9 35 13 39 33 34 16 -4 23
-1 23 10 0 9 9 15 21 15 15 0 19 -4 15 -16z m38 1 c-4 -8 -8 -15 -10 -15 -2 0
-4 7 -4 15 0 8 4 15 10 15 5 0 7 -7 4 -15z m10 -66 c-10 -16 -24 -9 -24 12 0
18 2 19 15 9 8 -7 12 -16 9 -21z m-64 -6 c0 -10 -4 -24 -9 -31 -6 -10 -10 -10
-21 3 -10 12 -10 18 0 30 17 20 30 19 30 -2z m27 -25 c-3 -7 -5 -2 -5 12 0 14
2 19 5 13 2 -7 2 -19 0 -25z m-87 -18 c0 -5 7 -10 16 -10 9 0 14 -6 11 -12 -2
-7 -10 -12 -16 -10 -6 1 -11 -3 -11 -9 0 -6 -7 -4 -15 5 -8 8 -15 18 -15 22 0
3 7 1 15 -6 18 -15 20 1 3 18 -9 9 -9 12 0 12 7 0 12 -4 12 -10z m4055 -120
c10 -11 14 -20 9 -20 -5 0 -15 9 -22 20 -7 11 -11 20 -9 20 2 0 12 -9 22 -20z
m78 -160 c-6 -6 -53 51 -53 65 0 6 14 -6 29 -25 16 -19 27 -37 24 -40z m33
-37 c47 -65 42 -74 -6 -13 -17 22 -28 40 -23 40 5 0 18 -12 29 -27z m-4266 -4
c0 -5 -4 -9 -10 -9 -5 0 -10 7 -10 16 0 8 5 12 10 9 6 -3 10 -10 10 -16z m823
-72 c3 -8 -1 -14 -8 -14 -7 0 -11 6 -8 14 3 7 6 13 8 13 2 0 5 -6 8 -13z
m3507 -78 c0 -6 -4 -7 -10 -4 -5 3 -10 11 -10 16 0 6 5 7 10 4 6 -3 10 -11 10
-16z m-4433 -85 c-3 -3 -12 -4 -19 -1 -8 3 -5 6 6 6 11 1 17 -2 13 -5z m853
-28 c0 -3 -4 -8 -10 -11 -5 -3 -10 -1 -10 4 0 6 5 11 10 11 6 0 10 -2 10 -4z
m-808 -150 c3 2 8 -2 11 -11 8 -19 -26 -21 -42 -2 -13 17 -2 31 14 17 7 -5 14
-7 17 -4z m748 -26 c0 -5 -5 -10 -11 -10 -5 0 -7 5 -4 10 3 6 8 10 11 10 2 0
4 -4 4 -10z m-690 -199 c0 -6 -4 -13 -10 -16 -5 -3 -10 1 -10 9 0 9 5 16 10
16 6 0 10 -4 10 -9z m-10 -45 c0 -3 -4 -8 -10 -11 -5 -3 -10 -1 -10 4 0 6 5
11 10 11 6 0 10 -2 10 -4z m3341 -220 c0 -3 12 -19 27 -35 55 -60 72 -81 72
-86 -1 -28 2 -35 16 -35 8 0 12 -5 9 -10 -3 -6 0 -13 9 -16 18 -7 37 -59 30
-79 -4 -8 -2 -15 4 -15 5 0 12 -8 15 -17 2 -10 8 -26 12 -36 6 -13 -5 -10 -45
15 -65 40 -136 111 -158 158 -9 19 -22 41 -29 48 -7 7 -13 24 -13 37 0 13 -5
27 -10 30 -7 4 -1 16 15 30 27 26 31 40 15 50 -5 3 -10 12 -10 18 0 7 10 -2
21 -20 11 -18 20 -34 20 -37z m-2935 45 c16 14 29 6 19 -11 -4 -6 -17 -10 -28
-8 -12 1 -28 -1 -34 -5 -8 -5 -13 -3 -13 3 0 6 -5 8 -12 4 -7 -4 -8 -3 -4 5 4
6 11 9 15 7 4 -3 13 -1 21 4 9 6 16 6 18 -1 3 -6 9 -5 18 2z m2885 -20 c6 10
9 7 9 -10 0 -20 -2 -21 -15 -11 -8 7 -15 18 -14 24 0 6 3 5 6 -3 5 -11 7 -11
14 0z m-2891 -26 c0 -1 -9 -5 -19 -8 -13 -3 -18 -1 -14 9 4 10 33 10 33 -1z
m80 5 c0 -5 -4 -10 -10 -10 -5 0 -10 5 -10 10 0 6 5 10 10 10 6 0 10 -4 10
-10z m-45 -10 c-3 -5 -12 -10 -18 -10 -7 0 -6 4 3 10 19 12 23 12 15 0z m2769
-23 c-7 -19 32 -52 42 -36 4 7 2 15 -4 17 -7 2 -12 11 -12 19 0 22 26 -1 33
-28 3 -12 3 -19 1 -16 -3 3 -17 -1 -32 -9 -17 -9 -30 -10 -36 -4 -14 14 -16
43 -4 57 13 17 19 17 12 0z m627 -25 c49 -23 99 -83 106 -127 8 -47 -7 -84
-145 -367 -92 -190 -118 -235 -129 -227 -8 8 -13 8 -13 1 0 -5 -10 -8 -21 -5
-21 6 -21 7 -4 20 18 12 17 13 -8 13 -15 0 -27 4 -27 9 0 5 -7 11 -16 13 -13
2 4 42 80 193 99 194 146 301 146 329 0 22 -23 20 -45 -4 -19 -21 -55 -27 -55
-9 0 5 -13 24 -29 41 -29 31 -29 32 -9 42 11 6 20 16 20 21 -2 14 -42 19 -42
6 0 -16 -17 -13 -24 4 -8 22 2 41 27 53 36 17 147 14 188 -6z m-1607 -29 c13
5 14 3 4 -13 -17 -27 -4 -35 24 -16 12 9 17 16 10 16 -7 0 -10 5 -7 10 11 18
23 11 53 -34 l30 -44 -35 2 c-19 1 -37 -2 -39 -5 -2 -4 10 -30 27 -58 18 -28
30 -53 28 -56 -3 -2 -20 21 -39 53 -18 31 -48 80 -67 109 -33 51 -45 85 -18
49 8 -10 21 -16 29 -13z m933 1 c3 -8 12 -13 19 -10 7 3 16 1 19 -4 3 -5 12
-7 20 -4 9 4 26 -12 47 -45 24 -37 38 -49 51 -45 9 3 17 0 17 -6 0 -6 4 -9 9
-6 5 3 16 -6 25 -19 9 -14 45 -46 79 -71 34 -25 68 -53 75 -62 32 -41 -5 -78
-43 -42 -12 11 -27 20 -35 20 -11 0 -11 2 1 13 8 6 12 11 10 10 -7 -4 -31 19
-31 29 0 6 7 8 15 4 22 -8 18 -2 -14 22 -30 22 -67 20 -54 -2 4 -6 -2 -4 -12
4 -15 12 -17 12 -10 1 6 -10 4 -13 -6 -9 -54 22 -55 22 -41 6 11 -14 10 -16
-8 -11 -11 3 -27 15 -35 26 -13 19 -20 17 -16 -6 1 -4 -12 -1 -29 8 -27 14
-30 14 -40 -4 -7 -14 -6 -21 3 -25 6 -3 1 -3 -13 0 -14 3 -31 12 -38 20 -7 9
-8 10 0 4 7 -6 19 -10 27 -9 10 0 11 2 4 5 -7 3 -9 12 -6 21 4 11 2 14 -5 9
-7 -4 -12 -2 -12 4 0 6 -4 9 -8 6 -4 -2 -14 -1 -22 5 -10 6 0 7 30 5 37 -3 41
-2 23 7 -13 5 -23 16 -23 23 0 7 -5 14 -12 16 -7 3 -5 7 6 11 11 5 15 3 10 -5
-4 -7 -3 -8 4 -4 20 12 14 21 -23 39 -23 11 -33 21 -29 31 3 9 12 12 22 9 10
-4 12 -8 4 -11 -16 -5 -5 -22 14 -22 8 0 12 5 9 10 -3 6 -2 10 3 10 14 0 10
29 -5 34 -8 3 -11 10 -8 16 9 15 25 12 32 -6z m-2634 -17 c-2 -4 -5 -7 -9 -7
-3 1 -13 -9 -24 -22 -10 -13 -22 -20 -26 -16 -4 4 -1 15 7 25 9 11 10 14 2 9
-7 -4 -13 -3 -13 3 0 10 26 18 50 16 8 -1 14 -5 13 -8z m2770 -34 c17 -19 17
-21 2 -19 -19 3 -36 26 -28 39 3 4 6 7 7 5 0 -2 9 -13 19 -25z m-1113 -8 c0
-9 -9 -15 -22 -15 -22 1 -23 1 -4 15 25 19 26 19 26 0z m-1690 -24 c0 -4 -12
-21 -27 -36 -18 -18 -22 -26 -11 -22 10 3 20 2 23 -3 4 -6 2 -10 -3 -10 -12 0
-11 -32 2 -50 5 -8 6 -11 1 -7 -5 4 -14 -2 -21 -15 -10 -18 -9 -25 5 -36 14
-11 13 -12 -7 -2 -12 6 -20 15 -17 20 3 5 1 19 -5 31 -11 19 -10 20 11 14 l22
-7 -22 27 -22 28 26 27 c27 28 35 52 9 25 -14 -13 -18 -14 -25 -3 -6 9 -1 15
14 20 33 9 47 9 47 -1z m2830 -5 c0 -3 -4 -8 -10 -11 -5 -3 -10 -1 -10 4 0 6
5 11 10 11 6 0 10 -2 10 -4z m-2799 -39 c-10 -9 -11 -8 -5 6 3 10 9 15 12 12
3 -3 0 -11 -7 -18z m92 3 c4 -17 2 -18 -14 -9 -11 5 -17 14 -14 20 10 15 22
10 28 -11z m1611 1 c3 -5 -3 -11 -14 -14 -20 -5 -35 5 -23 17 9 9 31 7 37 -3z
m-1831 -14 c3 -7 -3 -13 -14 -14 -15 -1 -16 1 -6 12 15 18 14 18 20 2z m2727
1 c0 -4 -4 -8 -9 -8 -6 0 -12 4 -15 8 -3 5 1 9 9 9 8 0 15 -4 15 -9z m-2582
-18 c-7 -10 -14 -17 -17 -15 -4 4 18 35 25 35 2 0 -1 -9 -8 -20z m1410 -92
c49 -57 100 -112 112 -123 l23 -20 -18 30 -19 30 26 -23 c33 -30 57 -84 40
-90 -7 -2 0 -19 18 -44 17 -23 30 -48 30 -56 0 -8 -11 2 -25 22 -14 20 -25 39
-25 42 0 2 -20 30 -45 62 -24 31 -62 81 -84 111 -22 29 -63 78 -91 107 -29 30
-47 54 -42 54 6 0 51 -46 100 -102z m-1373 73 c-8 -14 -25 -14 -25 0 0 5 5 7
10 4 6 -3 10 -1 10 6 0 7 3 10 6 6 3 -3 3 -10 -1 -16z m495 15 c0 -2 -8 -10
-17 -17 -16 -13 -17 -12 -4 4 13 16 21 21 21 13z m-525 -49 c1 -7 6 -11 13
-10 7 2 9 -4 5 -14 -4 -11 -8 -13 -11 -5 -2 7 -10 12 -17 12 -7 0 -12 8 -10
18 2 9 4 19 4 21 2 9 16 -11 16 -22z m2660 -15 c-3 -3 -11 0 -18 7 -9 10 -8
11 6 5 10 -3 15 -9 12 -12z m-90 -12 c8 -13 -5 -13 -25 0 -13 8 -13 10 2 10 9
0 20 -4 23 -10z m120 -10 c3 -6 -1 -7 -9 -4 -18 7 -21 14 -7 14 6 0 13 -4 16
-10z m-2712 -30 c3 -11 1 -18 -4 -14 -5 3 -9 12 -9 20 0 20 7 17 13 -6z m397
6 c0 -2 -8 -10 -17 -17 -16 -13 -17 -12 -4 4 13 16 21 21 21 13z m-40 -30 c0
-2 -19 -19 -42 -36 l-43 -32 40 36 c40 36 45 39 45 32z m-485 -45 c-3 -6 -11
-11 -17 -11 -6 0 -6 6 2 15 14 17 26 13 15 -4z m16 -14 c-10 -9 -11 -8 -5 6 3
10 9 15 12 12 3 -3 0 -11 -7 -18z m4677 -85 c49 -78 54 -97 12 -57 -16 16 -30
34 -30 40 0 7 -11 29 -25 49 -14 20 -25 45 -24 54 0 19 -5 26 67 -86z m-4694
56 c-4 -6 0 -15 7 -20 12 -8 12 -9 0 -6 -8 2 -18 14 -22 26 -6 16 -5 20 6 15
8 -3 12 -10 9 -15z m396 19 c0 -2 -10 -12 -22 -23 l-23 -19 19 23 c18 21 26
27 26 19z m-50 -40 c0 -2 -10 -12 -22 -23 l-23 -19 19 23 c18 21 26 27 26 19z
m-50 -41 c0 -2 -8 -10 -17 -17 -16 -13 -17 -12 -4 4 13 16 21 21 21 13z m4300
-63 c0 -7 7 -13 15 -13 8 0 15 -7 15 -15 0 -9 6 -18 14 -21 18 -7 64 -100 71
-144 3 -19 15 -45 27 -57 11 -12 21 -35 22 -51 1 -16 6 -35 12 -43 6 -8 14
-23 18 -34 5 -14 -1 -11 -18 10 -14 17 -25 34 -26 38 0 5 -11 33 -25 63 -14
30 -25 59 -25 65 0 6 -11 24 -25 41 -14 16 -25 40 -25 54 0 13 -4 24 -10 24
-14 0 -58 70 -65 105 -6 29 -6 29 9 11 9 -11 16 -26 16 -33z m-4645 -22 c3 -5
1 -12 -5 -16 -5 -3 -10 1 -10 9 0 18 6 21 15 7z m4840 -81 c3 -5 1 -10 -4 -10
-6 0 -11 5 -11 10 0 6 2 10 4 10 3 0 8 -4 11 -10z m97 -130 c6 0 7 8 4 17 -5
13 0 11 18 -6 15 -14 26 -29 26 -35 0 -6 -7 -2 -15 8 -8 11 -18 16 -22 13 -4
-4 -1 -13 5 -19 7 -7 12 -17 12 -22 0 -6 -16 6 -35 27 -19 21 -35 43 -34 50 0
7 7 2 16 -10 8 -13 20 -23 25 -23z m-100 -12 c28 -54 39 -78 33 -78 -3 0 -18
27 -35 60 -34 68 -32 83 2 18z m115 -70 c40 -40 80 -88 89 -107 11 -22 19 -29
24 -22 11 19 56 -41 64 -84 10 -50 0 -56 -19 -12 -17 40 -42 63 -30 28 3 -11
3 -21 -2 -21 -16 0 -116 116 -146 170 -17 30 -38 64 -47 75 -10 11 -26 36 -35
55 l-18 35 24 -22 c13 -13 57 -55 96 -95z m-5027 38 c0 -2 -8 -10 -17 -17 -16
-13 -17 -12 -4 4 13 16 21 21 21 13z m-8522 -51 c-23 -21 -48 -35 -63 -35
l-25 0 22 35 c20 30 28 35 63 35 l40 -1 -37 -34z m356 29 c23 -9 20 -41 -5
-54 -38 -21 -69 28 -31 49 21 13 17 12 36 5z m1466 -7 c0 -8 -13 -78 -30 -155
-16 -78 -30 -144 -30 -147 0 -3 -15 -5 -33 -5 l-34 0 19 88 c53 251 47 232 79
232 18 0 29 -5 29 -13z m1838 -11 c6 -27 -25 -48 -49 -35 -23 12 -24 23 -3 44
21 20 48 16 52 -9z m381 17 c0 -5 -15 -75 -33 -158 l-32 -150 -32 -3 c-18 -2
-32 -1 -32 2 0 9 60 290 65 304 5 13 65 17 64 5z m351 0 c0 -5 -14 -77 -32
-160 -30 -144 -33 -153 -55 -153 -13 0 -23 4 -23 9 0 6 -15 4 -32 -3 -58 -24
-98 8 -98 78 0 100 91 183 143 131 13 -12 16 -9 22 32 4 25 9 52 12 59 5 14
63 20 63 7z m-5410 -16 c0 -2 -11 -55 -25 -117 -14 -62 -25 -117 -25 -122 0
-4 23 -8 50 -8 50 0 55 -4 44 -34 -5 -13 -23 -16 -91 -16 -76 0 -84 2 -79 18
3 9 17 71 31 137 14 66 27 126 30 133 4 10 65 19 65 9z m3516 -42 c-6 -23 -3
-25 25 -25 24 0 30 -3 25 -16 -3 -9 -6 -20 -6 -25 0 -5 -13 -9 -29 -9 -33 0
-37 -8 -47 -80 -6 -49 -6 -50 20 -50 19 0 26 -5 26 -19 0 -11 -5 -23 -11 -26
-21 -14 -80 -9 -96 8 -15 14 -15 24 -3 89 9 53 10 73 1 76 -19 6 -13 20 27 61
44 47 78 55 68 16z m11003 -65 c18 -15 65 -86 66 -99 3 -21 65 -150 65 -133 0
6 4 12 9 12 10 0 2 -91 -9 -104 -13 -13 -52 72 -45 97 4 16 4 18 -3 8 -7 -10
-17 -3 -40 32 -17 24 -33 55 -36 68 -2 13 -15 51 -29 84 -13 33 -27 76 -31 95
l-6 35 27 -45 c14 -25 29 -47 32 -50z m-14276 25 c13 -13 16 -13 21 0 3 8 17
15 31 15 20 0 25 -4 22 -17 -3 -10 -13 -54 -22 -98 -24 -115 -24 -115 -51
-115 -13 0 -24 4 -24 9 0 5 -13 3 -29 -5 -41 -20 -76 -5 -91 40 -16 48 9 136
46 165 31 24 76 27 97 6z m289 -10 c-4 -19 -3 -19 20 3 28 26 70 29 92 7 14
-14 18 -14 40 0 35 23 77 16 95 -16 13 -24 13 -36 -3 -113 l-19 -86 -32 0 -33
0 14 58 c18 77 18 122 -1 122 -26 0 -43 -37 -69 -152 -5 -23 -12 -28 -36 -28
-35 0 -34 -3 -15 90 15 73 14 90 -9 90 -23 0 -39 -28 -56 -103 -16 -69 -18
-72 -48 -75 -18 -2 -32 -1 -32 3 0 8 40 198 45 213 3 7 15 12 27 10 17 -2 22
-9 20 -23z m384 -17 c-20 -123 -20 -138 2 -138 24 0 45 42 62 123 11 54 13 57
41 57 35 0 35 0 8 -130 -20 -92 -24 -100 -45 -100 -16 0 -24 6 -24 17 0 14 -2
14 -20 -2 -27 -24 -79 -24 -97 1 -16 20 -14 66 7 162 11 49 13 52 42 52 30 0
31 0 24 -42z m321 34 c7 -4 10 -17 6 -30 -5 -19 -10 -21 -43 -16 -52 8 -60
-11 -16 -37 40 -23 54 -58 40 -98 -12 -32 -67 -53 -118 -44 -31 5 -36 9 -36
33 0 28 1 28 35 17 29 -9 39 -8 51 5 14 14 11 18 -25 47 -48 38 -55 77 -19
111 22 21 100 28 125 12z m133 -6 c0 -8 -9 -58 -20 -111 -11 -53 -20 -99 -20
-101 0 -2 -15 -4 -34 -4 l-33 0 13 58 c7 31 18 83 24 115 11 54 13 57 41 57
18 0 29 -5 29 -14z m206 6 c7 -4 8 -15 3 -29 -7 -18 -13 -21 -42 -16 -29 4
-38 1 -50 -18 -15 -23 -20 -53 -18 -93 1 -16 7 -18 46 -13 39 6 45 4 45 -12 0
-33 -33 -47 -97 -43 -79 6 -84 150 -8 210 28 22 97 30 121 14z m176 -9 c17
-15 18 -15 18 0 0 11 8 17 25 17 30 0 30 2 3 -127 -20 -95 -23 -103 -45 -103
-13 0 -23 4 -23 9 0 6 -15 4 -32 -3 -58 -24 -98 8 -98 78 0 104 92 183 152
129z m386 1 c54 -37 9 -112 -72 -121 -50 -6 -61 -24 -25 -43 15 -8 29 -8 51
-1 40 14 38 15 38 -14 0 -19 -7 -26 -27 -31 -16 -3 -33 -7 -40 -9 -6 -2 -28 1
-48 6 -64 18 -80 110 -31 180 33 48 109 65 154 33z m203 6 c15 -9 17 -15 9
-29 -8 -16 -17 -18 -50 -14 -51 7 -51 -5 0 -46 47 -37 51 -67 17 -107 -19 -22
-32 -26 -73 -27 -60 -1 -74 6 -74 39 0 28 0 27 36 14 31 -12 64 -5 64 14 0 8
-16 26 -35 40 -64 49 -37 126 46 126 22 0 49 -5 60 -10z m339 -10 c11 -11 20
-27 20 -36 0 -43 -53 -84 -110 -84 -33 0 -40 -19 -16 -39 11 -9 25 -10 50 -2
34 9 36 8 36 -14 0 -31 -12 -37 -71 -38 -84 -1 -118 59 -84 149 29 77 127 112
175 64z m423 5 c13 -13 16 -13 21 0 3 8 17 15 31 15 20 0 25 -4 22 -17 -3 -10
-13 -54 -22 -98 -24 -115 -24 -115 -51 -115 -13 0 -24 4 -24 9 0 5 -13 3 -29
-5 -41 -20 -76 -5 -91 40 -16 48 9 136 46 165 31 24 76 27 97 6z m276 6 c21
-14 -4 -54 -30 -46 -46 15 -84 -31 -77 -91 3 -27 6 -29 46 -28 37 1 42 -2 42
-22 0 -18 -8 -25 -34 -32 -69 -20 -126 18 -126 82 1 42 32 110 61 130 25 17
95 21 118 7z m378 -13 c32 -30 32 -111 0 -159 -46 -69 -145 -71 -173 -3 -22
52 2 136 48 168 33 24 97 20 125 -6z m324 12 c15 -9 17 -15 9 -29 -8 -16 -17
-18 -50 -14 -51 7 -51 -5 0 -46 47 -37 51 -67 17 -107 -19 -22 -32 -26 -73
-27 -60 -1 -74 6 -74 39 0 28 0 27 36 14 31 -12 64 -5 64 14 0 8 -16 26 -35
40 -64 49 -37 126 46 126 22 0 49 -5 60 -10z m226 -16 c22 -23 25 -32 21 -80
-6 -67 -31 -104 -82 -121 -31 -11 -43 -10 -72 2 -42 17 -58 54 -49 114 15 97
120 147 182 85z m238 16 c3 -6 4 -19 0 -29 -4 -14 -15 -18 -43 -17 -33 1 -39
-3 -55 -37 -12 -24 -17 -47 -12 -64 5 -23 9 -25 46 -20 38 5 40 4 37 -21 -4
-32 -48 -47 -96 -31 -39 13 -52 35 -52 89 0 81 53 140 126 140 23 0 46 -5 49
-10z m121 -7 c-2 -10 -12 -54 -21 -98 -25 -119 -23 -115 -56 -115 -16 0 -29 3
-29 8 0 4 10 55 22 115 l22 107 34 0 c27 0 32 -3 28 -17z m175 1 c11 -14 13
-14 21 0 5 9 18 16 28 16 23 0 26 -23 11 -80 -5 -19 -15 -61 -21 -92 -10 -52
-14 -58 -36 -58 -13 0 -24 5 -24 11 0 8 -4 8 -14 0 -20 -16 -72 -17 -90 -2
-40 34 -27 142 24 193 32 32 80 38 101 12z m761 -1 c20 -18 23 -54 8 -83 -11
-21 -60 -40 -101 -40 -35 0 -39 -24 -8 -40 15 -8 29 -8 51 -1 40 14 38 15 38
-14 0 -29 -36 -42 -107 -37 -81 6 -85 149 -7 211 33 26 100 28 126 4z m4008
14 c0 -2 -12 -14 -27 -28 l-28 -24 24 28 c23 25 31 32 31 24z m4965 -77 c5
-17 -3 -10 -24 20 -17 25 -31 49 -31 53 0 16 47 -48 55 -73z m-5112 -24 c2 -6
23 5 48 23 24 18 6 -2 -40 -45 -47 -44 -88 -79 -92 -79 -4 0 -11 -4 -16 -9 -5
-5 -2 -6 6 -1 8 5 12 4 8 -1 -3 -5 -23 -9 -44 -9 -33 0 -38 3 -36 23 4 33 -16
27 -64 -20 -24 -23 -43 -37 -43 -32 0 6 50 59 111 119 l110 107 24 -32 c13
-18 26 -38 28 -44z m5193 -32 c24 -26 51 -56 59 -67 15 -22 21 -102 8 -110 -5
-3 -33 46 -65 109 -31 63 -54 114 -52 114 3 0 25 -21 50 -46z m147 -24 c-6 -6
-33 30 -33 44 0 6 9 0 20 -14 10 -14 16 -27 13 -30z m-5269 2 c8 -15 30 -44
49 -65 20 -20 30 -37 24 -38 -7 0 2 -7 18 -15 29 -14 28 -14 -32 -12 -67 3
-82 -2 -58 -22 12 -10 15 -10 15 1 0 10 3 10 12 1 7 -7 21 -12 32 -12 10 0 17
-3 13 -6 -3 -3 -23 -6 -44 -6 l-38 -1 30 -14 30 -14 -28 6 c-19 4 -26 2 -22
-5 3 -5 13 -10 21 -10 20 0 18 -18 -3 -23 -15 -4 -14 -6 5 -12 l23 -8 -21 -19
c-27 -25 -169 -90 -181 -82 -5 3 -7 10 -3 15 3 6 0 57 -7 115 l-12 105 74 75
c40 41 77 74 81 74 4 0 14 -12 22 -28z m5116 -47 c0 -11 -14 7 -31 40 -7 13
-3 12 10 -5 11 -14 21 -29 21 -35z m-4471 1 c-2 -2 -15 -9 -29 -15 -24 -11
-24 -11 -6 3 16 13 49 24 35 12z m4586 -66 c3 -5 1 -10 -4 -10 -6 0 -11 5 -11
10 0 6 2 10 4 10 3 0 8 -4 11 -10z m-60 -48 c14 -22 27 -53 30 -70 2 -18 10
-39 19 -47 16 -17 31 -54 23 -61 -3 -3 8 -30 24 -61 22 -42 26 -60 18 -72 -9
-14 -10 -14 -5 2 3 10 0 17 -8 17 -13 0 -32 36 -60 115 -8 22 -25 67 -39 100
-28 67 -42 115 -33 115 3 0 17 -17 31 -38z m-4445 -48 c0 -7 -4 -15 -9 -18
-10 -7 -2 -56 11 -73 6 -7 8 -18 5 -25 -2 -7 0 -24 6 -38 7 -19 13 -191 8
-231 -2 -12 -55 -69 -65 -69 -6 0 -5 4 3 9 11 7 10 10 -6 15 -17 6 -19 14 -16
79 5 126 6 180 4 252 -2 78 6 126 23 137 12 8 36 -18 36 -38z m-460 -64 c8
-15 7 -26 -5 -44 -15 -23 -15 -39 2 -99 3 -13 10 -16 21 -12 10 4 24 8 32 10
8 2 15 4 15 5 0 1 9 3 21 5 19 4 22 -2 33 -65 16 -100 15 -115 -14 -130 -45
-24 -85 19 -166 181 -43 86 -47 107 -23 116 10 3 12 8 5 12 -6 4 -2 12 10 20
12 7 18 8 14 2 -3 -6 -2 -11 3 -11 6 0 12 7 16 15 8 21 23 19 36 -5z m4910
-30 c0 -5 -2 -10 -4 -10 -3 0 -8 5 -11 10 -3 6 -1 10 4 10 6 0 11 -4 11 -10z
m-13402 -52 c18 -18 15 -36 -7 -48 -25 -13 -51 -3 -51 19 0 19 19 41 35 41 6
0 16 -5 23 -12z m780 -12 c6 -27 -25 -48 -49 -35 -23 12 -24 23 -3 44 21 20
48 16 52 -9z m192 -11 c-19 -20 -44 -35 -57 -35 -28 0 -28 3 -1 40 17 23 30
30 57 30 l35 0 -34 -35z m1710 28 c0 -5 -14 -77 -32 -160 l-33 -153 -33 0
c-27 0 -32 3 -28 18 3 9 17 73 31 142 34 167 31 160 66 160 16 0 29 -3 29 -7z
m5057 -25 c-3 -7 -5 -2 -5 12 0 14 2 19 5 13 2 -7 2 -19 0 -25z m500 26 c-3
-4 5 -21 18 -38 13 -18 36 -59 51 -91 14 -33 40 -88 56 -123 17 -35 28 -66 25
-69 -12 -11 -36 7 -53 39 -9 18 -39 67 -67 108 -41 60 -51 85 -55 128 -4 45
-2 52 13 52 10 0 16 -3 12 -6z m290 -46 c-3 -7 -5 -2 -5 12 0 14 2 19 5 13 2
-7 2 -19 0 -25z m-20 0 c-3 -8 -6 -5 -6 6 -1 11 2 17 5 13 3 -3 4 -12 1 -19z
m-6519 -13 c-5 -22 -2 -25 23 -25 16 0 29 -4 29 -9 0 -26 -15 -41 -39 -41 -25
0 -29 -5 -39 -51 -17 -72 -16 -79 13 -79 20 0 25 -5 25 -24 0 -44 -100 -43
-114 2 -6 17 4 82 20 135 4 11 0 17 -10 17 -23 0 -19 31 4 37 12 3 27 18 36
34 19 38 59 41 52 4z m1872 0 c0 -20 5 -25 26 -25 21 0 25 -4 22 -22 -2 -18
-11 -24 -34 -26 -27 -3 -32 -8 -37 -35 -3 -18 -9 -47 -13 -64 -6 -31 -5 -33
20 -33 21 0 26 -5 26 -24 0 -18 -7 -25 -30 -30 -17 -3 -42 -1 -56 5 -26 9 -27
11 -21 72 3 34 9 72 13 85 5 16 2 22 -10 22 -25 0 -19 29 9 40 14 5 30 21 37
35 15 34 48 34 48 0z m-5114 -33 c7 -4 8 -15 3 -29 -7 -18 -13 -21 -42 -16
-29 4 -38 1 -50 -18 -15 -23 -20 -53 -18 -93 1 -16 7 -18 46 -13 39 6 45 4 45
-12 0 -33 -33 -47 -97 -43 -79 6 -84 150 -8 210 28 22 97 30 121 14z m203 -9
c31 -25 37 -83 16 -139 -21 -54 -52 -77 -107 -77 -75 0 -109 73 -74 157 29 69
115 99 165 59z m151 1 c0 -14 2 -14 22 0 31 22 74 20 91 -4 l14 -20 18 20 c20
22 74 27 93 8 15 -15 15 -76 -1 -153 -12 -57 -14 -60 -45 -63 -18 -2 -32 -1
-32 1 0 3 7 40 16 82 16 79 12 101 -18 90 -20 -8 -34 -40 -49 -114 -13 -60
-14 -61 -46 -61 -37 0 -36 -4 -12 90 13 51 11 90 -4 90 -26 0 -47 -36 -63
-108 -16 -71 -17 -72 -49 -72 l-32 0 13 58 c7 31 18 83 24 115 10 51 14 57 36
57 15 0 24 -6 24 -16z m384 -11 c-3 -16 -10 -44 -15 -63 -15 -60 -12 -90 11
-90 25 0 45 38 60 118 13 62 13 62 47 62 28 0 33 -3 29 -17 -2 -10 -12 -54
-21 -98 -9 -44 -19 -88 -22 -97 -6 -24 -53 -24 -53 -1 0 14 -2 15 -17 1 -27
-23 -52 -29 -73 -18 -38 20 -42 45 -24 140 l17 90 34 0 c31 0 33 -2 27 -27z
m246 10 c0 -15 2 -15 19 1 29 26 83 18 98 -15 10 -21 9 -42 -4 -112 l-17 -87
-34 0 c-23 0 -33 4 -29 13 10 27 30 157 24 163 -11 11 -44 -7 -55 -30 -6 -14
-17 -52 -23 -85 -13 -60 -14 -61 -47 -61 -27 0 -32 3 -28 18 2 9 12 53 21 97
9 44 19 88 22 98 6 23 53 23 53 0z m260 10 c0 -5 -10 -56 -22 -115 l-22 -108
-34 0 c-27 0 -32 3 -28 18 2 9 12 53 21 97 25 119 23 115 56 115 16 0 29 -3
29 -7z m205 -3 c3 -6 4 -19 0 -29 -4 -14 -15 -18 -43 -17 -33 1 -39 -3 -55
-37 -12 -24 -17 -47 -12 -64 5 -23 9 -25 46 -20 38 5 40 4 37 -21 -4 -32 -48
-47 -96 -31 -39 13 -52 35 -52 89 0 81 53 140 126 140 23 0 46 -5 49 -10z
m174 -2 c11 -10 14 -10 18 0 3 6 16 12 29 12 28 0 28 9 -4 -145 -16 -76 -18
-80 -46 -83 -18 -2 -26 0 -21 7 8 14 3 14 -30 -3 -29 -15 -49 -12 -77 12 -38
32 -11 172 39 201 25 14 76 13 92 -1z m276 2 c3 -6 4 -19 0 -29 -5 -16 -12
-19 -38 -14 -44 7 -70 -23 -71 -80 l-1 -42 43 1 c37 1 42 -2 42 -22 0 -29 -11
-36 -66 -37 -63 0 -88 26 -87 91 1 59 24 106 61 126 31 17 108 21 117 6z m121
-7 c-2 -10 -12 -54 -21 -98 -25 -119 -23 -115 -56 -115 -16 0 -29 3 -29 8 0 4
10 55 22 115 l22 107 34 0 c27 0 32 -3 28 -17z m203 0 c31 -25 37 -83 16 -139
-21 -54 -52 -77 -107 -77 -75 0 -109 73 -74 157 29 69 115 99 165 59z m151 0
c0 -15 2 -15 19 1 29 26 83 18 98 -15 10 -21 9 -42 -4 -112 l-17 -87 -34 0
c-23 0 -33 4 -29 13 10 27 30 157 24 163 -11 11 -44 -7 -55 -30 -6 -14 -17
-52 -23 -85 -13 -60 -14 -61 -47 -61 -27 0 -32 3 -28 18 2 9 12 53 21 97 9 44
19 88 22 98 6 23 53 23 53 0z m460 -3 c11 -11 20 -27 20 -36 0 -43 -53 -84
-110 -84 -33 0 -40 -19 -16 -39 11 -9 25 -10 50 -2 34 9 36 8 36 -14 0 -31
-12 -37 -71 -38 -84 -1 -118 59 -84 149 29 77 127 112 175 64z m130 5 c0 -14
3 -14 24 0 35 23 77 16 95 -16 13 -24 13 -36 -3 -113 l-19 -86 -32 0 -33 0 14
58 c18 75 18 122 1 122 -26 0 -47 -36 -63 -108 -16 -71 -17 -72 -49 -72 l-32
0 13 58 c7 31 18 83 24 115 10 51 14 57 36 57 15 0 24 -6 24 -15z m420 -1 c0
-14 2 -14 22 0 12 9 33 16 46 16 20 0 23 -4 18 -22 -3 -13 -6 -26 -6 -30 0 -5
-11 -8 -23 -8 -41 0 -55 -25 -81 -142 -5 -23 -12 -28 -36 -28 -17 0 -30 3 -30
8 0 4 10 55 22 115 20 99 24 107 45 107 14 0 23 -6 23 -16z m280 -4 c11 -11
20 -27 20 -36 0 -43 -53 -84 -110 -84 -33 0 -40 -19 -16 -39 11 -9 25 -10 50
-2 34 9 36 8 36 -14 0 -31 -12 -37 -71 -38 -84 -1 -118 59 -84 149 29 77 127
112 175 64z m423 5 c13 -13 16 -13 21 0 3 8 17 15 31 15 20 0 25 -4 22 -17 -3
-10 -13 -54 -22 -98 -24 -115 -24 -115 -51 -115 -13 0 -24 4 -24 9 0 5 -13 3
-29 -5 -41 -20 -76 -5 -91 40 -16 48 9 136 46 165 31 24 76 27 97 6z m427 -4
c0 -11 -9 -21 -21 -24 -12 -3 -18 -10 -15 -15 3 -5 1 -24 -5 -42 -12 -33 -56
-60 -99 -60 -34 0 -22 -17 17 -25 59 -11 73 -22 73 -59 0 -49 -37 -78 -105
-84 -93 -8 -139 48 -81 99 14 12 22 28 19 38 -2 10 3 25 11 34 13 12 14 21 6
42 -13 35 -3 71 27 95 20 16 41 20 99 20 66 0 74 -2 74 -19z m192 2 c20 -18
23 -54 8 -83 -11 -21 -60 -40 -101 -40 -35 0 -39 -24 -8 -40 15 -8 29 -8 51
-1 40 14 38 15 38 -14 0 -29 -36 -42 -107 -37 -81 6 -85 149 -7 211 33 26 100
28 126 4z m128 1 c0 -14 2 -14 22 0 29 20 72 20 92 0 23 -22 21 -57 -9 -191
-4 -18 -12 -23 -35 -23 -35 0 -34 -3 -15 91 11 51 12 76 5 83 -26 26 -61 -35
-85 -146 -4 -23 -11 -28 -35 -28 -17 0 -30 3 -30 8 0 4 10 55 22 115 20 99 24
107 45 107 14 0 23 -6 23 -16z m522 -1 c10 -9 18 -30 18 -49 0 -41 -31 -64
-95 -72 -48 -5 -54 -12 -29 -36 18 -19 19 -19 62 -7 30 9 32 8 32 -14 0 -27
-23 -38 -84 -38 -97 0 -118 143 -31 211 34 27 100 30 127 5z m3646 -18 c25
-54 -9 -448 -37 -430 -16 9 -29 -13 -33 -54 -4 -54 17 -67 30 -19 l9 33 12
-28 c15 -39 16 -63 7 -273 -7 -149 -5 -186 7 -216 18 -43 12 -84 -16 -103 -30
-21 -36 -19 -51 16 -10 23 -12 74 -8 197 2 92 -1 222 -7 289 -11 120 -10 126
23 311 19 104 36 215 38 246 3 62 9 69 26 31z m386 -45 c-14 -13 -17 -13 -30
4 -25 35 -18 49 16 29 27 -16 28 -19 14 -33z m5392 23 c-4 -9 -3 -19 2 -22 5
-3 12 -19 16 -36 l7 -30 -19 24 c-19 24 -23 81 -6 81 3 0 3 -8 0 -17z m-9316
-134 c0 -25 -53 -99 -71 -99 -23 0 -24 12 -3 67 14 37 21 43 45 43 16 0 29 -5
29 -11z m4420 -16 c5 -116 46 -255 101 -347 32 -54 38 -70 28 -77 -30 -18
-127 -31 -209 -27 -73 3 -94 9 -136 33 -57 33 -184 156 -184 178 0 17 77 67
257 166 62 35 115 67 119 72 6 11 24 12 24 2z m-505 -193 c10 -11 16 -20 13
-20 -3 0 -13 9 -23 20 -10 11 -16 20 -13 20 3 0 13 -9 23 -20z m885 -34 c10
-13 10 -16 -1 -16 -8 0 -22 12 -33 26 -18 26 -18 26 1 16 11 -6 25 -18 33 -26z
m-779 -218 c43 -43 82 -78 87 -78 5 0 -28 37 -74 82 -46 45 -84 85 -84 89 0 4
15 3 33 -2 17 -6 39 -12 47 -13 8 -2 14 -8 13 -14 -4 -16 76 -78 128 -101 54
-24 179 -40 179 -22 0 6 15 11 34 11 32 0 123 15 159 26 13 4 17 0 17 -16 0
-23 7 -23 67 -5 16 5 26 1 40 -16 21 -27 42 -48 114 -113 30 -28 64 -63 76
-80 l23 -29 -28 -18 c-15 -9 -51 -40 -80 -68 -29 -28 -65 -58 -80 -66 -15 -9
-47 -46 -70 -83 -94 -144 -131 -219 -172 -352 -23 -74 -62 -177 -87 -229 -52
-105 -73 -121 -161 -121 l-50 0 -90 278 c-124 382 -161 518 -178 652 -8 63
-24 178 -35 255 -12 77 -23 165 -26 195 l-4 55 63 -70 c34 -38 97 -105 139
-147z m894 192 c3 -5 -3 -10 -15 -10 -12 0 -18 5 -15 10 3 6 10 10 15 10 5 0
12 -4 15 -10z m-8525 -37 c-1 -5 -15 -75 -33 -158 -33 -148 -33 -150 -61 -153
-18 -2 -26 0 -21 7 8 14 3 14 -30 -3 -29 -15 -49 -12 -77 12 -39 33 -10 174
41 202 25 13 68 13 76 0 13 -21 23 -8 30 38 9 60 10 62 46 62 16 0 29 -3 29
-7z m1078 -17 c6 -27 -25 -48 -49 -35 -23 12 -24 23 -3 44 21 20 48 16 52 -9z
m872 17 c-1 -5 -15 -75 -33 -158 -33 -148 -33 -150 -61 -153 -18 -2 -26 0 -21
7 8 14 3 14 -30 -3 -29 -15 -49 -12 -77 12 -39 33 -10 174 41 202 25 13 68 13
76 0 13 -21 23 -8 30 38 9 60 10 62 46 62 16 0 29 -3 29 -7z m579 0 c0 -5 -15
-75 -33 -158 l-32 -150 -32 -3 c-18 -2 -32 -1 -32 2 0 9 60 290 65 304 5 13
65 17 64 5z m701 -2 c0 -16 -70 -62 -90 -59 -20 3 -20 4 2 35 18 25 30 33 56
33 17 0 32 -4 32 -9z m-3884 -56 c-6 -23 -3 -25 25 -25 24 0 30 -3 25 -16 -3
-9 -6 -20 -6 -25 0 -5 -13 -9 -29 -9 -33 0 -37 -8 -47 -80 -6 -49 -6 -50 20
-50 19 0 26 -5 26 -19 0 -11 -5 -23 -11 -26 -21 -14 -80 -9 -96 8 -15 14 -15
24 -3 89 9 53 10 73 1 76 -19 6 -13 20 27 61 44 47 78 55 68 16z m2052 0 c-5
-22 -2 -25 23 -25 16 0 29 -4 29 -9 0 -26 -15 -41 -39 -41 -25 0 -29 -5 -39
-51 -17 -72 -16 -79 13 -79 20 0 25 -5 25 -24 0 -44 -100 -43 -114 2 -6 17 4
82 20 135 4 11 0 17 -10 17 -23 0 -19 31 4 37 12 3 27 18 36 34 19 38 59 41
52 4z m11787 -36 c20 -28 31 -49 24 -47 -7 2 -17 13 -23 23 -6 10 -19 28 -28
39 -17 18 -23 36 -14 36 2 0 21 -23 41 -51z m-15121 -16 c-3 -16 -10 -44 -15
-63 -15 -60 -12 -90 11 -90 25 0 45 38 60 118 13 62 13 62 47 62 28 0 33 -3
29 -17 -2 -10 -12 -54 -21 -98 -9 -44 -19 -88 -22 -97 -6 -24 -53 -24 -53 -1
0 14 -2 15 -17 1 -27 -23 -52 -29 -73 -18 -38 20 -42 45 -24 140 l17 90 34 0
c31 0 33 -2 27 -27z m246 10 c0 -15 2 -15 19 1 29 26 83 18 98 -15 10 -21 9
-42 -4 -112 l-17 -87 -34 0 c-23 0 -33 4 -29 13 10 27 30 157 24 163 -11 11
-44 -7 -55 -30 -6 -14 -17 -52 -23 -85 -13 -60 -14 -61 -47 -61 -27 0 -32 3
-28 18 2 9 12 53 21 97 9 44 19 88 22 98 6 23 53 23 53 0z m490 -2 c0 -11 -9
-21 -21 -24 -12 -3 -18 -10 -15 -15 3 -5 1 -24 -5 -42 -12 -33 -56 -60 -99
-60 -34 0 -22 -17 17 -25 59 -11 73 -22 73 -59 0 -49 -37 -78 -105 -84 -93 -8
-139 48 -81 99 14 12 22 28 19 38 -2 10 3 25 11 34 13 12 14 21 6 42 -13 35
-3 71 27 95 20 16 41 20 99 20 66 0 74 -2 74 -19z m188 3 c54 -37 9 -112 -72
-121 -50 -6 -61 -24 -25 -43 15 -8 29 -8 51 -1 40 14 38 15 38 -14 0 -19 -7
-26 -27 -31 -16 -3 -33 -7 -40 -9 -6 -2 -28 1 -48 6 -64 18 -80 110 -31 180
33 48 109 65 154 33z m203 6 c15 -9 17 -15 9 -29 -8 -16 -17 -18 -50 -14 -51
7 -51 -5 0 -46 47 -37 51 -67 17 -107 -19 -22 -32 -26 -73 -27 -60 -1 -74 6
-74 39 0 28 0 27 36 14 31 -12 64 -5 64 14 0 8 -16 26 -35 40 -64 49 -37 126
46 126 22 0 49 -5 60 -10z m396 -12 c32 -30 32 -111 0 -159 -46 -69 -145 -71
-173 -3 -22 52 2 136 48 168 33 24 97 20 125 -6z m601 6 c54 -37 9 -112 -72
-121 -50 -6 -61 -24 -25 -43 15 -8 29 -8 51 -1 40 14 38 15 38 -14 0 -19 -7
-26 -27 -31 -16 -3 -33 -7 -40 -9 -6 -2 -28 1 -48 6 -64 18 -80 110 -31 180
33 48 109 65 154 33z m305 1 c13 -13 16 -13 21 0 3 8 17 15 31 15 20 0 25 -4
22 -17 -3 -10 -13 -54 -22 -98 -24 -115 -24 -115 -51 -115 -13 0 -24 4 -24 9
0 5 -13 3 -29 -5 -41 -20 -76 -5 -91 40 -16 48 9 136 46 165 31 24 76 27 97 6z
m187 -2 c0 -15 1 -15 18 0 26 24 79 22 92 -3 l11 -20 21 20 c26 24 71 26 92 4
23 -22 21 -57 -9 -191 -4 -18 -12 -23 -35 -23 -35 0 -34 -3 -15 90 15 73 14
90 -9 90 -23 0 -39 -28 -56 -103 -16 -69 -18 -72 -48 -75 -18 -2 -32 -1 -32 1
0 3 7 40 16 82 16 79 12 101 -18 90 -20 -8 -34 -40 -49 -114 -13 -60 -14 -61
-47 -61 -27 0 -32 3 -28 18 2 9 12 53 21 97 9 44 19 88 22 98 6 23 53 23 53 0z
m386 0 c-2 -10 -12 -54 -21 -98 -25 -119 -23 -115 -56 -115 -16 0 -29 3 -29 8
0 4 10 55 22 115 l22 107 34 0 c27 0 32 -3 28 -17z m183 8 c8 -5 11 -16 7 -29
-6 -17 -13 -19 -46 -15 -52 7 -54 -16 -5 -46 31 -18 35 -25 35 -60 0 -50 -31
-74 -94 -74 -53 0 -66 7 -66 38 0 22 2 24 27 14 33 -12 73 -4 73 16 0 8 -13
21 -30 30 -54 28 -64 72 -25 110 18 19 35 25 67 25 24 0 49 -4 57 -9z m363 -8
c17 -15 18 -15 18 0 0 11 8 17 25 17 30 0 30 2 3 -127 -20 -95 -23 -103 -45
-103 -13 0 -23 4 -23 9 0 6 -15 4 -32 -3 -58 -24 -98 8 -98 78 0 104 92 183
152 129z m750 0 c20 -18 23 -54 8 -83 -11 -21 -60 -40 -101 -40 -35 0 -39 -24
-8 -40 15 -8 29 -8 51 -1 40 14 38 15 38 -14 0 -29 -36 -42 -107 -37 -81 6
-85 149 -7 211 33 26 100 28 126 4z m368 0 c0 -15 1 -15 18 0 26 24 79 22 92
-3 l11 -20 21 20 c26 24 71 26 92 4 23 -22 21 -57 -9 -191 -4 -18 -12 -23 -35
-23 -35 0 -34 -3 -15 90 15 73 14 90 -9 90 -23 0 -39 -28 -56 -103 -16 -69
-18 -72 -48 -75 -18 -2 -32 -1 -32 1 0 3 7 40 16 82 16 79 12 101 -18 90 -20
-8 -34 -40 -49 -114 -13 -60 -14 -61 -47 -61 -27 0 -32 3 -28 18 2 9 12 53 21
97 9 44 19 88 22 98 6 23 53 23 53 0z m439 5 c11 -10 14 -10 18 0 3 6 16 12
29 12 28 0 28 9 -4 -145 -16 -76 -18 -80 -46 -83 -18 -2 -26 0 -21 7 8 14 3
14 -30 -3 -29 -15 -49 -12 -77 12 -38 32 -11 172 39 201 25 14 76 13 92 -1z
m249 3 c8 -5 12 -17 10 -27 -3 -16 -11 -18 -46 -16 -52 4 -56 -14 -9 -43 66
-42 55 -114 -21 -134 -54 -15 -96 -1 -100 32 -3 25 -2 26 30 17 65 -19 93 14
39 46 -53 32 -61 96 -14 123 22 13 93 14 111 2z m4339 -43 c3 -7 -8 -2 -25 10
-17 13 -35 28 -39 34 -3 7 8 2 25 -10 17 -13 35 -28 39 -34z m-7 -24 c0 -3
-13 4 -30 16 -16 12 -30 24 -30 26 0 3 14 -4 30 -16 17 -12 30 -24 30 -26z
m60 -10 c0 -2 -9 0 -20 6 -11 6 -20 13 -20 16 0 2 9 0 20 -6 11 -6 20 -13 20
-16z m1090 7 c0 -14 -50 -71 -62 -71 -5 0 5 18 22 40 33 41 40 47 40 31z
m4350 -11 c0 -4 -9 -6 -21 -3 -15 4 -17 8 -8 14 14 8 29 3 29 -11z m-4430 -11
c0 -5 -4 -9 -8 -9 -5 0 -9 7 -9 15 0 8 4 12 9 9 4 -3 8 -9 8 -15z m4457 -47
c16 -21 34 -50 41 -66 7 -15 32 -54 55 -85 57 -74 99 -149 92 -161 -3 -5 -1
-18 5 -27 10 -16 11 -15 6 6 -4 21 -3 22 9 10 18 -19 85 -153 85 -171 0 -8 4
-18 8 -24 8 -8 32 -83 32 -98 0 -3 -4 -6 -8 -6 -9 0 -52 89 -52 106 0 6 -9 28
-21 50 -18 36 -20 37 -14 9 l6 -30 -21 25 c-11 14 -23 35 -26 48 -3 12 -10 22
-14 22 -5 0 -11 13 -15 30 -4 16 -15 36 -25 43 -21 15 -45 67 -30 67 5 0 11
-10 13 -22 4 -22 4 -21 6 2 1 17 -6 28 -21 35 -12 6 -39 44 -62 90 -23 44 -48
87 -56 95 -8 9 -25 34 -37 57 -21 38 -21 41 -4 36 11 -3 32 -21 48 -41z
m-4503 9 c4 -5 -3 -7 -14 -4 -12 3 -20 2 -18 -3 2 -5 0 -10 -4 -11 -5 -2 -8
-1 -8 2 0 3 0 10 0 15 0 12 37 13 44 1z m-3214 -121 c13 -59 34 -117 55 -152
36 -61 58 -126 85 -258 10 -47 27 -105 38 -130 12 -24 19 -47 16 -52 -7 -10
28 -48 44 -48 7 0 10 -5 7 -10 -3 -6 1 -13 9 -16 9 -3 16 -11 16 -17 0 -5 11
-24 24 -41 12 -17 33 -53 45 -81 26 -61 82 -145 96 -145 6 0 21 -14 34 -31 16
-20 31 -29 43 -26 10 3 16 1 12 -4 -3 -5 -2 -15 3 -21 12 -20 15 -40 16 -95 1
-50 8 -65 22 -43 12 19 25 10 25 -17 0 -16 10 -59 20 -98 11 -38 25 -94 30
-123 5 -29 12 -56 15 -61 3 -5 8 -36 11 -68 3 -32 10 -92 16 -133 6 -41 12
-106 14 -145 3 -67 5 -87 18 -180 14 -100 18 -132 22 -162 2 -18 11 -44 20
-58 9 -14 12 -25 5 -25 -12 0 -3 -31 13 -42 5 -3 11 -17 13 -30 4 -29 48 -150
74 -203 10 -22 19 -47 19 -56 0 -8 4 -19 9 -25 9 -8 22 -99 22 -147 0 -9 3
-16 7 -13 4 2 8 -10 9 -26 1 -17 8 -36 14 -44 6 -8 9 -23 6 -33 -3 -11 0 -22
7 -24 7 -3 4 -10 -8 -19 -11 -9 -20 -21 -22 -29 -6 -36 -13 -67 -23 -104 -14
-51 -3 -116 43 -272 19 -65 39 -135 44 -155 l10 -38 -514 0 -514 0 1 1808 c0
994 2 1803 4 1797 2 -5 13 -53 25 -105z m3264 85 c-6 -15 -75 -38 -99 -33 -11
2 -12 7 -4 18 8 11 12 12 16 2 2 -6 10 -9 16 -5 7 5 26 13 42 19 17 7 31 12
32 13 1 0 0 -6 -3 -14z m-6831 -57 c-19 -36 -35 -54 -50 -56 -28 -4 -28 0 -6
61 16 43 20 47 51 47 l33 0 -28 -52z m4451 -180 c-3 -56 -10 -93 -27 -153
l-11 -40 -6 45 c-6 53 4 122 26 168 8 17 17 32 18 32 2 0 2 -23 0 -52z m2796
9 c0 -11 -58 -66 -64 -60 -3 4 6 19 21 34 25 24 43 35 43 26z m-87 -87 c-3
-11 -7 -20 -9 -20 -2 0 -4 9 -4 20 0 11 4 20 9 20 5 0 7 -9 4 -20z m-11008
-10 c11 -17 -5 -49 -21 -43 -15 5 -44 -13 -44 -28 0 -5 9 -9 20 -9 15 0 20 -7
20 -25 0 -20 -5 -25 -25 -25 -14 0 -25 -2 -25 -3 0 -2 -11 -55 -25 -117 -29
-129 -48 -160 -102 -160 -28 0 -33 3 -33 24 0 17 7 26 24 30 21 5 27 17 40 73
29 130 30 151 10 155 -17 3 -17 6 7 28 14 14 31 40 38 58 8 18 21 37 30 42 21
13 78 13 86 0z m2102 -19 c-3 -16 -9 -42 -13 -57 -7 -26 -6 -28 9 -16 8 7 31
12 49 10 52 -5 61 -35 41 -141 l-17 -87 -34 0 c-23 0 -33 4 -29 13 10 27 30
157 24 163 -11 11 -44 -7 -55 -30 -6 -14 -17 -52 -23 -85 -13 -60 -14 -61 -47
-61 -27 0 -32 3 -28 18 3 9 17 73 31 142 34 168 31 160 67 160 28 0 30 -2 25
-29z m8880 4 c-4 -8 -11 -15 -17 -15 -6 0 -6 7 2 20 14 22 24 19 15 -5z
m-10235 -43 c-3 -18 2 -22 22 -22 21 0 26 -5 26 -24 0 -20 -6 -25 -32 -28 -29
-3 -33 -7 -40 -43 -4 -22 -10 -50 -13 -62 -5 -19 -1 -23 20 -23 20 0 25 -5 25
-24 0 -29 -42 -41 -80 -22 -21 9 -25 18 -25 51 1 22 4 59 9 82 6 35 5 42 -9
45 -14 2 -8 13 26 50 46 50 76 59 71 20z m10138 -16 c0 -3 -4 -8 -10 -11 -5
-3 -10 -1 -10 4 0 6 5 11 10 11 6 0 10 -2 10 -4z m-10810 -15 c0 -5 -7 -42
-15 -82 -11 -51 -12 -76 -5 -83 26 -26 61 35 85 147 4 22 11 27 35 27 17 0 30
-3 30 -7 0 -5 -10 -56 -22 -115 -20 -100 -24 -108 -45 -108 -15 0 -23 6 -23
17 0 14 -2 14 -20 -2 -27 -24 -79 -24 -96 0 -21 28 -19 61 11 193 4 17 12 22
35 22 17 0 30 -4 30 -9z m342 -8 c20 -18 23 -54 8 -83 -11 -21 -60 -40 -101
-40 -35 0 -39 -24 -8 -40 15 -8 29 -8 51 -1 40 14 38 15 38 -14 0 -29 -36 -42
-107 -37 -81 6 -85 149 -7 211 33 26 100 28 126 4z m128 1 c0 -14 2 -14 22 0
12 9 33 16 46 16 20 0 23 -4 18 -22 -3 -13 -6 -26 -6 -30 0 -5 -11 -8 -23 -8
-41 0 -55 -25 -81 -142 -5 -23 -12 -28 -36 -28 -17 0 -30 3 -30 8 0 4 10 55
22 115 20 99 24 107 45 107 14 0 23 -6 23 -16z m448 0 c54 -37 9 -112 -72
-121 -50 -6 -61 -24 -25 -43 15 -8 29 -8 51 -1 40 14 38 15 38 -14 0 -19 -7
-26 -27 -31 -16 -3 -33 -7 -40 -9 -6 -2 -28 1 -48 6 -64 18 -80 110 -31 180
33 48 109 65 154 33z m303 0 c11 -14 13 -14 21 0 5 9 20 16 34 16 20 0 23 -4
19 -22 -3 -13 -16 -77 -30 -143 -14 -66 -27 -130 -30 -142 -4 -18 -12 -23 -35
-23 -33 0 -34 5 -20 65 5 22 8 41 6 42 -2 2 -14 0 -27 -5 -64 -25 -101 44 -74
136 17 57 53 92 95 92 15 0 33 -7 41 -16z m199 9 c-1 -5 -7 -37 -15 -73 -19
-87 -19 -100 4 -100 28 0 42 24 61 103 16 69 18 72 48 75 18 2 32 0 32 -5 -1
-4 -11 -55 -24 -113 -22 -101 -23 -105 -51 -108 -21 -3 -26 0 -22 11 4 11 -2
10 -30 -4 -55 -28 -93 -7 -93 52 0 34 14 122 25 157 5 13 65 17 65 5z m340
-13 c11 -11 20 -27 20 -36 0 -43 -53 -84 -110 -84 -33 0 -40 -19 -16 -39 11
-9 25 -10 50 -2 34 9 36 8 36 -14 0 -31 -12 -37 -71 -38 -84 -1 -118 59 -84
149 29 77 127 112 175 64z m553 5 c13 -13 16 -13 21 0 3 8 17 15 31 15 20 0
25 -4 22 -17 -3 -10 -13 -54 -22 -98 -24 -115 -24 -115 -51 -115 -13 0 -24 4
-24 9 0 5 -13 3 -29 -5 -41 -20 -76 -5 -91 40 -16 48 9 136 46 165 31 24 76
27 97 6z m172 -62 l8 -76 35 76 c33 74 36 77 68 77 19 0 34 -3 34 -6 0 -21
-149 -280 -173 -300 -38 -32 -90 -30 -95 3 -3 17 3 22 24 25 15 2 35 14 45 28
16 23 16 31 4 105 -8 44 -14 95 -14 113 -1 29 2 32 28 32 29 0 29 0 36 -77z
m5725 -9 c-15 -66 -27 -53 -14 15 4 17 10 29 14 26 4 -3 4 -21 0 -41z m2600
-109 c0 -11 -19 -4 -41 15 l-24 21 33 -16 c17 -8 32 -18 32 -20z m-8122 4 c4
-21 -26 -51 -46 -47 -25 5 -38 34 -22 53 17 20 64 16 68 -6z m10282 -268 c0
-5 -6 -13 -13 -19 -10 -8 -13 -6 -13 9 0 10 6 19 13 19 7 0 13 -4 13 -9z m30
-44 c0 -5 -4 -5 -10 -2 -5 3 -10 14 -10 23 0 15 2 15 10 2 5 -8 10 -19 10 -23z
m80 -17 c0 -5 -4 -10 -10 -10 -5 0 -10 5 -10 10 0 6 5 10 10 10 6 0 10 -4 10
-10z m-12692 -128 c2 -95 0 -112 -13 -112 -13 0 -15 18 -15 116 0 88 3 115 13
112 8 -3 13 -38 15 -116z m1410 0 c2 -95 0 -112 -13 -112 -13 0 -15 18 -15
116 0 88 3 115 13 112 8 -3 13 -38 15 -116z m180 1 l3 -110 -53 -2 c-68 -1
-88 16 -88 79 0 61 24 85 75 77 l35 -6 0 40 c0 28 4 39 13 37 8 -3 13 -38 15
-115z m11129 88 c-1 -15 -4 -17 -18 -8 -19 12 -16 27 6 27 8 0 13 -8 12 -19z
m-13103 -73 c16 -43 32 -75 36 -73 5 3 20 39 35 80 21 57 32 75 46 75 17 0 19
-9 19 -105 0 -127 -18 -142 -22 -18 l-3 87 -33 -87 c-18 -48 -39 -87 -45 -87
-7 0 -27 37 -44 83 l-32 82 0 -82 c-1 -67 -4 -83 -16 -83 -12 0 -15 18 -15
106 0 104 0 105 22 102 18 -2 29 -19 52 -80z m1186 78 c0 -3 18 -50 39 -105
29 -75 36 -101 25 -101 -7 0 -20 16 -28 35 -14 32 -19 35 -55 35 -36 0 -40 -3
-51 -35 -7 -20 -18 -35 -27 -35 -8 0 -13 6 -10 13 61 154 81 197 93 197 8 0
14 -2 14 -4z m-892 -58 c15 -15 16 -148 2 -148 -5 0 -10 5 -10 12 0 9 -3 9
-12 0 -7 -7 -27 -12 -45 -12 -36 0 -58 27 -48 60 6 19 15 23 72 35 29 6 32 9
22 27 -9 16 -17 19 -45 13 -19 -3 -34 -2 -34 4 0 21 78 29 98 9z m242 -3 c0
-11 -7 -13 -29 -9 -24 5 -32 1 -46 -20 -33 -51 7 -113 60 -92 9 3 15 0 15 -9
0 -21 -68 -20 -92 2 -28 25 -25 107 4 127 29 21 88 21 88 1z m150 -5 c24 -24
27 -86 4 -118 -19 -27 -78 -30 -106 -5 -28 25 -25 107 4 127 31 22 74 20 98
-4z m171 9 c11 -6 20 -5 24 1 3 5 22 10 40 10 44 0 55 -20 55 -99 0 -48 -3
-61 -15 -61 -12 0 -15 14 -15 65 0 52 -4 67 -16 72 -33 12 -49 -11 -52 -76 -2
-45 -7 -61 -17 -61 -12 0 -15 15 -15 65 0 52 -4 67 -16 72 -33 12 -49 -11 -52
-76 -2 -45 -7 -61 -17 -61 -12 0 -15 16 -15 78 l0 77 47 2 c26 1 55 -3 64 -8z
m452 -1 c4 -10 7 -10 18 0 14 13 49 17 49 4 0 -4 -13 -13 -30 -19 -29 -11 -30
-14 -30 -72 0 -48 -3 -61 -15 -61 -12 0 -15 16 -15 80 0 72 10 102 23 68z
m222 -10 c20 -30 21 -138 0 -138 -10 0 -15 16 -17 61 -3 69 -22 94 -55 73 -13
-8 -19 -27 -21 -73 -2 -45 -7 -61 -17 -61 -12 0 -15 16 -15 78 l0 77 55 2 c46
2 56 -1 70 -19z m174 -4 c45 -57 15 -134 -52 -134 -45 0 -72 30 -72 80 0 76
80 110 124 54z m-1889 -54 c0 -5 -18 -10 -40 -10 -22 0 -40 5 -40 10 0 6 18
10 40 10 22 0 40 -4 40 -10z m12710 -60 c0 -5 -5 -10 -11 -10 -5 0 -7 5 -4 10
3 6 8 10 11 10 2 0 4 -4 4 -10z m1570 -170 c0 -11 -4 -20 -8 -20 -4 0 -8 9 -8
20 0 11 4 20 8 20 4 0 8 -9 8 -20z m187 -126 c-3 -3 -12 -4 -19 -1 -8 3 -5 6
6 6 11 1 17 -2 13 -5z m319 -76 c4 -7 3 -8 -4 -4 -8 4 -12 0 -12 -11 0 -15 -2
-15 -9 -3 -10 15 -6 30 9 30 5 0 12 -5 16 -12z m-54 -20 c-7 -7 -12 -8 -12 -2
0 14 12 26 19 19 2 -3 -1 -11 -7 -17z m204 -403 c1 -8 -2 -15 -7 -15 -5 0 -9
10 -9 22 0 23 12 17 16 -7z m-36 -75 c0 -5 -4 -10 -10 -10 -5 0 -10 5 -10 10
0 6 5 10 10 10 6 0 10 -4 10 -10z m-14 -31 c4 -8 9 -7 15 2 6 10 9 8 9 -7 0
-15 -6 -21 -17 -20 -18 1 -33 14 -33 29 0 11 18 8 26 -4z m84 -8 c0 -5 -7 -11
-14 -14 -10 -4 -13 -1 -9 9 6 15 23 19 23 5z m60 -236 c0 -5 -5 -3 -10 5 -5 8
-10 20 -10 25 0 6 5 3 10 -5 5 -8 10 -19 10 -25z m140 14 c0 -11 -21 -12 -45
-3 -12 5 -13 9 -5 14 15 9 50 1 50 -11z m-976 -571 c-5 -7 -3 -8 7 -2 13 8
182 14 174 6 -2 -3 2 -11 10 -19 24 -23 19 -104 -7 -143 -37 -53 -72 -74 -126
-74 -62 0 -110 28 -139 80 -27 47 -29 96 -6 135 14 24 24 29 56 29 26 0 36 -4
31 -12z m1214 -330 c-2 -7 2 -12 9 -11 21 4 23 -26 2 -38 -15 -8 -18 -14 -9
-24 6 -7 10 -17 9 -21 -1 -5 3 -22 9 -37 15 -35 15 -34 -1 -34 -7 0 -14 7 -15
16 -5 52 -11 66 -31 82 -18 15 -19 19 -7 19 19 0 22 16 4 22 -16 6 -2 38 17
38 8 0 14 -6 13 -12z"/>
<path d="M14740 6961 c0 -6 4 -13 10 -16 6 -3 7 1 4 9 -7 18 -14 21 -14 7z"/>
<path d="M14605 6861 c11 -5 24 -6 29 -3 5 3 20 -8 34 -24 14 -18 20 -21 13
-8 -14 29 -32 40 -66 42 -25 0 -26 -1 -10 -7z"/>
<path d="M14595 6787 c0 -18 5 -22 22 -19 20 4 20 5 5 23 -21 25 -27 24 -27
-4z"/>
<path d="M14781 6743 c7 -12 15 -20 18 -17 3 2 -3 12 -13 22 -17 16 -18 16 -5
-5z"/>
<path d="M14700 6740 c0 -5 7 -10 15 -10 9 0 18 -7 21 -15 7 -17 24 -21 24 -5
0 5 -13 16 -30 25 -17 9 -30 11 -30 5z"/>
<path d="M14632 6724 c10 -10 20 -15 24 -12 3 4 -5 12 -18 18 -22 12 -22 12
-6 -6z"/>
<path d="M7421 5946 c-16 -19 -31 -84 -24 -102 7 -19 38 -18 54 2 19 24 18
108 -2 112 -9 1 -21 -4 -28 -12z"/>
<path d="M2346 5941 c-26 -28 -33 -99 -12 -107 23 -9 53 21 60 60 12 61 -14
85 -48 47z"/>
<path d="M3851 5946 c-16 -19 -31 -84 -24 -102 7 -19 38 -18 54 2 19 24 18
108 -2 112 -9 1 -21 -4 -28 -12z"/>
<path d="M4210 5950 c-29 -29 -26 -44 7 -35 40 10 56 38 28 49 -9 3 -24 -3
-35 -14z"/>
<path d="M4752 5954 c-25 -17 -29 -44 -8 -44 8 0 24 8 36 18 19 15 20 20 8 30
-11 9 -19 8 -36 -4z"/>
<path d="M5206 5941 c-26 -28 -33 -99 -12 -107 23 -9 53 21 60 60 12 61 -14
85 -48 47z"/>
<path d="M5815 5930 c-20 -39 -20 -89 1 -97 24 -9 48 9 58 45 20 71 -27 114
-59 52z"/>
<path d="M6365 5936 c-10 -15 -15 -39 -13 -63 3 -33 6 -38 28 -38 21 0 27 7
39 44 10 31 11 49 4 60 -16 25 -40 24 -58 -3z"/>
<path d="M6935 5930 c-8 -16 -15 -45 -15 -65 0 -28 4 -35 19 -35 24 0 41 21
51 63 14 64 -27 92 -55 37z"/>
<path d="M7684 5960 c-20 -8 -39 -38 -30 -47 8 -8 58 10 63 24 8 21 -9 32 -33
23z"/>
<path d="M2331 5356 c-17 -20 -32 -78 -25 -98 8 -26 41 -22 59 6 34 51 2 136
-34 92z"/>
<path d="M3774 5345 c-9 -14 -17 -42 -18 -63 -1 -31 3 -37 22 -40 18 -3 26 4
38 33 30 72 -4 128 -42 70z"/>
<path d="M4351 5356 c-17 -20 -32 -78 -25 -98 8 -26 41 -22 59 6 34 51 2 136
-34 92z"/>
<path d="M4962 5364 c-25 -17 -29 -44 -8 -44 8 0 24 8 36 18 19 15 20 20 8 30
-11 9 -19 8 -36 -4z"/>
<path d="M5792 5364 c-25 -17 -29 -44 -8 -44 8 0 24 8 36 18 19 15 20 20 8 30
-11 9 -19 8 -36 -4z"/>
<path d="M6246 5351 c-26 -28 -33 -99 -12 -107 23 -9 53 21 60 60 12 61 -14
85 -48 47z"/>
<path d="M6590 5354 c-11 -29 -6 -44 16 -44 16 0 34 38 27 58 -9 21 -33 13
-43 -14z"/>
<path d="M6548 5183 c-28 -7 -30 -33 -3 -45 19 -8 31 -8 50 0 27 12 34 42 11
42 -8 0 -20 2 -28 4 -7 2 -20 2 -30 -1z"/>
<path d="M6844 5370 c-20 -8 -39 -38 -30 -47 8 -8 58 10 63 24 8 21 -9 32 -33
23z"/>
<path d="M7483 5354 c-15 -15 -23 -29 -17 -31 19 -6 64 16 64 31 0 27 -20 27
-47 0z"/>
<path d="M3914 4765 c-9 -14 -17 -42 -18 -63 -1 -31 3 -38 21 -40 16 -2 26 5
38 28 34 66 -2 134 -41 75z"/>
<path d="M5864 4765 c-9 -14 -17 -42 -18 -63 -1 -31 3 -38 21 -40 16 -2 26 5
38 28 34 66 -2 134 -41 75z"/>
<path d="M2730 4774 c-11 -29 -6 -44 16 -44 16 0 34 38 27 58 -9 21 -33 13
-43 -14z"/>
<path d="M2688 4603 c-28 -7 -30 -33 -3 -45 19 -8 31 -8 50 0 27 12 34 42 11
42 -8 0 -20 2 -28 4 -7 2 -20 2 -30 -1z"/>
<path d="M2970 4780 c-29 -29 -26 -44 7 -35 40 10 56 38 28 49 -9 3 -24 -3
-35 -14z"/>
<path d="M3555 4760 c-20 -39 -20 -89 1 -97 24 -9 48 9 58 45 20 71 -27 114
-59 52z"/>
<path d="M4170 4780 c-29 -29 -26 -44 7 -35 40 10 56 38 28 49 -9 3 -24 -3
-35 -14z"/>
<path d="M4506 4771 c-26 -28 -33 -99 -12 -107 23 -9 53 21 60 60 12 61 -14
85 -48 47z"/>
<path d="M5621 4776 c-16 -19 -31 -84 -24 -102 7 -19 38 -18 54 2 19 24 18
108 -2 112 -9 1 -21 -4 -28 -12z"/>
<path d="M6354 4790 c-20 -8 -39 -38 -30 -47 8 -8 58 10 63 24 8 21 -9 32 -33
23z"/>
<path d="M7174 4765 c-9 -14 -17 -42 -18 -63 -1 -31 3 -37 22 -40 18 -3 26 4
38 33 30 72 -4 128 -42 70z"/>
<path d="M2554 4210 c-20 -8 -39 -38 -30 -47 8 -8 58 10 63 24 8 21 -9 32 -33
23z"/>
<path d="M3120 4200 c-29 -29 -26 -44 7 -35 40 10 56 38 28 49 -9 3 -24 -3
-35 -14z"/>
<path d="M3455 4190 c-11 -12 -19 -37 -19 -63 -1 -35 2 -42 20 -45 16 -2 25 6
38 31 34 73 6 127 -39 77z"/>
<path d="M3962 4204 c-25 -17 -29 -44 -8 -44 8 0 24 8 36 18 19 15 20 20 8 30
-11 9 -19 8 -36 -4z"/>
<path d="M4546 4191 c-26 -28 -33 -99 -12 -107 23 -9 53 21 60 60 12 61 -14
85 -48 47z"/>
<path d="M4173 3632 c-36 -23 -20 -112 20 -112 31 0 47 18 47 53 0 54 -31 82
-67 59z"/>
<path d="M3448 3634 c-16 -39 -16 -39 9 -42 35 -5 38 2 21 44 l-15 37 -15 -39z"/>
<path d="M2530 3571 c-38 -10 -34 -46 5 -46 25 0 30 4 33 28 3 28 2 29 -38 18z"/>
<path d="M2894 3615 c-24 -37 -8 -89 27 -93 32 -4 52 19 51 59 -2 59 -48 79
-78 34z"/>
<path d="M3916 3624 c-32 -31 -13 -104 27 -104 33 0 47 19 47 60 0 56 -39 79
-74 44z"/>
<path d="M14430 9070 c8 -5 20 -10 25 -10 6 0 3 5 -5 10 -8 5 -19 10 -25 10
-5 0 -3 -5 5 -10z"/>
<path d="M11381 8094 c0 -11 3 -14 6 -6 3 7 2 16 -1 19 -3 4 -6 -2 -5 -13z"/>
<path d="M15660 8015 c7 -9 15 -13 17 -11 7 7 -7 26 -19 26 -6 0 -6 -6 2 -15z"/>
<path d="M12142 7745 c0 -16 2 -22 5 -12 2 9 2 23 0 30 -3 6 -5 -1 -5 -18z"/>
<path d="M15931 7668 c17 -29 36 -65 42 -80 14 -35 30 -37 17 -2 -11 28 -79
134 -86 134 -3 0 10 -24 27 -52z"/>
<path d="M11754 7634 c-18 -14 -18 -15 4 -4 12 6 22 13 22 15 0 8 -5 6 -26
-11z"/>
<path d="M11728 7583 c7 -3 16 -2 19 1 4 3 -2 6 -13 5 -11 0 -14 -3 -6 -6z"/>
<path d="M16000 7544 c1 -22 38 -76 44 -66 4 7 2 20 -3 30 -12 22 -41 48 -41
36z"/>
<path d="M16046 7447 c3 -10 9 -15 12 -12 3 3 0 11 -7 18 -10 9 -11 8 -5 -6z"/>
<path d="M12073 7415 c0 -8 4 -12 9 -9 5 3 6 10 3 15 -9 13 -12 11 -12 -6z"/>
<path d="M16064 7405 c11 -47 18 -65 27 -65 13 0 11 11 -12 50 -11 19 -18 26
-15 15z"/>
<path d="M11970 7301 c0 -6 4 -13 10 -16 6 -3 7 1 4 9 -7 18 -14 21 -14 7z"/>
<path d="M11911 7164 c0 -11 3 -14 6 -6 3 7 2 16 -1 19 -3 4 -6 -2 -5 -13z"/>
<path d="M11725 7070 c3 -6 1 -10 -6 -10 -8 0 -8 -4 1 -15 11 -13 15 -13 21
-3 12 19 11 25 -7 32 -8 3 -12 2 -9 -4z"/>
<path d="M11652 7038 c2 -6 13 -16 24 -22 10 -6 23 -15 27 -21 5 -6 7 -3 4 7
-3 9 -1 19 6 22 7 3 -1 2 -17 -1 -19 -4 -27 -2 -23 4 4 6 0 14 -9 17 -10 4
-14 1 -12 -6z"/>
<path d="M11624 6929 c-4 -7 -3 -9 4 -5 5 3 13 0 15 -6 4 -9 6 -10 6 -1 1 17
-16 25 -25 12z"/>
<path d="M11651 6874 c0 -11 3 -14 6 -6 3 7 2 16 -1 19 -3 4 -6 -2 -5 -13z"/>
<path d="M11785 6620 c-3 -5 -1 -10 4 -10 6 0 11 5 11 10 0 6 -2 10 -4 10 -3
0 -8 -4 -11 -10z"/>
<path d="M17020 5708 c0 -9 5 -20 10 -23 13 -8 13 5 0 25 -8 13 -10 13 -10 -2z"/>
<path d="M16980 5684 c0 -5 6 -19 14 -30 8 -11 18 -35 23 -54 5 -18 15 -36 22
-38 20 -7 7 39 -25 85 -30 45 -34 49 -34 37z"/>
<path d="M17042 5467 c1 -41 4 -63 9 -55 11 16 10 64 -1 98 -6 18 -8 5 -8 -43z"/>
<path d="M17040 5361 c0 -5 5 -13 10 -16 6 -3 10 -2 10 4 0 5 -4 13 -10 16 -5
3 -10 2 -10 -4z"/>
<path d="M17520 4533 c0 -4 5 -15 10 -23 8 -13 10 -13 10 2 0 9 -4 20 -10 23
-5 3 -10 3 -10 -2z"/>
<path d="M17560 4466 c0 -8 4 -17 9 -20 5 -4 7 3 4 14 -6 23 -13 26 -13 6z"/>
<path d="M17595 4390 c3 -5 8 -10 11 -10 2 0 4 5 4 10 0 6 -5 10 -11 10 -5 0
-7 -4 -4 -10z"/>
<path d="M17700 4241 c0 -6 4 -13 10 -16 6 -3 7 1 4 9 -7 18 -14 21 -14 7z"/>
<path d="M17740 4180 c6 -11 13 -20 16 -20 2 0 0 9 -6 20 -6 11 -13 20 -16 20
-2 0 0 -9 6 -20z"/>
<path d="M17783 4100 c11 -27 23 -48 25 -46 4 5 -35 96 -42 96 -2 0 5 -22 17
-50z"/>
<path d="M16218 4033 c7 -3 16 -2 19 1 4 3 -2 6 -13 5 -11 0 -14 -3 -6 -6z"/>
<path d="M17930 3752 c0 -15 42 -133 46 -129 5 4 -36 137 -42 137 -2 0 -4 -4
-4 -8z"/>
<path d="M16465 3330 c3 -5 11 -10 16 -10 6 0 7 5 4 10 -3 6 -11 10 -16 10 -6
0 -7 -4 -4 -10z"/>
<path d="M18115 3294 c8 -20 12 -40 9 -45 -3 -5 0 -9 6 -9 6 0 8 -5 4 -12 -4
-6 -3 -8 4 -5 6 4 26 -20 47 -58 20 -36 38 -65 40 -65 2 0 -11 31 -29 69 -58
122 -119 215 -81 125z"/>
<path d="M14546 3294 c-5 -12 -2 -15 10 -10 8 3 18 6 20 6 3 0 2 5 -1 10 -9
15 -22 12 -29 -6z"/>
<path d="M16550 3290 c6 -11 16 -20 22 -20 6 0 3 9 -7 20 -10 11 -20 20 -22
20 -2 0 1 -9 7 -20z"/>
<path d="M17183 3199 c-26 -7 -31 -14 -28 -34 1 -14 6 -29 10 -33 4 -4 4 3 1
15 -10 30 8 37 24 8 8 -14 19 -22 29 -19 9 3 6 -1 -5 -8 -19 -11 -20 -15 -8
-26 8 -7 14 -9 14 -4 0 5 14 15 30 22 29 12 41 30 19 30 -6 0 -9 7 -6 15 4 8
1 17 -5 21 -7 4 -8 3 -4 -4 10 -17 -19 -15 -33 1 -6 8 -8 17 -4 20 7 8 8 8
-34 -4z"/>
<path d="M16920 3193 c0 -4 5 -15 10 -23 8 -13 10 -13 10 2 0 9 -4 20 -10 23
-5 3 -10 3 -10 -2z"/>
<path d="M17022 3170 c7 -11 16 -20 20 -20 5 0 3 9 -4 20 -7 11 -16 20 -20 20
-5 0 -3 -9 4 -20z"/>
<path d="M17088 3173 c12 -8 23 -25 23 -37 1 -18 2 -18 6 -3 5 20 -23 57 -41
56 -6 0 -1 -7 12 -16z"/>
<path d="M17297 3150 c-3 -11 -1 -23 4 -26 5 -3 9 6 9 20 0 31 -6 34 -13 6z"/>
<path d="M17050 3130 c0 -5 5 -10 11 -10 5 0 7 5 4 10 -3 6 -8 10 -11 10 -2 0
-4 -4 -4 -10z"/>
<path d="M16900 3100 c0 -5 5 -10 11 -10 5 0 7 5 4 10 -3 6 -8 10 -11 10 -2 0
-4 -4 -4 -10z"/>
<path d="M17117 3103 c-4 -3 -7 -11 -7 -16 0 -6 3 -7 7 -4 3 4 12 2 20 -4 8
-7 13 -8 13 -1 0 14 -25 33 -33 25z"/>
<path d="M17239 3103 c-1 -5 -1 -11 -1 -14 1 -3 -16 -13 -38 -23 -21 -9 -51
-30 -67 -45 -27 -28 -28 -28 -47 -10 -18 18 -13 25 16 20 4 0 4 7 1 16 -5 11
-8 13 -11 4 -3 -9 -7 -8 -16 4 -9 13 -11 10 -13 -15 -1 -16 2 -30 7 -30 6 0
10 -6 10 -14 0 -8 5 -16 10 -18 7 -2 6 -14 -2 -35 -11 -29 -13 -30 -26 -15
-12 15 -13 15 -9 -5 3 -13 -1 -24 -10 -27 -8 -3 -12 -10 -8 -15 3 -6 12 -8 20
-4 12 4 15 -4 15 -34 0 -24 10 -57 25 -84 14 -24 28 -51 31 -59 11 -29 109
-70 167 -70 98 0 160 35 209 118 50 84 31 216 -40 279 -41 38 -109 65 -163 66
-26 0 -46 4 -43 9 3 4 0 8 -5 8 -6 0 -12 -3 -12 -7z"/>
<path d="M17016 3008 c6 -20 5 -21 -10 -9 -14 12 -16 12 -10 -3 3 -9 1 -16 -5
-16 -6 0 -11 -3 -11 -7 0 -5 14 -8 31 -8 25 0 29 3 25 20 -3 11 -6 26 -6 33 0
6 -5 12 -11 12 -6 0 -8 -9 -3 -22z"/>
<path d="M16990 2925 c0 -8 4 -15 10 -15 5 0 7 7 4 15 -4 8 -8 15 -10 15 -2 0
-4 -7 -4 -15z"/>
<path d="M18323 2910 c25 -64 82 -189 85 -182 3 11 -56 151 -75 177 -9 11 -13
13 -10 5z"/>
<path d="M17004 2803 c4 -8 2 -13 -6 -13 -8 0 -6 -5 5 -11 26 -15 34 -2 12 19
-10 9 -15 11 -11 5z"/>
<path d="M18654 2750 c-11 -4 -33 -22 -47 -40 -21 -25 -27 -42 -27 -78 1 -56
16 -86 56 -113 33 -22 97 -25 134 -6 36 18 70 74 70 116 0 92 -99 157 -186
121z"/>
<path d="M17167 2639 c7 -7 15 -10 18 -7 3 3 -2 9 -12 12 -14 6 -15 5 -6 -5z"/>
<path d="M14550 2621 c0 -18 18 -21 30 -6 10 13 9 15 -9 15 -11 0 -21 -4 -21
-9z"/>
<path d="M18392 2470 c0 -14 2 -19 5 -12 2 6 2 18 0 25 -3 6 -5 1 -5 -13z"/>
<path d="M17250 2471 c0 -6 4 -13 10 -16 6 -3 7 1 4 9 -7 18 -14 21 -14 7z"/>
<path d="M18411 2463 c-1 -12 4 -25 9 -28 6 -3 10 -20 10 -37 0 -21 6 -31 19
-35 11 -3 22 -12 24 -22 3 -11 5 -9 6 7 0 12 -3 22 -8 22 -5 0 -15 15 -23 33
-8 17 -20 43 -26 57 -10 24 -11 24 -11 3z"/>
<path d="M17718 2454 c-38 -20 -61 -68 -53 -110 8 -45 45 -83 81 -85 50 -3 62
0 92 26 96 81 -10 229 -120 169z"/>
<path d="M18490 2276 c0 -15 4 -24 10 -21 5 3 12 -6 16 -20 3 -14 10 -25 15
-25 13 0 12 5 -12 47 -28 50 -29 51 -29 19z"/>
<path d="M14225 2159 c-52 -15 -102 -65 -120 -119 -9 -27 -15 -58 -13 -67 4
-19 5 -20 74 -22 25 0 43 -5 40 -9 -3 -5 1 -9 9 -9 8 0 12 3 10 6 -2 4 16 7
40 7 24 0 42 -3 40 -6 -2 -3 12 -6 30 -6 18 0 32 3 29 7 -2 4 4 6 13 4 10 -2
18 -4 18 -5 0 -1 17 -3 38 -4 l37 -2 0 43 c0 58 -20 102 -63 140 -54 47 -116
62 -182 42z"/>
<path d="M17450 2111 c0 -5 5 -13 10 -16 6 -3 10 -2 10 4 0 5 -4 13 -10 16 -5
3 -10 2 -10 -4z"/>
<path d="M17420 2021 c0 -6 4 -13 10 -16 6 -3 7 1 4 9 -7 18 -14 21 -14 7z"/>
<path d="M17450 2018 c0 -7 5 -20 10 -28 8 -12 10 -11 10 7 0 12 -4 25 -10 28
-5 3 -10 0 -10 -7z"/>
<path d="M17723 1985 c-47 -20 -63 -60 -63 -155 0 -79 0 -80 26 -80 14 0 23
-4 20 -8 -3 -5 1 -9 9 -9 8 0 12 3 10 6 -2 4 16 7 40 7 24 0 42 -3 40 -6 -2
-3 11 -6 29 -6 18 0 33 5 34 11 0 5 1 47 2 93 2 95 -11 125 -65 148 -41 17
-42 17 -82 -1z"/>
<path d="M17470 1890 c-8 -5 -12 -11 -9 -14 2 -3 11 -1 19 4 8 5 12 11 9 14
-2 3 -11 1 -19 -4z"/>
<path d="M17477 1843 c-4 -3 -7 -11 -7 -17 0 -6 5 -5 12 2 6 6 9 14 7 17 -3 3
-9 2 -12 -2z"/>
<path d="M17517 1816 c-4 -10 -1 -13 8 -9 8 3 12 9 9 14 -7 12 -11 11 -17 -5z"/>
<path d="M14508 1792 c3 -10 1 -13 -6 -8 -18 11 -25 -43 -23 -174 1 -44 1 -44
17 -21 41 57 55 218 19 218 -7 0 -11 -7 -7 -15z"/>
<path d="M17431 1781 c-7 -5 -10 -14 -7 -20 4 -6 12 -9 17 -5 5 3 6 10 3 16
-4 7 -2 8 4 4 7 -4 15 -21 20 -38 4 -17 18 -38 30 -46 28 -19 28 -9 0 17 -13
13 -21 33 -21 51 0 31 -17 39 -46 21z"/>
<path d="M17515 1760 c3 -5 8 -10 11 -10 2 0 4 5 4 10 0 6 -5 10 -11 10 -5 0
-7 -4 -4 -10z"/>
<path d="M17565 1669 c-4 -6 -5 -12 -2 -15 2 -3 7 2 10 11 7 17 1 20 -8 4z"/>
<path d="M17520 1646 c0 -9 5 -16 10 -16 6 0 10 4 10 9 0 6 -4 13 -10 16 -5 3
-10 -1 -10 -9z"/>
<path d="M17463 1612 c0 -26 23 -56 32 -41 5 7 1 17 -8 24 -9 7 -14 14 -11 17
3 4 1 8 -4 12 -5 3 -9 -3 -9 -12z"/>
<path d="M17542 1569 c2 -7 10 -15 17 -17 8 -3 12 1 9 9 -2 7 -10 15 -17 17
-8 3 -12 -1 -9 -9z"/>
<path d="M17635 1360 c3 -5 8 -10 11 -10 2 0 4 5 4 10 0 6 -5 10 -11 10 -5 0
-7 -4 -4 -10z"/>
<path d="M17651 1314 c0 -11 3 -14 6 -6 3 7 2 16 -1 19 -3 4 -6 -2 -5 -13z"/>
<path d="M13554 1058 c3 -13 6 -191 6 -397 l0 -374 23 34 c43 63 128 61 168
-5 19 -31 19 -27 19 367 l0 397 -111 0 c-111 0 -111 0 -105 -22z"/>
<path d="M18911 1023 c1 -49 2 -54 9 -29 5 16 21 42 36 57 l28 29 -37 0 -37 0
1 -57z"/>
<path d="M19135 1062 c52 -43 50 -21 55 -561 l5 -506 3 543 2 542 -42 0 c-42
0 -43 -1 -23 -18z"/>
</g>
</svg>
