<svg xmlns="http://www.w3.org/2000/svg" xmlns:xlink="http://www.w3.org/1999/xlink" width="500" zoomAndPan="magnify" viewBox="0 0 375 374.999991" height="500" preserveAspectRatio="xMidYMid meet" version="1.0"><defs><g/><clipPath id="id1"><path d="M 287 92.878906 L 367.226562 92.878906 L 367.226562 214.378906 L 287 214.378906 Z M 287 92.878906 " clip-rule="nonzero"/></clipPath><clipPath id="id2"><path d="M 340.746094 93.738281 C 340.015625 93.195312 339.113281 92.878906 338.140625 92.878906 C 335.710938 92.878906 333.726562 94.863281 333.726562 97.285156 L 333.726562 134.277344 L 327.105469 134.277344 C 305.011719 134.277344 287.027344 152.25 287.027344 174.324219 C 287.027344 196.398438 305.011719 214.378906 327.105469 214.378906 C 349.199219 214.378906 367.191406 196.40625 367.191406 174.324219 L 367.191406 158.894531 L 358.363281 158.894531 L 358.363281 174.324219 C 358.363281 191.535156 344.332031 205.558594 327.105469 205.558594 C 309.886719 205.558594 295.851562 191.535156 295.851562 174.324219 C 295.851562 157.121094 309.886719 143.097656 327.105469 143.097656 L 333.726562 143.097656 L 333.726562 158.898438 L 327.105469 158.898438 C 318.613281 158.898438 311.664062 165.84375 311.664062 174.332031 C 311.664062 182.816406 318.613281 189.769531 327.105469 189.769531 C 335.601562 189.769531 342.550781 182.824219 342.550781 174.332031 L 342.550781 173.71875 C 342.550781 155.632812 342.550781 137.546875 342.550781 119.457031 C 355.601562 117.894531 360.785156 130.261719 358.117188 156.566406 C 366.828125 143.875 369.738281 126.339844 355.617188 112.277344 C 353.378906 110.046875 351.023438 107.875 348.875 105.660156 C 345.660156 102.351562 341.636719 94.394531 340.746094 93.738281 Z M 340.746094 93.738281 " clip-rule="evenodd"/></clipPath><linearGradient x1="209.444351" gradientTransform="matrix(0.537922, 0, 0, 0.537492, 287.020138, 92.879488)" y1="110.564308" x2="-0.492018" gradientUnits="userSpaceOnUse" y2="225.130092" xlink:type="simple" xlink:actuate="onLoad" id="id3" xlink:show="other"><stop stop-opacity="1" stop-color="rgb(99.443054%, 18.385315%, 39.057922%)" offset="0"/><stop stop-opacity="1" stop-color="rgb(99.072266%, 18.640137%, 39.230347%)" offset="0.00390625"/><stop stop-opacity="1" stop-color="rgb(98.703003%, 18.896484%, 39.402771%)" offset="0.0078125"/><stop stop-opacity="1" stop-color="rgb(98.33374%, 19.152832%, 39.573669%)" offset="0.0117188"/><stop stop-opacity="1" stop-color="rgb(97.964478%, 19.40918%, 39.746094%)" offset="0.015625"/><stop stop-opacity="1" stop-color="rgb(97.593689%, 19.664001%, 39.918518%)" offset="0.0195312"/><stop stop-opacity="1" stop-color="rgb(97.224426%, 19.920349%, 40.090942%)" offset="0.0234375"/><stop stop-opacity="1" stop-color="rgb(96.855164%, 20.175171%, 40.261841%)" offset="0.0273438"/><stop stop-opacity="1" stop-color="rgb(96.485901%, 20.431519%, 40.434265%)" offset="0.03125"/><stop stop-opacity="1" stop-color="rgb(96.116638%, 20.687866%, 40.606689%)" offset="0.0351562"/><stop stop-opacity="1" stop-color="rgb(95.747375%, 20.944214%, 40.779114%)" offset="0.0390625"/><stop stop-opacity="1" stop-color="rgb(95.376587%, 21.199036%, 40.950012%)" offset="0.0429688"/><stop stop-opacity="1" stop-color="rgb(95.007324%, 21.455383%, 41.122437%)" offset="0.046875"/><stop stop-opacity="1" stop-color="rgb(94.638062%, 21.711731%, 41.293335%)" offset="0.0507813"/><stop stop-opacity="1" stop-color="rgb(94.268799%, 21.968079%, 41.465759%)" offset="0.0546875"/><stop stop-opacity="1" stop-color="rgb(93.89801%, 22.2229%, 41.638184%)" offset="0.0585938"/><stop stop-opacity="1" stop-color="rgb(93.528748%, 22.479248%, 41.810608%)" offset="0.0625"/><stop stop-opacity="1" stop-color="rgb(93.159485%, 22.735596%, 41.981506%)" offset="0.0664062"/><stop stop-opacity="1" stop-color="rgb(92.790222%, 22.991943%, 42.153931%)" offset="0.0703125"/><stop stop-opacity="1" stop-color="rgb(92.420959%, 23.246765%, 42.326355%)" offset="0.0742188"/><stop stop-opacity="1" stop-color="rgb(92.051697%, 23.503113%, 42.498779%)" offset="0.078125"/><stop stop-opacity="1" stop-color="rgb(91.680908%, 23.757935%, 42.669678%)" offset="0.0820312"/><stop stop-opacity="1" stop-color="rgb(91.311646%, 24.014282%, 42.842102%)" offset="0.0859375"/><stop stop-opacity="1" stop-color="rgb(90.942383%, 24.27063%, 43.014526%)" offset="0.0898438"/><stop stop-opacity="1" stop-color="rgb(90.57312%, 24.526978%, 43.186951%)" offset="0.09375"/><stop stop-opacity="1" stop-color="rgb(90.202332%, 24.781799%, 43.357849%)" offset="0.0976563"/><stop stop-opacity="1" stop-color="rgb(89.833069%, 25.038147%, 43.530273%)" offset="0.101563"/><stop stop-opacity="1" stop-color="rgb(89.463806%, 25.294495%, 43.702698%)" offset="0.105469"/><stop stop-opacity="1" stop-color="rgb(89.094543%, 25.550842%, 43.875122%)" offset="0.109375"/><stop stop-opacity="1" stop-color="rgb(88.725281%, 25.805664%, 44.046021%)" offset="0.113281"/><stop stop-opacity="1" stop-color="rgb(88.356018%, 26.062012%, 44.218445%)" offset="0.117188"/><stop stop-opacity="1" stop-color="rgb(87.985229%, 26.318359%, 44.390869%)" offset="0.121094"/><stop stop-opacity="1" stop-color="rgb(87.615967%, 26.574707%, 44.563293%)" offset="0.125"/><stop stop-opacity="1" stop-color="rgb(87.246704%, 26.829529%, 44.734192%)" offset="0.128906"/><stop stop-opacity="1" stop-color="rgb(86.877441%, 27.085876%, 44.906616%)" offset="0.132812"/><stop stop-opacity="1" stop-color="rgb(86.506653%, 27.340698%, 45.077515%)" offset="0.136719"/><stop stop-opacity="1" stop-color="rgb(86.13739%, 27.597046%, 45.249939%)" offset="0.140625"/><stop stop-opacity="1" stop-color="rgb(85.768127%, 27.853394%, 45.422363%)" offset="0.144531"/><stop stop-opacity="1" stop-color="rgb(85.398865%, 28.109741%, 45.594788%)" offset="0.148437"/><stop stop-opacity="1" stop-color="rgb(85.029602%, 28.364563%, 45.765686%)" offset="0.152344"/><stop stop-opacity="1" stop-color="rgb(84.660339%, 28.620911%, 45.93811%)" offset="0.15625"/><stop stop-opacity="1" stop-color="rgb(84.289551%, 28.877258%, 46.110535%)" offset="0.160156"/><stop stop-opacity="1" stop-color="rgb(83.920288%, 29.133606%, 46.282959%)" offset="0.164062"/><stop stop-opacity="1" stop-color="rgb(83.551025%, 29.388428%, 46.453857%)" offset="0.167969"/><stop stop-opacity="1" stop-color="rgb(83.181763%, 29.644775%, 46.626282%)" offset="0.171875"/><stop stop-opacity="1" stop-color="rgb(82.810974%, 29.901123%, 46.798706%)" offset="0.175781"/><stop stop-opacity="1" stop-color="rgb(82.441711%, 30.157471%, 46.97113%)" offset="0.179687"/><stop stop-opacity="1" stop-color="rgb(82.072449%, 30.412292%, 47.142029%)" offset="0.183594"/><stop stop-opacity="1" stop-color="rgb(81.703186%, 30.66864%, 47.314453%)" offset="0.1875"/><stop stop-opacity="1" stop-color="rgb(81.333923%, 30.923462%, 47.486877%)" offset="0.191406"/><stop stop-opacity="1" stop-color="rgb(80.964661%, 31.17981%, 47.659302%)" offset="0.195312"/><stop stop-opacity="1" stop-color="rgb(80.593872%, 31.436157%, 47.8302%)" offset="0.199219"/><stop stop-opacity="1" stop-color="rgb(80.224609%, 31.692505%, 48.002625%)" offset="0.203125"/><stop stop-opacity="1" stop-color="rgb(79.855347%, 31.947327%, 48.175049%)" offset="0.207031"/><stop stop-opacity="1" stop-color="rgb(79.486084%, 32.203674%, 48.347473%)" offset="0.210938"/><stop stop-opacity="1" stop-color="rgb(79.115295%, 32.460022%, 48.518372%)" offset="0.214844"/><stop stop-opacity="1" stop-color="rgb(78.746033%, 32.71637%, 48.690796%)" offset="0.21875"/><stop stop-opacity="1" stop-color="rgb(78.37677%, 32.971191%, 48.861694%)" offset="0.222656"/><stop stop-opacity="1" stop-color="rgb(78.007507%, 33.227539%, 49.034119%)" offset="0.226562"/><stop stop-opacity="1" stop-color="rgb(77.638245%, 33.483887%, 49.206543%)" offset="0.230469"/><stop stop-opacity="1" stop-color="rgb(77.268982%, 33.740234%, 49.378967%)" offset="0.234375"/><stop stop-opacity="1" stop-color="rgb(76.898193%, 33.995056%, 49.549866%)" offset="0.238281"/><stop stop-opacity="1" stop-color="rgb(76.528931%, 34.251404%, 49.72229%)" offset="0.242188"/><stop stop-opacity="1" stop-color="rgb(76.159668%, 34.506226%, 49.894714%)" offset="0.246094"/><stop stop-opacity="1" stop-color="rgb(75.790405%, 34.762573%, 50.067139%)" offset="0.25"/><stop stop-opacity="1" stop-color="rgb(75.419617%, 35.018921%, 50.238037%)" offset="0.253906"/><stop stop-opacity="1" stop-color="rgb(75.050354%, 35.275269%, 50.410461%)" offset="0.257812"/><stop stop-opacity="1" stop-color="rgb(74.681091%, 35.53009%, 50.582886%)" offset="0.261719"/><stop stop-opacity="1" stop-color="rgb(74.311829%, 35.786438%, 50.75531%)" offset="0.265625"/><stop stop-opacity="1" stop-color="rgb(73.942566%, 36.042786%, 50.926208%)" offset="0.269531"/><stop stop-opacity="1" stop-color="rgb(73.573303%, 36.299133%, 51.098633%)" offset="0.273437"/><stop stop-opacity="1" stop-color="rgb(73.202515%, 36.553955%, 51.271057%)" offset="0.277344"/><stop stop-opacity="1" stop-color="rgb(72.833252%, 36.810303%, 51.443481%)" offset="0.28125"/><stop stop-opacity="1" stop-color="rgb(72.463989%, 37.06665%, 51.61438%)" offset="0.285156"/><stop stop-opacity="1" stop-color="rgb(72.094727%, 37.322998%, 51.786804%)" offset="0.289062"/><stop stop-opacity="1" stop-color="rgb(71.723938%, 37.57782%, 51.959229%)" offset="0.292969"/><stop stop-opacity="1" stop-color="rgb(71.354675%, 37.834167%, 52.131653%)" offset="0.296875"/><stop stop-opacity="1" stop-color="rgb(70.985413%, 38.088989%, 52.302551%)" offset="0.300781"/><stop stop-opacity="1" stop-color="rgb(70.61615%, 38.345337%, 52.474976%)" offset="0.304687"/><stop stop-opacity="1" stop-color="rgb(70.246887%, 38.601685%, 52.645874%)" offset="0.308594"/><stop stop-opacity="1" stop-color="rgb(69.877625%, 38.858032%, 52.818298%)" offset="0.3125"/><stop stop-opacity="1" stop-color="rgb(69.506836%, 39.112854%, 52.990723%)" offset="0.316406"/><stop stop-opacity="1" stop-color="rgb(69.137573%, 39.369202%, 53.163147%)" offset="0.320312"/><stop stop-opacity="1" stop-color="rgb(68.768311%, 39.625549%, 53.334045%)" offset="0.324219"/><stop stop-opacity="1" stop-color="rgb(68.399048%, 39.881897%, 53.50647%)" offset="0.328125"/><stop stop-opacity="1" stop-color="rgb(68.028259%, 40.136719%, 53.678894%)" offset="0.332031"/><stop stop-opacity="1" stop-color="rgb(67.658997%, 40.393066%, 53.851318%)" offset="0.335937"/><stop stop-opacity="1" stop-color="rgb(67.289734%, 40.649414%, 54.022217%)" offset="0.339844"/><stop stop-opacity="1" stop-color="rgb(66.920471%, 40.905762%, 54.194641%)" offset="0.34375"/><stop stop-opacity="1" stop-color="rgb(66.551208%, 41.160583%, 54.367065%)" offset="0.347656"/><stop stop-opacity="1" stop-color="rgb(66.181946%, 41.416931%, 54.53949%)" offset="0.351562"/><stop stop-opacity="1" stop-color="rgb(65.811157%, 41.671753%, 54.710388%)" offset="0.355469"/><stop stop-opacity="1" stop-color="rgb(65.441895%, 41.928101%, 54.882812%)" offset="0.359375"/><stop stop-opacity="1" stop-color="rgb(65.072632%, 42.184448%, 55.055237%)" offset="0.363281"/><stop stop-opacity="1" stop-color="rgb(64.703369%, 42.440796%, 55.227661%)" offset="0.367187"/><stop stop-opacity="1" stop-color="rgb(64.332581%, 42.695618%, 55.39856%)" offset="0.371094"/><stop stop-opacity="1" stop-color="rgb(63.963318%, 42.951965%, 55.570984%)" offset="0.375"/><stop stop-opacity="1" stop-color="rgb(63.594055%, 43.208313%, 55.741882%)" offset="0.378906"/><stop stop-opacity="1" stop-color="rgb(63.224792%, 43.464661%, 55.914307%)" offset="0.382812"/><stop stop-opacity="1" stop-color="rgb(62.85553%, 43.719482%, 56.086731%)" offset="0.386719"/><stop stop-opacity="1" stop-color="rgb(62.486267%, 43.97583%, 56.259155%)" offset="0.390625"/><stop stop-opacity="1" stop-color="rgb(62.115479%, 44.232178%, 56.430054%)" offset="0.394531"/><stop stop-opacity="1" stop-color="rgb(61.746216%, 44.488525%, 56.602478%)" offset="0.398438"/><stop stop-opacity="1" stop-color="rgb(61.376953%, 44.743347%, 56.774902%)" offset="0.402344"/><stop stop-opacity="1" stop-color="rgb(61.00769%, 44.999695%, 56.947327%)" offset="0.40625"/><stop stop-opacity="1" stop-color="rgb(60.636902%, 45.254517%, 57.118225%)" offset="0.410156"/><stop stop-opacity="1" stop-color="rgb(60.267639%, 45.510864%, 57.290649%)" offset="0.414062"/><stop stop-opacity="1" stop-color="rgb(59.898376%, 45.767212%, 57.463074%)" offset="0.417969"/><stop stop-opacity="1" stop-color="rgb(59.529114%, 46.02356%, 57.635498%)" offset="0.421875"/><stop stop-opacity="1" stop-color="rgb(59.159851%, 46.278381%, 57.806396%)" offset="0.425781"/><stop stop-opacity="1" stop-color="rgb(58.790588%, 46.534729%, 57.978821%)" offset="0.429688"/><stop stop-opacity="1" stop-color="rgb(58.4198%, 46.791077%, 58.151245%)" offset="0.433594"/><stop stop-opacity="1" stop-color="rgb(58.050537%, 47.047424%, 58.323669%)" offset="0.4375"/><stop stop-opacity="1" stop-color="rgb(57.681274%, 47.302246%, 58.494568%)" offset="0.441406"/><stop stop-opacity="1" stop-color="rgb(57.312012%, 47.558594%, 58.666992%)" offset="0.445312"/><stop stop-opacity="1" stop-color="rgb(56.941223%, 47.814941%, 58.839417%)" offset="0.449219"/><stop stop-opacity="1" stop-color="rgb(56.57196%, 48.071289%, 59.011841%)" offset="0.453125"/><stop stop-opacity="1" stop-color="rgb(56.202698%, 48.326111%, 59.182739%)" offset="0.457031"/><stop stop-opacity="1" stop-color="rgb(55.833435%, 48.582458%, 59.355164%)" offset="0.460938"/><stop stop-opacity="1" stop-color="rgb(55.464172%, 48.83728%, 59.526062%)" offset="0.464844"/><stop stop-opacity="1" stop-color="rgb(55.09491%, 49.093628%, 59.698486%)" offset="0.46875"/><stop stop-opacity="1" stop-color="rgb(54.724121%, 49.349976%, 59.870911%)" offset="0.472656"/><stop stop-opacity="1" stop-color="rgb(54.354858%, 49.606323%, 60.043335%)" offset="0.476562"/><stop stop-opacity="1" stop-color="rgb(53.985596%, 49.861145%, 60.214233%)" offset="0.480469"/><stop stop-opacity="1" stop-color="rgb(53.616333%, 50.117493%, 60.386658%)" offset="0.484375"/><stop stop-opacity="1" stop-color="rgb(53.245544%, 50.37384%, 60.559082%)" offset="0.488281"/><stop stop-opacity="1" stop-color="rgb(52.876282%, 50.630188%, 60.731506%)" offset="0.492188"/><stop stop-opacity="1" stop-color="rgb(52.507019%, 50.88501%, 60.902405%)" offset="0.496094"/><stop stop-opacity="1" stop-color="rgb(52.137756%, 51.141357%, 61.074829%)" offset="0.5"/><stop stop-opacity="1" stop-color="rgb(51.768494%, 51.397705%, 61.247253%)" offset="0.503906"/><stop stop-opacity="1" stop-color="rgb(51.399231%, 51.654053%, 61.419678%)" offset="0.507813"/><stop stop-opacity="1" stop-color="rgb(51.028442%, 51.908875%, 61.590576%)" offset="0.511719"/><stop stop-opacity="1" stop-color="rgb(50.65918%, 52.165222%, 61.763%)" offset="0.515625"/><stop stop-opacity="1" stop-color="rgb(50.289917%, 52.420044%, 61.935425%)" offset="0.519531"/><stop stop-opacity="1" stop-color="rgb(49.920654%, 52.676392%, 62.107849%)" offset="0.523438"/><stop stop-opacity="1" stop-color="rgb(49.549866%, 52.932739%, 62.278748%)" offset="0.527344"/><stop stop-opacity="1" stop-color="rgb(49.180603%, 53.189087%, 62.451172%)" offset="0.53125"/><stop stop-opacity="1" stop-color="rgb(48.81134%, 53.443909%, 62.623596%)" offset="0.535156"/><stop stop-opacity="1" stop-color="rgb(48.442078%, 53.700256%, 62.796021%)" offset="0.539063"/><stop stop-opacity="1" stop-color="rgb(48.072815%, 53.956604%, 62.966919%)" offset="0.542969"/><stop stop-opacity="1" stop-color="rgb(47.703552%, 54.212952%, 63.139343%)" offset="0.546875"/><stop stop-opacity="1" stop-color="rgb(47.332764%, 54.467773%, 63.310242%)" offset="0.550781"/><stop stop-opacity="1" stop-color="rgb(46.963501%, 54.724121%, 63.482666%)" offset="0.554688"/><stop stop-opacity="1" stop-color="rgb(46.594238%, 54.980469%, 63.65509%)" offset="0.558594"/><stop stop-opacity="1" stop-color="rgb(46.224976%, 55.236816%, 63.827515%)" offset="0.5625"/><stop stop-opacity="1" stop-color="rgb(45.854187%, 55.491638%, 63.998413%)" offset="0.566406"/><stop stop-opacity="1" stop-color="rgb(45.484924%, 55.747986%, 64.170837%)" offset="0.570313"/><stop stop-opacity="1" stop-color="rgb(45.115662%, 56.002808%, 64.343262%)" offset="0.574219"/><stop stop-opacity="1" stop-color="rgb(44.746399%, 56.259155%, 64.515686%)" offset="0.578125"/><stop stop-opacity="1" stop-color="rgb(44.377136%, 56.515503%, 64.686584%)" offset="0.582031"/><stop stop-opacity="1" stop-color="rgb(44.007874%, 56.771851%, 64.859009%)" offset="0.585938"/><stop stop-opacity="1" stop-color="rgb(43.637085%, 57.026672%, 65.031433%)" offset="0.589844"/><stop stop-opacity="1" stop-color="rgb(43.267822%, 57.28302%, 65.203857%)" offset="0.59375"/><stop stop-opacity="1" stop-color="rgb(42.89856%, 57.539368%, 65.374756%)" offset="0.597656"/><stop stop-opacity="1" stop-color="rgb(42.529297%, 57.795715%, 65.54718%)" offset="0.601563"/><stop stop-opacity="1" stop-color="rgb(42.158508%, 58.050537%, 65.719604%)" offset="0.605469"/><stop stop-opacity="1" stop-color="rgb(41.789246%, 58.306885%, 65.892029%)" offset="0.609375"/><stop stop-opacity="1" stop-color="rgb(41.419983%, 58.563232%, 66.062927%)" offset="0.613281"/><stop stop-opacity="1" stop-color="rgb(41.05072%, 58.81958%, 66.235352%)" offset="0.617188"/><stop stop-opacity="1" stop-color="rgb(40.681458%, 59.074402%, 66.407776%)" offset="0.621094"/><stop stop-opacity="1" stop-color="rgb(40.312195%, 59.33075%, 66.5802%)" offset="0.625"/><stop stop-opacity="1" stop-color="rgb(39.941406%, 59.585571%, 66.751099%)" offset="0.628906"/><stop stop-opacity="1" stop-color="rgb(39.572144%, 59.841919%, 66.923523%)" offset="0.632813"/><stop stop-opacity="1" stop-color="rgb(39.202881%, 60.098267%, 67.094421%)" offset="0.636719"/><stop stop-opacity="1" stop-color="rgb(38.833618%, 60.354614%, 67.266846%)" offset="0.640625"/><stop stop-opacity="1" stop-color="rgb(38.464355%, 60.609436%, 67.43927%)" offset="0.644531"/><stop stop-opacity="1" stop-color="rgb(38.095093%, 60.865784%, 67.611694%)" offset="0.648438"/><stop stop-opacity="1" stop-color="rgb(37.724304%, 61.122131%, 67.782593%)" offset="0.652344"/><stop stop-opacity="1" stop-color="rgb(37.355042%, 61.378479%, 67.955017%)" offset="0.65625"/><stop stop-opacity="1" stop-color="rgb(36.985779%, 61.633301%, 68.127441%)" offset="0.660156"/><stop stop-opacity="1" stop-color="rgb(36.616516%, 61.889648%, 68.299866%)" offset="0.664063"/><stop stop-opacity="1" stop-color="rgb(36.245728%, 62.145996%, 68.470764%)" offset="0.667969"/><stop stop-opacity="1" stop-color="rgb(35.876465%, 62.402344%, 68.643188%)" offset="0.671875"/><stop stop-opacity="1" stop-color="rgb(35.507202%, 62.657166%, 68.815613%)" offset="0.675781"/><stop stop-opacity="1" stop-color="rgb(35.137939%, 62.913513%, 68.988037%)" offset="0.679688"/><stop stop-opacity="1" stop-color="rgb(34.768677%, 63.168335%, 69.158936%)" offset="0.683594"/><stop stop-opacity="1" stop-color="rgb(34.399414%, 63.424683%, 69.33136%)" offset="0.6875"/><stop stop-opacity="1" stop-color="rgb(34.028625%, 63.68103%, 69.503784%)" offset="0.691406"/><stop stop-opacity="1" stop-color="rgb(33.659363%, 63.937378%, 69.676208%)" offset="0.695313"/><stop stop-opacity="1" stop-color="rgb(33.2901%, 64.1922%, 69.847107%)" offset="0.699219"/><stop stop-opacity="1" stop-color="rgb(32.920837%, 64.448547%, 70.019531%)" offset="0.703125"/><stop stop-opacity="1" stop-color="rgb(32.550049%, 64.704895%, 70.191956%)" offset="0.707031"/><stop stop-opacity="1" stop-color="rgb(32.180786%, 64.961243%, 70.36438%)" offset="0.710938"/><stop stop-opacity="1" stop-color="rgb(31.811523%, 65.216064%, 70.535278%)" offset="0.714844"/><stop stop-opacity="1" stop-color="rgb(31.442261%, 65.472412%, 70.707703%)" offset="0.71875"/><stop stop-opacity="1" stop-color="rgb(31.072998%, 65.72876%, 70.878601%)" offset="0.722656"/><stop stop-opacity="1" stop-color="rgb(30.703735%, 65.985107%, 71.051025%)" offset="0.726563"/><stop stop-opacity="1" stop-color="rgb(30.332947%, 66.239929%, 71.22345%)" offset="0.730469"/><stop stop-opacity="1" stop-color="rgb(29.963684%, 66.496277%, 71.395874%)" offset="0.734375"/><stop stop-opacity="1" stop-color="rgb(29.594421%, 66.751099%, 71.566772%)" offset="0.738281"/><stop stop-opacity="1" stop-color="rgb(29.225159%, 67.007446%, 71.739197%)" offset="0.742188"/><stop stop-opacity="1" stop-color="rgb(28.85437%, 67.263794%, 71.911621%)" offset="0.746094"/><stop stop-opacity="1" stop-color="rgb(28.485107%, 67.520142%, 72.084045%)" offset="0.75"/><stop stop-opacity="1" stop-color="rgb(28.115845%, 67.774963%, 72.254944%)" offset="0.753906"/><stop stop-opacity="1" stop-color="rgb(27.746582%, 68.031311%, 72.427368%)" offset="0.757813"/><stop stop-opacity="1" stop-color="rgb(27.377319%, 68.287659%, 72.599792%)" offset="0.761719"/><stop stop-opacity="1" stop-color="rgb(27.008057%, 68.544006%, 72.772217%)" offset="0.765625"/><stop stop-opacity="1" stop-color="rgb(26.637268%, 68.798828%, 72.943115%)" offset="0.769531"/><stop stop-opacity="1" stop-color="rgb(26.268005%, 69.055176%, 73.11554%)" offset="0.773438"/><stop stop-opacity="1" stop-color="rgb(25.898743%, 69.311523%, 73.287964%)" offset="0.777344"/><stop stop-opacity="1" stop-color="rgb(25.52948%, 69.567871%, 73.460388%)" offset="0.78125"/><stop stop-opacity="1" stop-color="rgb(25.158691%, 69.822693%, 73.631287%)" offset="0.785156"/><stop stop-opacity="1" stop-color="rgb(24.789429%, 70.079041%, 73.803711%)" offset="0.789063"/><stop stop-opacity="1" stop-color="rgb(24.420166%, 70.335388%, 73.974609%)" offset="0.792969"/><stop stop-opacity="1" stop-color="rgb(24.050903%, 70.591736%, 74.147034%)" offset="0.796875"/><stop stop-opacity="1" stop-color="rgb(23.681641%, 70.846558%, 74.319458%)" offset="0.800781"/><stop stop-opacity="1" stop-color="rgb(23.312378%, 71.102905%, 74.491882%)" offset="0.804688"/><stop stop-opacity="1" stop-color="rgb(22.941589%, 71.357727%, 74.662781%)" offset="0.808594"/><stop stop-opacity="1" stop-color="rgb(22.572327%, 71.614075%, 74.835205%)" offset="0.8125"/><stop stop-opacity="1" stop-color="rgb(22.203064%, 71.870422%, 75.007629%)" offset="0.816406"/><stop stop-opacity="1" stop-color="rgb(21.833801%, 72.12677%, 75.180054%)" offset="0.820313"/><stop stop-opacity="1" stop-color="rgb(21.463013%, 72.381592%, 75.350952%)" offset="0.824219"/><stop stop-opacity="1" stop-color="rgb(21.09375%, 72.637939%, 75.523376%)" offset="0.828125"/><stop stop-opacity="1" stop-color="rgb(20.724487%, 72.894287%, 75.695801%)" offset="0.832031"/><stop stop-opacity="1" stop-color="rgb(20.355225%, 73.150635%, 75.868225%)" offset="0.835938"/><stop stop-opacity="1" stop-color="rgb(19.985962%, 73.405457%, 76.039124%)" offset="0.839844"/><stop stop-opacity="1" stop-color="rgb(19.616699%, 73.661804%, 76.211548%)" offset="0.84375"/><stop stop-opacity="1" stop-color="rgb(19.245911%, 73.918152%, 76.383972%)" offset="0.847656"/><stop stop-opacity="1" stop-color="rgb(18.876648%, 74.1745%, 76.556396%)" offset="0.851563"/><stop stop-opacity="1" stop-color="rgb(18.507385%, 74.429321%, 76.727295%)" offset="0.855469"/><stop stop-opacity="1" stop-color="rgb(18.138123%, 74.685669%, 76.899719%)" offset="0.859375"/><stop stop-opacity="1" stop-color="rgb(17.767334%, 74.940491%, 77.072144%)" offset="0.863281"/><stop stop-opacity="1" stop-color="rgb(17.398071%, 75.196838%, 77.244568%)" offset="0.867188"/><stop stop-opacity="1" stop-color="rgb(17.028809%, 75.453186%, 77.415466%)" offset="0.871094"/><stop stop-opacity="1" stop-color="rgb(16.659546%, 75.709534%, 77.587891%)" offset="0.875"/><stop stop-opacity="1" stop-color="rgb(16.290283%, 75.964355%, 77.758789%)" offset="0.878906"/><stop stop-opacity="1" stop-color="rgb(15.921021%, 76.220703%, 77.931213%)" offset="0.882813"/><stop stop-opacity="1" stop-color="rgb(15.550232%, 76.477051%, 78.103638%)" offset="0.886719"/><stop stop-opacity="1" stop-color="rgb(15.180969%, 76.733398%, 78.276062%)" offset="0.890625"/><stop stop-opacity="1" stop-color="rgb(14.811707%, 76.98822%, 78.44696%)" offset="0.894531"/><stop stop-opacity="1" stop-color="rgb(14.442444%, 77.244568%, 78.619385%)" offset="0.898438"/><stop stop-opacity="1" stop-color="rgb(14.071655%, 77.500916%, 78.791809%)" offset="0.902344"/><stop stop-opacity="1" stop-color="rgb(13.702393%, 77.757263%, 78.964233%)" offset="0.90625"/><stop stop-opacity="1" stop-color="rgb(13.33313%, 78.012085%, 79.135132%)" offset="0.910156"/><stop stop-opacity="1" stop-color="rgb(12.963867%, 78.268433%, 79.307556%)" offset="0.914063"/><stop stop-opacity="1" stop-color="rgb(12.594604%, 78.523254%, 79.47998%)" offset="0.917969"/><stop stop-opacity="1" stop-color="rgb(12.225342%, 78.779602%, 79.652405%)" offset="0.921875"/><stop stop-opacity="1" stop-color="rgb(11.854553%, 79.03595%, 79.823303%)" offset="0.925781"/><stop stop-opacity="1" stop-color="rgb(11.485291%, 79.292297%, 79.995728%)" offset="0.929688"/><stop stop-opacity="1" stop-color="rgb(11.116028%, 79.547119%, 80.168152%)" offset="0.933594"/><stop stop-opacity="1" stop-color="rgb(10.746765%, 79.803467%, 80.340576%)" offset="0.9375"/><stop stop-opacity="1" stop-color="rgb(10.375977%, 80.059814%, 80.511475%)" offset="0.941406"/><stop stop-opacity="1" stop-color="rgb(10.006714%, 80.316162%, 80.683899%)" offset="0.945313"/><stop stop-opacity="1" stop-color="rgb(9.637451%, 80.570984%, 80.856323%)" offset="0.949219"/><stop stop-opacity="1" stop-color="rgb(9.268188%, 80.827332%, 81.028748%)" offset="0.953125"/><stop stop-opacity="1" stop-color="rgb(8.898926%, 81.083679%, 81.199646%)" offset="0.957031"/><stop stop-opacity="1" stop-color="rgb(8.529663%, 81.340027%, 81.37207%)" offset="0.960938"/><stop stop-opacity="1" stop-color="rgb(8.158875%, 81.594849%, 81.542969%)" offset="0.964844"/><stop stop-opacity="1" stop-color="rgb(7.789612%, 81.851196%, 81.715393%)" offset="0.96875"/><stop stop-opacity="1" stop-color="rgb(7.420349%, 82.106018%, 81.887817%)" offset="0.972656"/><stop stop-opacity="1" stop-color="rgb(7.051086%, 82.362366%, 82.060242%)" offset="0.976562"/><stop stop-opacity="1" stop-color="rgb(6.680298%, 82.618713%, 82.23114%)" offset="0.980469"/><stop stop-opacity="1" stop-color="rgb(6.311035%, 82.875061%, 82.403564%)" offset="0.984375"/><stop stop-opacity="1" stop-color="rgb(5.941772%, 83.129883%, 82.575989%)" offset="0.988281"/><stop stop-opacity="1" stop-color="rgb(5.57251%, 83.38623%, 82.748413%)" offset="0.992188"/><stop stop-opacity="1" stop-color="rgb(5.203247%, 83.642578%, 82.919312%)" offset="0.996094"/><stop stop-opacity="1" stop-color="rgb(4.833984%, 83.898926%, 83.091736%)" offset="1"/></linearGradient></defs><g clip-path="url(#id1)"><g clip-path="url(#id2)"><path fill="url(#id3)" d="M 287.027344 92.878906 L 287.027344 214.378906 L 367.226562 214.378906 L 367.226562 92.878906 Z M 287.027344 92.878906 " fill-rule="nonzero"/></g></g><g fill="rgb(14.509583%, 16.468811%, 20.388794%)" fill-opacity="1"><g transform="translate(5.074223, 197.469954)"><g><path d="M 42.964844 13.917969 C 41.9375 13.730469 41.753906 13.261719 41.003906 12.609375 C 35.121094 8.125 28.023438 7.285156 21.109375 7.285156 C 18.679688 7.285156 16.347656 7.378906 14.011719 7.472656 C 11.675781 7.472656 8.875 8.03125 6.632812 8.03125 C 6.632812 6.632812 6.820312 6.257812 6.820312 4.578125 C 6.910156 2.894531 7.097656 2.800781 8.21875 1.960938 C 16.4375 -3.921875 30.355469 -10.367188 40.164062 -13.171875 C 41.84375 -13.542969 44.929688 -14.664062 46.609375 -14.664062 L 43.714844 6.445312 C 43.339844 8.875 42.964844 11.394531 42.964844 13.917969 Z M 47.261719 -18.027344 C 23.257812 -12.515625 8.59375 -1.496094 7.472656 -1.214844 C 7.472656 -6.820312 8.59375 -12.421875 9.058594 -17.746094 C 9.808594 -27.367188 12.890625 -49.039062 14.570312 -58.472656 C 14.851562 -59.964844 16.71875 -68.652344 14.851562 -70.148438 C 14.476562 -70.425781 14.105469 -70.519531 13.917969 -70.519531 C 13.449219 -70.519531 13.261719 -70.148438 13.261719 -70.148438 C 11.957031 -69.492188 12.515625 -69.867188 11.675781 -66.128906 C 8.6875 -51.28125 6.445312 -36.335938 4.484375 -21.390625 L 3.457031 -10.742188 C 3.457031 -7.191406 2.800781 -3.644531 2.617188 -0.1875 C 2.523438 2.335938 2.800781 2.800781 1.308594 4.296875 C -1.308594 6.910156 -1.960938 10.554688 1.679688 10.835938 C 1.679688 15.878906 0.652344 21.671875 0.652344 25.03125 C 0.652344 30.730469 0.1875 37.082031 0.1875 44.085938 C 0.1875 45.207031 0.933594 46.609375 1.960938 46.609375 C 4.578125 46.609375 4.015625 44.648438 4.109375 42.21875 L 5.042969 29.515625 C 5.042969 27.554688 5.136719 25.3125 5.417969 23.164062 L 6.632812 11.023438 C 7.285156 10.367188 20.828125 10.273438 23.816406 10.273438 C 29.984375 10.273438 36.054688 12.328125 39.417969 15.226562 C 42.59375 17.839844 42.125 17.652344 41.9375 22.230469 C 41.753906 26.621094 41.285156 29.328125 41.285156 34.558594 C 41.285156 35.679688 42.125 36.800781 43.246094 36.800781 C 44.179688 36.800781 45.300781 35.867188 46.046875 32.972656 C 47.074219 28.957031 46.984375 28.394531 46.984375 24.378906 C 46.984375 19.429688 45.300781 23.445312 46.703125 14.570312 L 51.1875 -15.878906 L 59.21875 -17.558594 C 64.167969 -18.308594 70.519531 -19.613281 75.65625 -19.613281 C 75.75 -19.613281 75.9375 -19.613281 76.125 -19.613281 C 76.777344 -19.613281 77.433594 -19.523438 77.992188 -19.523438 C 78.832031 -19.523438 79.582031 -19.707031 79.675781 -20.640625 C 79.953125 -22.230469 77.804688 -22.789062 74.910156 -22.789062 C 69.027344 -22.789062 59.59375 -20.640625 57.632812 -20.269531 C 56.417969 -20.082031 52.773438 -19.429688 51.839844 -19.054688 C 52.492188 -27.085938 59.21875 -55.855469 61.367188 -64.261719 C 62.394531 -68.09375 63.234375 -69.027344 62.675781 -72.015625 C 62.113281 -72.109375 61.648438 -72.203125 61.179688 -72.203125 C 59.6875 -72.203125 59.6875 -70.988281 58.378906 -66.972656 C 55.109375 -57.351562 50.4375 -35.960938 48.476562 -25.40625 C 48.105469 -22.976562 47.730469 -20.363281 47.261719 -18.027344 Z M 47.261719 -18.027344 "/></g></g></g><g fill="rgb(14.509583%, 16.468811%, 20.388794%)" fill-opacity="1"><g transform="translate(79.419387, 197.469954)"><g><path d="M 0 -9.433594 C 0 -6.070312 0.28125 -4.484375 3.734375 -4.484375 C 6.445312 -4.484375 9.339844 -13.261719 11.113281 -14.476562 C 11.113281 -10.460938 14.105469 -5.605469 18.773438 -5.605469 C 20.363281 -5.605469 22.136719 -6.164062 24.003906 -7.472656 L 26.808594 -9.714844 C 31.570312 -14.289062 31.011719 -16.625 29.609375 -16.625 C 29.050781 -16.625 28.394531 -16.347656 27.929688 -15.691406 C 26.621094 -14.289062 26.339844 -13.449219 24.566406 -11.863281 C 22.511719 -9.808594 20.550781 -8.6875 18.773438 -8.6875 C 16.8125 -8.6875 15.132812 -10.179688 14.382812 -13.542969 C 13.542969 -17.09375 15.132812 -21.296875 11.863281 -21.296875 C 10.648438 -21.296875 6.820312 -13.355469 4.949219 -10.460938 L 4.203125 -9.339844 C 3.734375 -8.78125 4.015625 -9.152344 3.734375 -8.875 C 3.734375 -11.957031 5.042969 -15.503906 6.257812 -17.464844 C 8.96875 -22.136719 10.835938 -23.445312 12.234375 -23.445312 C 14.011719 -23.445312 15.132812 -21.296875 16.4375 -21.296875 C 18.867188 -21.296875 16.4375 -26.621094 12.050781 -26.621094 C 5.511719 -26.621094 0 -14.757812 0 -9.433594 Z M 0 -9.433594 "/></g></g></g><g fill="rgb(14.509583%, 16.468811%, 20.388794%)" fill-opacity="1"><g transform="translate(106.504942, 197.469954)"><g><path d="M 1.308594 -0.375 C 4.203125 -0.375 3.082031 -3.550781 3.644531 -5.976562 C 4.015625 -8.21875 4.855469 -10.085938 5.792969 -11.675781 C 7.285156 -14.105469 7.753906 -14.105469 11.300781 -14.105469 C 12.328125 -14.105469 13.730469 -14.011719 14.945312 -14.011719 C 16.8125 -14.011719 18.308594 -14.199219 18.308594 -15.503906 C 18.308594 -16.71875 15.410156 -16.90625 12.703125 -16.90625 C 11.113281 -16.90625 9.527344 -16.8125 8.6875 -16.8125 C 5.792969 -16.8125 5.230469 -15.039062 3.828125 -14.105469 C 3.828125 -15.320312 4.015625 -15.226562 4.015625 -16.53125 C 4.015625 -17.464844 4.015625 -18.585938 4.109375 -19.523438 C 4.390625 -22.136719 4.855469 -23.910156 2.335938 -23.910156 C 0.28125 -23.910156 0.09375 -14.199219 0.09375 -12.515625 C 0.1875 -10.179688 0.09375 -7.847656 0.1875 -5.605469 C 0.1875 -4.949219 -0.558594 -0.375 1.308594 -0.375 Z M 1.308594 -0.375 "/></g></g></g><g fill="rgb(14.509583%, 16.468811%, 20.388794%)" fill-opacity="1"><g transform="translate(121.72889, 197.469954)"><g><path d="M 4.949219 -7.566406 L 5.136719 -7.566406 C 9.246094 -7.847656 12.796875 -21.109375 17 -23.910156 C 17 -21.109375 17.839844 -17.746094 20.734375 -17.746094 C 23.257812 -17.746094 26.621094 -22.605469 28.488281 -23.910156 C 28.488281 -18.496094 25.875 -9.621094 28.582031 -2.800781 C 29.609375 -0.09375 31.289062 0.933594 33.066406 0.933594 C 36.148438 0.933594 39.695312 -2.054688 42.125 -5.605469 C 42.78125 -6.539062 43.152344 -7.003906 43.714844 -7.753906 C 44.273438 -8.6875 44.554688 -9.246094 45.113281 -10.085938 C 45.769531 -11.113281 47.824219 -14.105469 47.824219 -15.226562 C 47.824219 -15.878906 47.261719 -16.4375 46.890625 -16.4375 C 44.835938 -16.4375 44.367188 -14.664062 43.527344 -13.355469 C 41.097656 -9.339844 36.707031 -2.523438 34 -2.523438 C 32.410156 -2.523438 31.382812 -4.578125 31.382812 -10.273438 C 31.382812 -15.503906 33.066406 -25.5 31.382812 -27.460938 C 30.917969 -28.023438 30.355469 -28.207031 29.796875 -28.207031 C 29.234375 -28.207031 28.675781 -28.023438 28.113281 -27.742188 C 27.085938 -27.179688 26.527344 -26.433594 25.6875 -25.5 C 24.003906 -24.003906 21.855469 -21.296875 20.457031 -21.109375 C 20.457031 -24.097656 19.800781 -27.742188 17 -27.742188 C 14.757812 -27.742188 12.050781 -22.976562 11.023438 -21.203125 L 6.632812 -13.824219 C 6.445312 -13.636719 6.351562 -13.542969 6.164062 -13.355469 C 6.164062 -22.789062 10.648438 -26.992188 5.882812 -26.992188 C 2.523438 -26.992188 -1.585938 -7.566406 4.949219 -7.566406 Z M 4.949219 -7.566406 "/></g></g></g><g fill="rgb(14.509583%, 16.468811%, 20.388794%)" fill-opacity="1"><g transform="translate(165.34596, 197.469954)"><g><path d="M 4.671875 -2.148438 C 2.617188 -6.445312 6.910156 -14.851562 7.566406 -17.558594 C 10.835938 -15.410156 8.5 -3.175781 4.671875 -2.148438 Z M 0 -5.324219 C 0 -0.46875 2.054688 1.960938 4.484375 1.960938 C 7.285156 1.960938 10.742188 -1.308594 12.144531 -7.753906 C 14.199219 -17.375 9.714844 -18.960938 9.246094 -20.734375 C 9.714844 -21.484375 10.554688 -22.042969 10.835938 -22.699219 C 11.113281 -23.445312 10.554688 -24.9375 9.339844 -24.9375 C 4.761719 -24.9375 0 -9.527344 0 -5.324219 Z M 0 -5.324219 "/></g></g></g><g fill="rgb(14.509583%, 16.468811%, 20.388794%)" fill-opacity="1"><g transform="translate(181.784092, 197.469954)"><g><path d="M 2.617188 -4.855469 C 6.257812 -4.855469 9.996094 -16.8125 13.078125 -18.867188 C 13.917969 -17.09375 12.609375 -13.355469 14.476562 -7.753906 C 15.320312 -5.230469 16.90625 -2.707031 19.800781 -2.707031 C 20.363281 -2.707031 20.921875 -2.800781 21.578125 -2.988281 C 23.726562 -3.550781 26.714844 -7.285156 28.023438 -8.96875 C 28.582031 -9.714844 34.09375 -16.625 30.449219 -16.625 C 28.769531 -16.625 23.816406 -5.511719 20.082031 -5.511719 C 16.625 -5.511719 16.4375 -13.824219 16.4375 -16.160156 L 15.878906 -21.390625 C 15.410156 -22.417969 14.757812 -22.882812 14.105469 -22.882812 C 11.863281 -22.882812 9.058594 -18.121094 8.5 -17.09375 L 4.015625 -10.273438 C 4.015625 -17.558594 10.085938 -26.339844 5.976562 -26.339844 C 2.429688 -26.339844 -3.363281 -4.855469 2.617188 -4.855469 Z M 2.617188 -4.855469 "/></g></g></g><g fill="rgb(14.509583%, 16.468811%, 20.388794%)" fill-opacity="1"><g transform="translate(209.80361, 197.469954)"><g><path d="M 2.707031 37.457031 C 1.214844 37.457031 -0.28125 36.894531 -1.027344 35.960938 C -4.761719 31.945312 -1.027344 24.378906 1.214844 21.203125 C 3.550781 17.652344 5.792969 14.757812 8.78125 11.769531 C 9.527344 11.113281 9.902344 10.367188 10.460938 9.902344 L 19.613281 1.773438 C 20.363281 1.214844 20.921875 0.839844 21.671875 0.375 C 21.203125 6.164062 16.90625 22.699219 14.105469 27.835938 C 11.863281 31.851562 8.03125 37.457031 2.707031 37.457031 Z M 4.855469 -8.21875 C 4.855469 -17.1875 10.367188 -23.445312 6.257812 -23.445312 C 3.175781 -23.445312 0.933594 -14.105469 0.933594 -10.085938 C 0.933594 -6.820312 2.429688 -4.761719 4.484375 -4.761719 C 5.511719 -4.761719 6.632812 -5.324219 7.753906 -6.351562 C 10.273438 -8.6875 13.171875 -13.449219 15.039062 -16.4375 C 16.53125 -18.585938 23.539062 -30.824219 24.378906 -31.382812 C 24.378906 -20.640625 23.539062 -14.289062 22.417969 -4.761719 C 22.324219 -3.082031 21.484375 -3.082031 19.800781 -1.585938 C 19.054688 -1.027344 18.679688 -0.839844 18.027344 -0.28125 C 9.902344 5.511719 -5.230469 21.015625 -5.230469 31.289062 C -5.230469 36.894531 -1.679688 40.164062 2.894531 40.164062 C 9.058594 40.164062 14.382812 34.558594 17.09375 29.421875 C 21.671875 21.949219 24.753906 7.753906 26.058594 -1.496094 C 26.246094 -2.800781 26.058594 -2.988281 26.992188 -3.644531 C 30.636719 -6.164062 34.464844 -8.59375 38.296875 -10.742188 C 39.417969 -11.394531 45.394531 -14.476562 45.394531 -15.878906 C 45.394531 -16.625 45.019531 -16.90625 44.554688 -16.90625 C 43.152344 -16.90625 40.632812 -14.945312 40.070312 -14.570312 L 26.714844 -6.820312 C 26.714844 -9.433594 27.554688 -15.503906 27.554688 -20.175781 L 27.554688 -27.367188 C 27.554688 -29.234375 27.648438 -36.148438 25.6875 -36.148438 C 23.726562 -36.148438 23.726562 -35.492188 22.230469 -33.066406 C 18.960938 -27.554688 9.621094 -10.648438 4.855469 -8.21875 Z M 4.855469 -8.21875 "/></g></g></g><g fill="rgb(14.509583%, 16.468811%, 20.388794%)" fill-opacity="1"><g transform="translate(251.832904, 197.469954)"><g><path d="M 1.402344 -17.09375 C 1.402344 -7.378906 4.296875 -13.636719 -0.558594 -7.566406 C -2.242188 -5.417969 -7.660156 0 -7.660156 3.550781 C -7.660156 4.109375 -7.566406 3.828125 -7.378906 4.484375 C -7.003906 4.578125 -6.632812 4.671875 -6.445312 4.671875 C -5.230469 4.671875 -5.417969 3.175781 -1.773438 -1.679688 C -0.746094 -3.175781 1.960938 -6.632812 3.457031 -7.566406 C 5.792969 -3.082031 8.5 -1.496094 11.300781 -1.496094 C 14.851562 -1.496094 18.679688 -4.015625 22.324219 -7.003906 C 23.726562 -8.125 30.167969 -14.199219 30.167969 -15.878906 C 30.167969 -16.53125 29.890625 -16.90625 29.515625 -16.90625 C 28.957031 -16.90625 28.023438 -16.160156 27.179688 -15.039062 L 22.136719 -9.996094 C 19.707031 -7.9375 14.945312 -4.296875 11.675781 -4.296875 C 8.125 -4.296875 6.632812 -8.6875 5.882812 -10.367188 C 6.726562 -10.929688 7.097656 -11.488281 7.9375 -12.144531 C 11.769531 -15.226562 16.53125 -19.988281 21.015625 -23.070312 C 22.136719 -23.816406 23.070312 -24.097656 23.070312 -25.21875 C 23.070312 -25.875 22.417969 -26.246094 21.855469 -26.246094 C 19.894531 -26.246094 14.757812 -21.578125 13.171875 -20.269531 C 12.421875 -19.707031 11.957031 -19.242188 11.207031 -18.773438 C 9.714844 -17.464844 6.351562 -13.824219 5.230469 -13.636719 C 5.230469 -15.503906 5.136719 -17.839844 5.230469 -19.613281 C 5.417969 -21.855469 5.882812 -22.699219 5.882812 -25.40625 C 5.882812 -26.246094 5.230469 -26.621094 4.484375 -26.621094 C 1.773438 -26.621094 1.402344 -18.960938 1.402344 -17.09375 Z M 1.402344 -17.09375 "/></g></g></g><g fill="rgb(14.509583%, 16.468811%, 20.388794%)" fill-opacity="1"><g transform="translate(278.825052, 197.469954)"><g><path d="M 1.121094 15.410156 C 1.121094 11.675781 3.828125 7.472656 6.070312 4.761719 C 7.191406 3.457031 9.433594 0.652344 10.929688 -0.1875 C 10.929688 2.429688 11.023438 4.484375 10.367188 6.632812 C 9.527344 9.714844 7.472656 14.199219 4.949219 16.066406 C 4.296875 16.625 3.175781 17.375 2.335938 17.375 C 1.679688 17.375 1.121094 16.8125 1.121094 15.410156 Z M 0.28125 -15.132812 C 0.28125 -10.179688 6.820312 -8.59375 9.714844 -3.269531 C 8.3125 -1.027344 -1.867188 7.003906 -1.867188 15.410156 C -1.867188 18.773438 0 20.550781 2.617188 20.550781 C 5.417969 20.550781 8.96875 18.402344 11.675781 13.824219 C 17.933594 3.175781 14.105469 -2.242188 14.476562 -3.550781 C 14.664062 -4.296875 21.296875 -9.246094 22.324219 -9.808594 L 28.675781 -14.199219 C 30.824219 -15.410156 31.011719 -17 29.515625 -17 C 28.675781 -17 27.460938 -16.625 25.875 -15.503906 L 17.1875 -9.433594 C 15.785156 -8.21875 14.476562 -7.191406 12.984375 -6.164062 C 8.125 -13.449219 1.121094 -13.171875 6.070312 -18.773438 C 7.472656 -20.363281 7.191406 -19.894531 9.433594 -20.457031 C 9.996094 -22.789062 9.152344 -23.726562 7.847656 -23.726562 C 5.136719 -23.726562 0.28125 -19.894531 0.28125 -15.132812 Z M 0.28125 -15.132812 "/></g></g></g></svg>