<?xml version="1.0" standalone="no"?>
<!DOCTYPE svg PUBLIC "-//W3C//DTD SVG 20010904//EN"
 "http://www.w3.org/TR/2001/REC-SVG-20010904/DTD/svg10.dtd">
<svg version="1.0" xmlns="http://www.w3.org/2000/svg"
 width="1920.000000pt" height="1080.000000pt" viewBox="0 0 1920.000000 1080.000000"
 preserveAspectRatio="xMidYMid meet">

<g transform="translate(0.000000,1080.000000) scale(0.100000,-0.100000)"
fill="#000000" stroke="none">
<path d="M0 5400 l0 -5401 4750 1 c2612 1 4752 5 4754 9 3 4 44 6 93 4 176 -6
561 -9 558 -3 -2 3 -76 5 -165 5 -101 0 -165 3 -170 10 -5 7 -72 10 -180 10
-108 0 -175 3 -180 10 -5 7 -69 10 -170 10 -101 0 -165 3 -170 10 -5 7 -72 10
-180 10 -94 0 -174 3 -177 7 -2 5 -8 6 -13 3 -15 -9 -13 1138 2 1188 18 59 91
132 148 147 84 23 187 -9 231 -72 13 -18 31 -55 41 -83 17 -48 17 -30 18 591
0 697 -1 687 56 761 30 39 87 79 128 89 27 6 29 5 24 -19 -3 -16 0 -28 8 -31
17 -6 19 -56 3 -56 -7 0 -4 -11 6 -27 10 -16 14 -24 9 -20 -6 6 -32 -65 -34
-95 -1 -22 22 -3 36 30 l16 37 13 -50 c7 -27 11 -64 8 -82 -4 -24 -1 -34 11
-39 9 -3 14 -10 11 -15 -6 -9 11 -44 33 -67 7 -8 15 -27 18 -42 3 -15 17 -40
30 -55 13 -16 24 -37 24 -48 0 -11 7 -28 15 -37 8 -9 18 -39 22 -66 3 -27 12
-55 19 -62 13 -12 34 -74 34 -98 0 -7 10 -15 23 -19 13 -4 17 -8 9 -12 -6 -2
-10 -8 -7 -12 14 -24 20 -181 19 -546 -1 -269 2 -401 8 -385 24 63 46 96 77
117 96 65 216 24 260 -90 15 -40 20 -46 21 -27 1 22 4 20 21 -15 10 -22 19
-46 19 -53 0 -8 14 -33 31 -57 18 -25 33 -61 36 -86 4 -24 15 -59 25 -77 10
-18 18 -44 18 -58 0 -14 5 -35 12 -47 7 -12 15 -49 19 -82 11 -89 30 -175 39
-175 12 0 18 -71 9 -103 -6 -21 -4 -29 10 -36 9 -5 17 -20 18 -33 1 -13 5 -33
8 -45 l5 -22 317 -1 317 0 36 35 c33 32 38 34 55 21 19 -14 19 -15 1 -35 l-19
-21 4066 0 4067 0 0 1302 c0 1183 -3 1484 -12 1188 l-3 -106 -61 1 c-34 0 -68
5 -75 11 -9 6 -78 10 -181 10 -91 -1 -164 2 -162 6 6 10 4 10 -184 12 -95 0
-165 5 -173 12 -9 6 -77 10 -181 10 -91 -1 -164 2 -162 6 6 10 4 10 -184 12
-95 0 -165 5 -173 12 -9 6 -77 10 -181 10 -91 -1 -164 2 -162 6 6 10 4 10
-184 12 -95 0 -165 5 -173 12 -9 6 -77 10 -181 10 -91 -1 -164 2 -162 6 6 10
4 10 -184 12 -95 0 -165 5 -173 12 -9 6 -77 10 -181 10 -91 -1 -164 2 -162 6
6 9 -1 10 -98 12 -44 1 -73 5 -75 13 -3 8 17 10 69 8 40 -2 73 -4 73 -5 0 -2
187 -10 292 -13 34 -1 60 -4 58 -7 -2 -3 38 -6 88 -7 92 -1 262 -10 262 -13 0
-2 188 -10 292 -13 34 -1 60 -4 58 -7 -2 -3 38 -6 88 -7 92 -1 262 -10 262
-13 0 -2 188 -10 292 -13 34 -1 60 -4 58 -7 -2 -3 38 -6 88 -7 92 -1 262 -10
262 -13 0 -2 188 -10 292 -13 34 -1 60 -4 58 -7 -2 -3 38 -6 88 -7 92 -1 262
-10 262 -13 0 -2 188 -10 292 -13 34 -1 60 -4 58 -7 -2 -3 30 -5 71 -5 42 0
74 5 74 10 0 6 -33 10 -77 10 -43 0 -85 5 -93 10 -8 5 -85 10 -170 10 -85 0
-162 5 -170 10 -8 5 -89 10 -180 10 -91 0 -172 5 -180 10 -8 5 -85 10 -170 10
-85 0 -162 5 -170 10 -8 5 -89 10 -180 10 -91 0 -172 5 -180 10 -8 5 -85 10
-170 10 -85 0 -162 5 -170 10 -8 5 -89 10 -180 10 -91 0 -172 5 -180 10 -8 5
-85 10 -170 10 -85 0 -162 5 -170 10 -8 5 -89 10 -180 10 -91 0 -172 5 -180
10 -8 5 -85 10 -170 10 -85 0 -162 5 -170 10 -21 13 -120 14 -113 0 4 -6 2 -6
-6 1 -14 12 -29 1050 -17 1146 15 118 106 203 216 202 104 0 190 -64 216 -164
10 -37 13 70 13 591 1 729 -2 697 86 786 58 58 98 73 190 73 104 -1 183 -49
233 -145 l27 -50 5 -825 c3 -454 6 -813 8 -799 3 32 38 85 74 112 41 30 124
34 174 9 50 -25 61 -38 84 -99 19 -48 19 -46 20 550 0 497 2 603 14 632 16 38
63 72 112 81 45 8 118 -26 144 -68 19 -32 20 -50 21 -463 0 -240 4 -421 9
-410 4 11 15 41 25 67 21 61 80 127 146 163 49 27 62 30 149 30 79 0 103 -4
142 -23 65 -32 125 -94 156 -160 l27 -57 5 -580 c3 -319 8 -564 13 -544 13 61
85 119 149 119 61 0 127 -57 148 -128 5 -15 9 455 9 1044 l1 1070 28 55 c58
116 194 159 312 99 46 -24 74 -55 99 -110 20 -44 21 -62 21 -785 l1 -740 25
53 c34 70 85 104 163 110 102 7 176 -49 202 -153 4 -16 7 1661 8 3728 l1 3757
-9600 0 -9600 0 0 -5400z m1010 5069 c0 -6 -9 -47 -20 -91 -31 -119 -70 -312
-65 -317 3 -2 34 1 69 7 35 7 84 12 108 12 28 0 50 6 58 15 16 19 54 19 70 0
17 -21 5 -31 -16 -14 -15 12 -20 9 -44 -20 -23 -27 -46 -81 -35 -81 2 0 15 20
29 45 37 62 46 59 58 -19 5 -34 34 -43 65 -20 15 12 29 30 31 40 7 47 13 64
22 64 6 0 10 -16 10 -35 0 -33 1 -34 27 -24 15 5 38 9 51 7 22 -3 27 3 36 37
7 23 18 40 26 40 16 0 17 -7 5 -70 l-7 -40 37 58 c40 62 59 70 77 32 l11 -26
31 30 c47 45 60 30 54 -60 -6 -74 3 -119 22 -119 5 0 23 19 39 43 16 23 36 49
43 58 7 8 21 29 30 45 21 36 53 47 43 14 -4 -12 -1 -27 5 -36 22 -25 7 -112
-24 -142 l-27 -27 -20 24 c-10 13 -19 30 -19 38 0 10 -12 5 -36 -17 -66 -57
-99 -21 -90 99 l6 75 -29 -28 c-31 -30 -47 -28 -60 7 -7 19 -11 16 -36 -29
-51 -89 -68 -101 -87 -59 -9 20 -18 25 -48 25 -32 0 -39 -4 -48 -27 -6 -16
-12 -39 -14 -53 -4 -37 -22 -26 -28 17 -3 26 -8 34 -13 25 -5 -7 -20 -17 -34
-23 -30 -11 -58 2 -76 36 l-13 25 -18 -35 c-21 -38 -52 -47 -63 -18 -4 9 0 36
9 60 l15 43 -56 -7 c-31 -3 -78 -11 -106 -17 l-50 -11 -17 -115 c-9 -63 -17
-146 -17 -185 -1 -84 -9 -115 -27 -115 -11 0 -14 18 -14 78 l0 78 -42 24 c-37
21 -56 24 -135 24 -50 1 -95 -3 -99 -6 -4 -4 -11 -68 -17 -143 -8 -106 -13
-135 -25 -135 -12 0 -14 23 -11 138 1 75 -1 145 -6 155 -4 10 -2 23 5 32 6 7
16 63 21 122 5 59 23 189 39 288 17 99 30 184 30 188 0 4 7 7 15 7 20 0 19
-28 -4 -170 -22 -131 -46 -358 -39 -365 2 -3 40 13 84 36 43 22 112 50 153 62
l74 23 27 135 c25 120 64 271 77 292 6 11 23 8 23 -4z m2085 -79 c-3 -5 -2
-10 2 -10 5 0 13 -8 19 -18 10 -16 8 -18 -25 -20 -102 -7 -178 -56 -224 -142
-25 -49 -28 -63 -25 -127 2 -39 6 -75 10 -78 3 -4 23 5 44 19 52 35 65 21 15
-16 -23 -16 -41 -34 -41 -39 0 -16 75 -84 112 -102 58 -27 118 -31 183 -12 46
13 69 28 112 71 29 30 53 52 53 49 0 -12 4 -21 17 -33 11 -11 9 -19 -12 -47
-61 -79 -159 -120 -268 -113 -81 5 -136 29 -197 84 l-39 35 -10 -38 c-15 -53
-47 -102 -74 -112 -32 -12 -57 4 -57 37 0 29 44 106 73 131 20 16 10 40 -28
65 -25 17 -27 16 -63 -12 -75 -59 -101 -64 -137 -28 l-24 24 -19 -22 c-11 -11
-27 -33 -37 -48 -9 -15 -21 -25 -26 -22 -11 6 4 37 44 86 16 20 28 41 26 47
-2 5 -33 -8 -69 -29 l-64 -39 -27 -111 c-40 -161 -93 -240 -162 -240 -71 0
-88 69 -38 156 17 28 66 85 111 126 l81 76 5 103 c7 117 9 116 -58 4 -20 -33
-48 -71 -62 -84 -27 -26 -56 -23 -56 6 0 13 -7 9 -31 -15 -58 -60 -86 -36
-102 88 -1 8 -17 -11 -35 -43 -49 -87 -83 -71 -62 28 11 55 33 95 45 83 4 -4
2 -28 -4 -54 -7 -25 -10 -48 -8 -50 2 -3 16 14 31 36 14 22 32 40 40 40 14 0
26 -42 26 -92 0 -65 56 -38 103 51 28 54 53 68 43 25 -3 -16 -9 -45 -12 -64
l-5 -35 28 32 c16 18 50 68 77 113 26 45 53 79 59 77 8 -2 12 -40 12 -115 0
-62 1 -112 3 -112 2 0 32 17 67 37 49 28 65 43 65 59 0 29 10 54 21 54 5 0 9
-23 9 -51 l0 -51 39 35 c53 48 90 71 99 63 4 -4 -7 -17 -23 -29 -17 -12 -48
-38 -70 -59 -33 -31 -38 -40 -29 -55 6 -10 22 -19 35 -21 34 -4 107 51 125 94
8 19 25 40 38 45 17 8 26 22 30 53 17 105 99 206 200 245 54 21 132 28 121 11z
m70 -130 c-3 -5 -2 -10 2 -10 5 0 14 -9 21 -21 11 -17 11 -20 0 -13 -7 4 -5
-2 5 -13 12 -14 17 -37 17 -77 0 -106 -39 -156 -120 -156 -52 0 -83 18 -105
60 -20 39 -19 79 5 117 24 40 43 50 108 59 49 6 52 8 52 35 0 16 5 29 11 29 5
0 7 -4 4 -10z m8755 -908 c0 -14 -109 -116 -117 -109 -4 4 18 32 47 62 52 52
70 65 70 47z m-110 -142 c0 -20 -33 -36 -50 -25 -16 10 -12 33 7 43 22 13 43
4 43 -18z m1410 9 c0 -5 -6 -9 -12 -10 -10 0 -10 -2 0 -6 6 -2 10 -9 6 -14 -3
-5 -2 -9 3 -8 20 3 25 -2 13 -16 -10 -12 -9 -15 7 -15 12 0 19 -8 20 -21 1
-12 3 -22 5 -23 2 -1 22 -14 45 -29 24 -15 49 -27 57 -27 8 0 18 -4 21 -10 5
-8 85 -57 159 -97 21 -12 49 -39 101 -98 15 -16 23 -24 19 -16 -5 9 -3 12 5 7
6 -4 9 -11 6 -16 -3 -5 3 -13 12 -19 10 -6 14 -11 9 -11 -5 0 -2 -8 7 -17 8
-10 16 -22 18 -28 3 -15 10 -35 36 -98 17 -42 25 -82 27 -142 2 -53 8 -90 16
-100 8 -9 15 -31 17 -48 1 -18 7 -52 13 -77 27 -111 29 -134 12 -147 -18 -15
-48 -17 -56 -4 -5 8 -52 21 -96 27 -23 3 -60 12 -120 28 -30 9 -70 16 -88 16
-19 0 -31 4 -27 10 14 22 -32 -5 -56 -34 l-26 -30 26 -14 c36 -19 98 -41 135
-48 51 -8 148 -40 206 -68 44 -20 48 -25 23 -20 -21 4 -33 2 -33 -6 0 -8 -6
-8 -21 1 -12 6 -19 7 -15 1 4 -6 -6 -7 -29 -2 -33 8 -45 5 -45 -11 0 -5 7 -5
17 -2 10 4 14 2 9 -5 -3 -6 2 -15 11 -21 12 -7 13 -10 4 -11 -10 0 -11 -3 -2
-13 6 -8 7 -18 3 -22 -4 -5 1 -5 10 -2 13 4 15 2 11 -10 -4 -11 -2 -14 5 -9 7
4 10 -1 7 -14 -2 -13 1 -20 11 -20 8 0 13 -4 10 -9 -3 -5 -15 -7 -25 -4 -13 3
-23 -3 -32 -19 -7 -12 -12 -27 -11 -31 1 -5 -2 -6 -8 -2 -6 3 -8 11 -5 16 10
15 -22 10 -35 -6 -20 -24 -62 -18 -137 20 -83 41 -107 73 -77 106 19 21 18 21
-16 17 -29 -2 -38 -9 -55 -44 -30 -59 -38 -98 -21 -101 5 -1 12 -7 17 -14 6
-11 9 -10 15 4 3 9 11 14 16 11 6 -4 5 -10 -3 -15 -11 -7 -11 -9 -1 -9 7 0 10
-4 7 -10 -3 -5 0 -7 9 -4 9 3 17 -2 21 -15 6 -21 44 -25 57 -6 5 6 8 4 8 -5 0
-9 28 -27 68 -44 37 -16 76 -38 88 -48 11 -10 28 -18 37 -18 9 0 19 -4 22 -10
3 -5 13 -10 20 -10 25 0 155 -90 157 -108 4 -52 2 -69 -14 -86 -10 -10 -15
-23 -12 -28 3 -4 -2 -8 -11 -8 -9 0 -13 -5 -9 -11 3 -6 2 -14 -3 -18 -5 -3
-21 -26 -35 -51 -15 -25 -35 -54 -45 -65 -10 -11 -17 -27 -16 -35 1 -8 -15
-28 -37 -45 -21 -16 -39 -35 -40 -42 0 -6 -13 -23 -30 -36 -16 -14 -30 -29
-30 -32 0 -4 -6 -12 -12 -19 -7 -8 -19 -23 -27 -34 -8 -12 -18 -19 -23 -16 -8
5 -11 -8 -9 -36 1 -8 -8 2 -19 22 -11 20 -25 40 -32 44 -10 5 -10 4 -1 -6 9
-9 7 -20 -8 -47 -11 -20 -18 -38 -15 -41 3 -3 1 -11 -5 -18 -7 -8 -7 -14 0
-18 7 -5 7 -15 1 -31 -5 -14 -8 -25 -6 -25 3 0 -8 -13 -22 -28 -15 -15 -33
-37 -40 -47 -10 -15 -12 -16 -8 -3 4 15 2 16 -19 6 -14 -6 -25 -15 -25 -20 0
-4 -9 -8 -20 -8 -11 0 -20 -5 -20 -10 0 -6 -11 -20 -24 -31 -20 -18 -23 -26
-15 -46 13 -35 11 -43 -8 -44 -10 0 -13 -3 -6 -6 14 -5 8 -14 -38 -61 -59 -60
-98 -92 -112 -92 -9 0 -22 -6 -29 -13 -15 -14 -69 -17 -60 -3 3 5 -3 6 -14 2
-45 -18 -221 -22 -287 -7 -27 6 -53 9 -58 6 -5 -4 -9 -2 -9 4 0 6 -16 10 -35
9 -47 -2 -182 79 -260 157 -172 170 -231 270 -240 407 -2 31 -11 73 -19 93 -9
20 -11 33 -6 30 16 -10 12 7 -6 26 -13 14 -17 41 -17 121 -1 184 3 259 12 253
6 -3 9 -13 9 -23 0 -9 3 -64 8 -122 11 -154 23 -85 29 179 7 303 12 330 103
521 27 58 60 141 72 185 123 445 322 764 530 851 146 61 209 70 342 50 21 -3
33 2 48 21 11 14 17 30 14 35 -9 15 15 36 36 31 11 -3 20 -9 20 -14z m-1535
-19 c4 -6 2 -17 -4 -24 -8 -10 -8 -16 1 -23 17 -14 60 -28 76 -25 22 5 14 -55
-12 -85 -19 -22 -32 -28 -65 -28 -27 0 -41 -4 -41 -13 0 -10 -5 -10 -20 -2
-17 9 -20 8 -20 -8 0 -16 10 -18 78 -21 42 -1 80 -6 85 -10 13 -13 -4 -153
-18 -147 -8 3 -10 -4 -8 -18 3 -16 -7 -37 -34 -69 -21 -25 -42 -46 -48 -47 -5
-1 -37 -21 -70 -45 -50 -36 -60 -47 -57 -69 2 -18 -2 -26 -13 -26 -8 0 -15 -4
-15 -10 0 -5 -26 -17 -57 -26 -32 -9 -74 -25 -93 -35 -19 -10 -61 -30 -92 -44
-52 -24 -98 -64 -98 -87 0 -5 15 -1 32 8 68 35 180 64 248 64 76 0 96 11 127
71 16 30 23 35 36 27 11 -6 17 -22 17 -43 0 -31 3 -35 25 -35 17 0 25 -5 25
-18 0 -29 -50 -68 -110 -87 -98 -30 -195 -68 -215 -85 -37 -29 -113 -80 -121
-80 -13 0 -94 -55 -94 -63 0 -17 -29 -79 -83 -178 -27 -49 -33 -69 -25 -77 9
-9 8 -18 -2 -39 -7 -16 -15 -55 -17 -88 -3 -36 -12 -70 -23 -86 -12 -17 -15
-30 -9 -41 5 -9 5 -46 -1 -89 -6 -41 -12 -121 -15 -179 -4 -97 -7 -139 -20
-230 -2 -19 -14 -69 -25 -110 -12 -41 -23 -86 -25 -99 -5 -31 -26 -71 -37 -71
-4 0 -8 -5 -8 -12 0 -19 -42 -58 -62 -58 -11 0 -16 -4 -13 -10 3 -5 1 -10 -5
-10 -7 0 -10 -7 -6 -15 3 -9 -3 -24 -13 -34 -11 -11 -17 -21 -15 -24 3 -3 -9
-15 -25 -27 -17 -12 -31 -29 -31 -38 0 -9 -9 -28 -20 -42 -11 -14 -20 -28 -20
-33 0 -4 -17 -23 -37 -43 -41 -40 -83 -112 -83 -143 0 -11 -12 -33 -26 -50
-29 -35 -65 -95 -95 -161 -37 -83 -68 -140 -80 -150 -3 -3 -19 -32 -35 -65
-16 -33 -32 -63 -37 -66 -10 -8 -44 -74 -51 -102 -3 -13 -17 -36 -30 -50 -14
-15 -47 -73 -74 -130 -27 -56 -58 -111 -68 -122 -24 -26 -28 -43 -13 -61 9
-11 8 -15 -5 -20 -9 -3 -16 -13 -16 -21 0 -8 -4 -11 -10 -8 -5 3 -11 1 -11 -4
-3 -20 -5 -26 -16 -46 -6 -11 -13 -24 -15 -30 -1 -5 -6 -9 -10 -8 -5 2 -8 -4
-8 -12 0 -8 -5 -15 -11 -15 -5 0 -8 -4 -5 -9 3 -5 -1 -14 -9 -21 -18 -15 -19
-37 -2 -43 8 -3 6 -11 -9 -28 -12 -13 -25 -34 -29 -46 -3 -13 -10 -23 -14 -23
-4 0 -14 -19 -21 -42 -7 -24 -16 -52 -21 -63 -14 -36 -23 -70 -21 -82 2 -7 -2
-13 -8 -13 -6 0 -9 -4 -6 -9 4 -5 1 -11 -6 -13 -10 -4 -13 -14 -20 -65 -1 -7
-5 -13 -10 -13 -4 0 -8 -12 -8 -27 0 -16 -7 -37 -15 -47 -8 -11 -15 -28 -15
-37 0 -9 -16 -45 -36 -80 -19 -34 -40 -84 -45 -111 -6 -26 -15 -50 -20 -54 -5
-3 -7 -10 -4 -15 4 -5 -1 -12 -9 -15 -9 -3 -16 -16 -16 -28 0 -20 -20 -61 -20
-41 0 5 -7 -1 -16 -13 -8 -12 -12 -28 -8 -35 4 -6 4 -9 0 -5 -11 9 -35 -14
-29 -28 2 -6 -3 -19 -12 -27 -9 -9 -17 -20 -18 -24 -1 -4 -5 -7 -9 -6 -5 2 -8
-4 -8 -12 0 -8 -6 -15 -13 -15 -15 0 -40 -37 -27 -42 6 -2 6 -9 0 -18 -9 -13
-11 -13 -20 0 -10 13 -11 13 -8 0 4 -28 -13 -60 -33 -60 -10 0 -19 -6 -19 -12
-1 -9 -5 -7 -13 3 -13 18 -19 14 -49 -30 -9 -13 -14 -31 -11 -40 4 -12 2 -11
-9 3 -11 13 -17 16 -22 7 -4 -6 -11 -9 -15 -6 -5 2 -6 -7 -3 -22 3 -18 1 -24
-7 -19 -7 4 -18 2 -26 -4 -8 -7 -15 -9 -15 -6 0 4 -6 1 -14 -6 -8 -7 -12 -15
-11 -18 2 -3 -5 -7 -16 -7 -10 -1 -19 4 -19 10 0 7 -4 6 -9 -3 -6 -8 -7 -18
-5 -22 3 -4 0 -8 -6 -8 -6 0 -9 -4 -6 -9 3 -5 -1 -12 -10 -15 -8 -3 -13 -2
-10 2 3 5 -18 -3 -47 -17 -29 -14 -53 -29 -55 -33 -2 -5 -10 -8 -18 -8 -8 0
-17 -7 -20 -15 -4 -8 -10 -12 -15 -10 -11 7 -49 -31 -41 -41 4 -4 0 -5 -9 -1
-9 3 -22 0 -28 -6 -8 -8 -11 -7 -11 3 0 10 -3 11 -8 4 -4 -7 -20 -14 -37 -15
-35 -5 -56 -20 -47 -34 3 -5 -2 -3 -13 5 -16 13 -16 15 -2 18 10 2 17 8 17 13
0 4 -11 4 -25 -3 -13 -6 -22 -15 -19 -19 6 -11 -26 0 -45 15 -12 8 -13 8 -7
-2 5 -9 3 -13 -5 -11 -32 4 -49 -2 -49 -17 0 -8 -4 -13 -9 -9 -5 3 -12 1 -16
-5 -4 -6 -11 -8 -16 -5 -5 4 -9 -1 -9 -10 0 -9 -6 -15 -12 -12 -7 2 -26 -2
-43 -9 -19 -8 -36 -9 -47 -3 -10 6 -19 5 -23 -1 -3 -5 -12 -7 -19 -4 -24 9
-27 -14 -4 -30 12 -9 19 -16 14 -16 -4 0 2 -9 15 -21 13 -11 17 -18 9 -14 -18
8 45 -53 80 -77 l25 -18 -28 10 c-31 11 -128 71 -172 107 -138 113 -194 203
-215 346 -11 73 -10 90 7 157 15 56 17 84 10 110 -5 19 -7 78 -4 130 10 191
139 486 300 685 90 112 345 369 562 565 184 166 605 585 775 769 58 63 139
151 181 195 92 97 141 158 237 293 40 55 95 130 123 165 73 90 97 135 147 272
97 265 164 492 176 595 11 83 39 144 104 225 33 41 74 103 90 138 17 35 49
101 71 148 87 182 121 239 174 285 29 24 70 68 92 96 22 28 68 73 103 100 60
45 174 164 234 242 15 20 44 41 63 48 30 11 35 18 35 45 0 51 50 101 102 103
9 1 20 -4 23 -9z m-2255 -231 l0 -179 180 0 c113 0 180 -4 180 -10 0 -6 -67
-10 -180 -10 l-180 0 0 -180 c0 -153 -2 -180 -15 -180 -13 0 -15 27 -15 180
l0 180 -180 0 c-113 0 -180 4 -180 10 0 6 67 10 180 10 l180 0 0 178 c0 98 3
182 6 185 19 19 24 -21 24 -184z m2900 -44 c0 -1 -11 -14 -25 -29 -14 -15 -25
-23 -25 -18 0 5 7 15 15 22 8 7 13 16 10 19 -2 4 2 8 10 8 8 0 15 -1 15 -2z
m-70 -125 c8 -15 8 -25 0 -38 -9 -15 -10 -14 -5 6 5 16 2 22 -9 22 -10 0 -13
6 -10 15 8 20 11 19 24 -5z m-27 -26 c-7 -3 -10 -11 -7 -19 3 -7 1 -16 -5 -20
-7 -4 -8 0 -4 11 5 13 3 15 -8 9 -12 -8 -12 -6 0 8 7 9 19 17 25 16 7 0 7 -2
-1 -5z m-42 -51 c-5 -10 -17 -27 -26 -38 -16 -19 -17 -19 -3 5 26 46 29 50 34
50 3 0 0 -8 -5 -17z m-8 -188 c-9 -19 -20 -35 -24 -35 -7 0 4 26 24 58 16 25
16 11 0 -23z m-54 -14 c-6 -18 -13 -30 -15 -28 -2 2 1 18 7 36 6 18 13 30 15
28 2 -2 -1 -18 -7 -36z m31 -39 c0 -5 -6 -16 -13 -27 -11 -14 -16 -15 -22 -5
-5 8 -4 11 3 6 6 -3 13 3 17 14 6 20 15 27 15 12z m-57 -32 c-3 -12 -8 -19
-11 -16 -5 6 5 36 12 36 2 0 2 -9 -1 -20z m-13 -43 c0 -7 -7 -22 -15 -33 -13
-17 -14 -16 -4 14 11 33 19 41 19 19z m35 -7 c-3 -5 -8 -22 -10 -37 -2 -16
-15 -59 -28 -96 -17 -48 -26 -64 -31 -51 -4 9 1 28 9 41 13 20 14 31 6 55 -15
42 -13 48 5 18 15 -25 15 -25 8 -1 -4 16 -3 21 5 17 6 -4 11 -3 11 3 0 15 19
61 25 61 4 0 3 -4 0 -10z m-68 -102 c-3 -8 -6 -5 -6 6 -1 11 2 17 5 13 3 -3 4
-12 1 -19z m2887 0 c9 -34 8 -38 -12 -38 -10 0 -23 -5 -30 -12 -8 -8 -14 -5
-22 16 -14 37 -13 39 9 33 12 -3 22 1 25 9 8 21 23 17 30 -8z m-79 -46 c0 -18
-20 -15 -23 4 -3 10 1 15 10 12 7 -3 13 -10 13 -16z m135 -17 c37 -19 50 -43
50 -94 0 -47 -39 -101 -73 -101 -22 1 -22 1 -2 16 11 8 19 19 18 24 -1 4 7 16
17 25 34 31 26 78 -17 114 -41 34 -38 39 7 16z m-3240 -14 c7 -14 7 -22 -1
-26 -6 -4 -8 -18 -5 -32 8 -31 -14 -53 -53 -53 -30 0 -31 1 -31 49 0 70 6 81
46 81 23 0 37 -6 44 -19z m296 -65 c-2 -6 -5 -2 -6 9 -1 18 -2 18 -16 -5 -15
-25 -15 -24 -10 15 3 22 6 47 7 55 0 8 7 -3 15 -24 8 -22 12 -45 10 -50z
m-446 17 c-1 -116 -24 -163 -81 -163 l-26 0 22 63 c12 34 27 72 33 84 7 12 12
31 12 42 0 17 11 28 33 30 4 1 7 -25 7 -56z m3280 28 c0 -23 -25 -46 -35 -32
-7 13 12 51 25 51 6 0 10 -8 10 -19z m-13143 -27 c62 -39 94 -100 101 -194 l5
-71 -79 3 -79 3 -5 54 c-4 40 -12 58 -29 72 -32 26 -67 24 -96 -6 -20 -19 -25
-34 -25 -75 0 -73 24 -111 144 -231 138 -139 161 -184 161 -319 0 -78 -4 -102
-22 -135 -44 -83 -104 -115 -215 -115 -158 1 -238 85 -238 251 l0 69 75 0 75
0 0 -44 c0 -55 17 -104 40 -116 31 -16 79 -11 100 10 26 26 28 116 4 163 -10
18 -66 82 -125 143 -152 156 -190 250 -160 395 26 123 110 183 248 176 59 -3
82 -10 120 -33z m3274 5 c72 -40 109 -113 109 -217 l0 -53 -77 3 -78 3 -3 52
c-2 43 -8 56 -30 73 -56 44 -122 2 -122 -76 0 -71 23 -108 143 -232 137 -142
160 -184 165 -297 5 -100 -9 -154 -51 -202 -46 -52 -98 -73 -185 -73 -157 0
-231 73 -240 238 l-5 82 82 0 81 0 0 -65 c0 -77 20 -105 73 -105 46 0 74 23
82 69 13 77 -7 113 -134 245 -148 153 -175 202 -175 320 -2 181 87 271 255
262 46 -2 80 -10 110 -27z m-4125 -6 c23 -12 53 -36 67 -52 49 -59 52 -82 52
-431 0 -368 -4 -399 -65 -460 -51 -51 -93 -60 -274 -60 l-156 0 0 516 0 516
168 -4 c148 -3 172 -6 208 -25z m384 -488 l0 -515 -85 0 -85 0 0 508 c0 280 3
512 7 515 3 4 42 7 85 7 l78 0 0 -515z m1090 440 l0 -74 -132 -3 -133 -3 -3
-152 -3 -153 106 0 105 0 0 -75 0 -75 -105 0 -105 0 0 -210 0 -210 -80 0 -80
0 0 515 0 515 215 0 215 0 0 -75z m453 46 c34 -16 55 -36 75 -69 24 -42 27
-59 30 -157 5 -136 -7 -187 -57 -236 l-37 -37 33 -26 c48 -39 63 -101 63 -265
0 -75 4 -153 9 -173 l9 -38 -83 0 c-66 0 -84 3 -89 16 -3 9 -6 73 -6 142 -1
215 -17 252 -111 252 l-49 0 0 -205 0 -205 -85 0 -85 0 0 508 c0 280 3 512 8
516 4 4 79 6 167 4 143 -3 165 -6 208 -27z m367 -390 c0 -408 1 -419 21 -445
15 -20 29 -26 57 -26 83 0 82 -5 82 474 l0 416 80 0 80 0 0 -418 c0 -456 -3
-489 -56 -552 -51 -60 -148 -88 -243 -70 -80 15 -127 50 -159 118 l-27 57 -3
419 c-2 230 -1 425 2 432 4 10 27 14 86 14 l80 0 0 -419z m880 344 l0 -75 -85
0 -85 0 0 -440 0 -440 -85 0 -85 0 0 440 0 440 -80 0 -80 0 0 75 0 75 250 0
250 0 0 -75z m510 0 l0 -75 -140 0 -140 0 0 -140 0 -140 110 0 110 0 0 -80 0
-80 -110 0 -110 0 0 -145 0 -145 140 0 140 0 0 -75 0 -75 -220 0 -220 0 0 515
0 515 220 0 220 0 0 -75z m1030 -365 l0 -440 135 0 135 0 0 -75 0 -75 -215 0
-215 0 0 515 0 515 80 0 80 0 0 -440z m695 428 c3 -7 39 -227 80 -488 42 -261
78 -487 81 -502 l6 -28 -85 0 -85 0 -13 90 -13 90 -97 0 -96 0 -6 -27 c-3 -16
-9 -56 -13 -90 l-7 -63 -79 0 -80 0 6 28 c3 15 40 241 81 502 42 261 78 481
80 488 3 9 36 12 120 12 83 0 117 -3 120 -12z m5711 -93 c-4 -14 -12 -25 -18
-25 -9 0 -9 3 0 12 7 7 12 21 12 32 0 10 3 17 6 13 4 -3 4 -18 0 -32z m11 -37
c-3 -8 -6 -5 -6 6 -1 11 2 17 5 13 3 -3 4 -12 1 -19z m2873 -53 c8 -9 2 -27
-20 -61 l-30 -49 16 -50 16 -51 -77 -124 c-43 -69 -88 -138 -100 -155 -12 -16
-28 -45 -35 -63 -7 -18 -18 -36 -25 -40 -6 -4 -49 -67 -95 -140 -46 -73 -87
-135 -91 -137 -12 -8 -37 5 -43 22 -4 8 16 54 44 104 27 49 50 96 50 105 0 50
164 295 210 314 18 7 27 17 23 24 -4 6 1 5 9 -2 9 -8 18 -22 20 -33 3 -19 3
-19 16 2 8 11 9 18 3 14 -6 -3 -11 0 -11 7 0 7 -7 26 -15 42 -8 15 -12 38 -9
50 2 11 -2 40 -10 64 -8 23 -13 42 -10 42 2 0 -3 11 -12 25 -19 29 -15 42 38
122 l28 42 50 -31 c28 -17 55 -37 60 -43z m-2914 14 c-7 -19 -19 -45 -25 -59
l-11 -25 6 25 c7 34 36 101 41 96 2 -2 -3 -19 -11 -37z m14 -74 c-16 -42 -20
-26 -7 25 8 28 13 37 15 24 2 -11 -2 -33 -8 -49z m-39 -111 c-10 -32 -19 -49
-20 -37 -1 12 -4 23 -8 26 -5 2 -3 3 3 1 7 -1 18 18 25 44 7 25 14 41 16 36 2
-6 -5 -37 -16 -70z m1409 -10 c0 5 6 3 13 -3 8 -6 17 -8 20 -4 4 3 7 -3 7 -15
0 -11 -5 -24 -12 -28 -7 -5 -8 -3 -3 6 5 9 2 10 -14 5 -13 -4 -21 -2 -21 5 0
6 5 8 10 5 6 -3 10 -1 10 4 0 6 -7 11 -15 11 -8 0 -15 8 -15 18 0 14 2 15 10
2 5 -8 10 -11 10 -6z m1255 -125 c7 -22 -32 -102 -45 -94 -6 4 -10 19 -10 36
0 16 -5 38 -12 48 -9 15 -9 26 0 47 l13 27 24 -23 c14 -13 27 -31 30 -41z m66
38 c-10 -9 -11 -8 -5 6 3 10 9 15 12 12 3 -3 0 -11 -7 -18z m-2793 -122 c-3
-3 -9 2 -12 12 -6 14 -5 15 5 6 7 -7 10 -15 7 -18z m129 -77 c-3 -8 -6 -5 -6
6 -1 11 2 17 5 13 3 -3 4 -12 1 -19z m-9 -551 c12 -51 15 -74 7 -65 -15 16
-35 96 -34 135 1 35 3 28 27 -70z m2292 -63 c11 -36 20 -73 20 -82 0 -15 51
-202 57 -211 6 -9 14 7 17 35 2 16 7 63 11 104 7 71 29 130 48 130 6 0 6 -63
1 -152 -9 -168 -8 -520 2 -610 l6 -56 -50 -54 c-187 -202 -191 -209 -254 -373
-24 -62 -58 -92 -87 -76 -18 11 -62 -15 -91 -52 -12 -15 -25 -25 -29 -23 -4 3
-27 -13 -50 -35 -24 -21 -47 -39 -52 -39 -20 0 -25 -2 -46 -22 -12 -12 -27
-17 -34 -13 -8 6 -10 4 -4 -5 6 -10 1 -12 -19 -8 -21 4 -26 2 -22 -9 3 -8 2
-12 -3 -9 -5 3 -15 -4 -24 -17 -8 -12 -62 -69 -119 -127 -133 -133 -150 -170
-125 -265 23 -85 21 -120 -7 -212 -54 -170 -60 -299 -37 -708 36 -633 43 -735
52 -790 19 -113 69 -282 164 -560 52 -153 104 -323 117 -379 12 -55 27 -107
34 -115 11 -12 13 -11 11 7 -1 12 -4 22 -7 22 -7 0 -6 53 2 65 9 16 3 206 -8
213 -10 8 -12 37 -3 47 10 10 -3 55 -14 48 -6 -4 -8 0 -4 10 4 10 1 17 -6 18
-9 0 -9 2 1 6 13 5 8 62 -9 95 -5 9 -10 37 -11 63 0 25 -5 48 -9 51 -4 2 -7
28 -8 57 0 28 -2 62 -5 75 -3 12 -2 22 2 22 5 0 8 43 7 95 0 52 2 95 5 95 6 0
12 36 14 92 0 21 3 38 6 38 3 0 6 26 8 58 2 31 8 62 15 67 7 6 11 22 9 38 -2
15 5 62 16 105 10 42 20 90 21 106 0 17 6 33 12 37 7 4 8 12 4 18 -4 7 -2 18
5 26 8 9 8 15 0 20 -7 4 -7 11 -2 18 5 7 10 39 11 72 2 50 7 65 30 90 16 17
26 36 24 43 -7 19 6 64 17 57 6 -3 7 1 3 10 -4 13 0 16 18 14 27 -2 110 33
129 56 7 8 19 15 27 15 7 0 16 7 19 15 4 8 11 15 18 15 6 0 17 9 24 20 6 11
18 17 25 14 17 -6 41 21 32 36 -3 5 -1 10 4 10 6 0 10 3 9 8 -1 4 4 18 12 32
16 27 21 70 8 70 -4 0 -8 5 -8 11 0 6 9 8 21 4 17 -6 20 -4 13 6 -10 17 -12
32 -4 39 14 11 40 92 34 102 -4 6 -3 8 3 5 9 -6 39 59 35 76 -1 4 5 7 13 7 8
0 15 5 15 11 0 5 5 7 10 4 6 -4 13 8 16 25 5 21 11 29 20 26 9 -3 14 2 14 14
0 14 5 18 17 13 11 -4 14 -3 9 5 -4 7 -2 12 3 12 6 0 11 7 11 15 0 8 5 15 12
15 6 0 8 3 5 7 -4 3 3 21 14 39 11 19 18 38 14 44 -3 5 2 10 12 10 15 0 16 2
3 10 -8 5 -11 12 -7 16 4 4 1 14 -6 22 -7 10 -8 13 -1 9 10 -6 15 2 24 41 1 4
6 12 11 19 7 7 6 14 -2 18 -8 6 -8 10 2 16 10 6 10 13 1 34 -9 20 -9 24 0 19
8 -5 9 -2 5 9 -3 9 -2 19 3 22 17 10 11 25 -7 18 -10 -4 -14 -2 -9 5 3 6 2 13
-4 17 -6 4 -8 11 -4 16 3 6 -2 17 -12 24 -18 13 -17 15 14 21 26 5 30 9 21 20
-6 8 -16 11 -23 7 -6 -3 -5 0 2 8 20 22 114 -33 198 -116 115 -113 164 -235
164 -407 0 -100 -7 -139 -84 -478 -20 -85 -36 -162 -36 -171 0 -14 14 -18 74
-21 63 -3 81 -8 117 -33 26 -18 53 -50 68 -80 26 -49 26 -52 31 -355 3 -187 8
-288 13 -262 9 54 64 115 123 138 85 33 177 3 236 -77 25 -33 41 -132 34 -204
-3 -33 -6 -166 -7 -296 0 -194 -3 -236 -14 -236 -8 0 -12 3 -10 6 2 4 -58 6
-133 6 -83 -1 -143 3 -151 9 -9 7 -78 11 -180 11 -91 0 -173 5 -181 10 -8 5
-85 10 -171 10 -94 0 -161 4 -170 11 -16 12 -108 13 -126 1 -6 -4 -15 -2 -19
4 -5 8 -3 9 7 4 8 -5 11 -5 7 -1 -12 14 -21 11 -24 -6 -2 -14 5 -18 32 -19 76
-3 134 -7 137 -9 2 -2 184 -10 294 -13 34 -1 60 -4 58 -7 -2 -3 38 -6 88 -7
92 -1 262 -10 262 -13 0 -1 52 -4 115 -7 63 -2 129 -5 146 -6 17 -1 31 -6 31
-12 0 -6 -47 -10 -133 -10 -73 0 -130 3 -128 7 6 10 4 10 -184 12 -95 0 -165
5 -173 12 -9 6 -77 10 -181 10 -91 -1 -164 2 -162 5 6 11 -27 15 -118 14 -56
0 -85 3 -81 10 3 5 -6 -1 -20 -15 -48 -48 -213 -388 -324 -670 -79 -201 -87
-219 -134 -295 -49 -78 -82 -107 -113 -99 -13 3 -27 1 -30 -5 -4 -6 -11 -11
-16 -11 -10 0 -6 33 6 52 4 7 3 8 -4 4 -7 -4 -12 -2 -12 3 0 6 -7 11 -15 11
-9 0 -15 6 -14 13 4 32 -2 47 -20 47 -11 0 -23 5 -26 10 -4 6 -11 8 -16 4 -5
-3 -7 -10 -4 -15 4 -5 -5 -8 -19 -7 -15 1 -26 5 -26 8 0 4 -12 13 -26 20 -23
13 -24 15 -7 21 17 7 17 8 0 8 -10 1 -35 -10 -55 -24 -20 -14 -45 -25 -55 -25
-9 0 -22 -11 -28 -24 -6 -13 -27 -32 -45 -42 -19 -10 -33 -25 -31 -34 1 -10
-5 -14 -18 -12 -13 2 -16 0 -8 -6 10 -6 8 -17 -7 -45 -22 -41 -26 -67 -10 -67
7 0 7 -6 2 -17 -12 -23 -4 -45 11 -36 7 4 6 -1 -2 -10 -10 -13 -10 -17 -1 -17
7 0 10 -7 6 -15 -3 -8 4 -21 16 -29 12 -9 18 -21 15 -30 -3 -8 -2 -18 4 -22
13 -8 -8 -34 -27 -34 -8 0 -14 -5 -14 -11 0 -5 6 -7 13 -3 8 5 7 2 -2 -9 -8
-10 -16 -15 -19 -13 -2 3 -18 -2 -33 -10 -26 -13 -30 -13 -35 0 -3 8 -11 13
-17 10 -7 -2 -17 6 -22 18 -6 13 -17 21 -25 19 -8 -2 -39 -4 -67 -5 -29 0 -53
-4 -53 -8 0 -5 -5 -8 -11 -8 -5 0 -8 4 -5 9 4 5 -3 7 -14 4 -11 -3 -20 -9 -20
-13 0 -4 -11 -6 -25 -5 -14 2 -23 0 -20 -5 5 -9 -24 -24 -41 -22 -5 1 -20 -7
-32 -18 -12 -11 -28 -20 -36 -20 -21 0 -46 -11 -42 -19 2 -3 -18 -7 -44 -8
-42 -1 -48 1 -43 15 3 12 2 14 -4 4 -5 -7 -27 -15 -49 -19 -21 -3 -41 -10 -44
-14 -8 -12 -120 -19 -120 -8 0 5 -7 9 -16 9 -31 0 -52 78 -64 238 -6 84 -13
158 -15 165 -3 6 -14 76 -25 153 -16 114 -20 199 -22 435 -1 323 3 364 67 669
40 189 211 1038 250 1240 14 74 46 225 70 335 24 110 54 281 65 380 11 99 29
234 40 300 21 136 33 358 19 349 -5 -3 -9 0 -9 5 0 6 5 11 11 11 7 0 8 11 4
30 -9 40 21 101 86 177 72 83 95 99 175 124 51 16 81 20 119 15 137 -18 190
-11 377 52 98 33 192 64 210 67 18 4 53 25 76 46 58 50 118 85 165 93 20 4 37
12 37 19 0 7 3 8 8 2 12 -17 31 -16 40 3 14 26 23 82 13 82 -4 0 -2 23 5 51 8
29 11 62 8 73 -3 12 4 57 15 99 12 42 21 91 21 109 l1 33 19 -23 c27 -33 18
-188 -15 -249 -13 -24 -22 -43 -20 -43 10 0 85 113 91 136 4 16 11 35 17 41
10 13 -14 76 -33 88 -6 4 -8 11 -4 16 3 6 -1 16 -9 22 -16 12 -31 91 -16 82 4
-3 9 29 11 72 l3 78 47 -65 c26 -36 58 -78 72 -95 l26 -30 -10 27 c-9 28 -34
161 -46 253 -3 27 -10 59 -15 71 -4 12 -6 24 -3 27 2 2 0 17 -6 32 -6 16 -9
34 -6 42 11 28 26 10 46 -53z m-10739 -165 c72 -40 109 -113 109 -217 l0 -53
-77 3 -78 3 -3 52 c-2 43 -8 56 -30 73 -56 44 -122 2 -122 -76 0 -71 23 -108
143 -232 137 -142 160 -184 165 -297 5 -100 -9 -154 -51 -202 -46 -52 -98 -73
-185 -73 -157 0 -231 73 -240 238 l-5 82 82 0 81 0 0 -65 c0 -77 20 -105 73
-105 46 0 74 23 82 69 13 77 -7 113 -134 245 -148 153 -175 202 -175 320 -2
181 87 271 255 262 46 -2 80 -10 110 -27z m797 16 c103 -31 152 -117 152 -267
l0 -78 -80 0 -80 0 0 78 c0 87 -13 116 -56 126 -43 11 -82 -11 -95 -53 -6 -23
-9 -146 -7 -344 l3 -309 24 -19 c27 -22 79 -25 107 -5 16 12 20 30 24 123 l5
108 75 0 75 0 -1 -120 c0 -102 -3 -126 -21 -160 -44 -83 -104 -115 -215 -115
-87 0 -139 21 -185 73 -56 64 -58 80 -58 452 l0 340 30 60 c17 32 42 67 56 78
64 46 157 58 247 32z m-2237 -337 c30 -186 58 -340 60 -343 3 -2 27 140 53
318 26 177 50 332 53 345 5 21 9 22 119 22 l114 0 0 -515 0 -515 -80 0 -80 0
-2 332 -3 331 -50 -332 -49 -332 -80 3 -80 3 -57 340 -57 340 -1 -342 -1 -343
-70 0 -70 0 0 515 0 516 113 -3 112 -3 56 -337z m669 -83 c0 -412 1 -426 20
-445 28 -28 90 -27 116 1 18 20 19 44 22 445 l3 425 77 -3 77 -3 0 -430 0
-430 -27 -57 c-31 -68 -79 -103 -158 -118 -95 -18 -193 10 -244 70 -53 63 -56
96 -56 552 l0 418 85 0 85 0 0 -425z m1140 -90 l0 -515 -85 0 -85 0 0 515 0
515 85 0 85 0 0 -515z m1035 503 c3 -7 39 -227 80 -488 42 -261 78 -487 81
-502 l6 -28 -85 0 -85 0 -13 90 -13 90 -97 0 -96 0 -6 -27 c-3 -16 -9 -56 -13
-90 l-7 -63 -79 0 -80 0 6 28 c3 15 40 241 81 502 42 261 78 481 80 488 3 9
36 12 120 12 83 0 117 -3 120 -12z m7410 -361 c16 -23 30 -44 31 -47 8 -31 28
-70 36 -70 5 0 6 -4 3 -10 -3 -5 0 -10 7 -10 7 -1 0 -6 -15 -13 -27 -12 -28
-12 -8 -29 11 -9 21 -12 23 -7 2 6 18 4 39 -5 20 -8 40 -12 45 -8 5 4 3 0 -4
-10 -10 -13 -10 -17 0 -21 7 -2 10 -8 6 -12 -13 -14 -53 -12 -73 4 -18 15 -19
15 -7 0 20 -26 6 -46 -31 -42 -25 2 -28 1 -12 -6 15 -6 7 -9 -33 -9 -56 -1
-86 -11 -61 -21 12 -5 12 -9 -3 -23 -17 -17 -18 -17 -18 2 0 12 -7 20 -17 20
-12 0 -14 -3 -7 -8 19 -11 22 -85 5 -111 -14 -22 -44 6 -38 36 2 13 0 23 -4
23 -15 0 -10 37 6 50 17 14 21 65 5 55 -6 -4 -5 5 2 19 6 14 16 26 22 27 6 0
1 4 -11 9 -20 8 -28 26 -24 53 0 4 -4 7 -10 7 -6 0 -7 5 -2 13 4 6 9 28 11 47
2 34 10 113 14 137 1 7 5 10 10 7 7 -5 12 10 9 29 -4 21 77 -39 104 -76z
m-1754 -111 c7 4 9 3 6 -3 -3 -5 12 -19 33 -31 22 -11 39 -17 37 -12 -2 8 2
10 29 10 8 0 12 -4 9 -10 -3 -5 0 -7 9 -4 8 3 23 -3 33 -13 11 -11 24 -18 30
-16 6 2 14 -1 18 -6 3 -6 1 -11 -6 -11 -7 0 -9 -3 -6 -7 4 -3 3 -11 -2 -17 -4
-6 -11 -20 -15 -31 -6 -16 -5 -18 5 -7 7 6 20 12 27 12 10 0 5 -9 -12 -25 -29
-27 -42 -32 -30 -12 6 8 3 8 -9 -1 -10 -8 -25 -11 -39 -7 -20 7 -20 6 -7 -7 8
-9 15 -28 14 -43 0 -24 -5 -28 -32 -31 -23 -3 -33 1 -36 14 -4 13 -5 11 -6 -5
0 -13 -7 -23 -13 -24 -10 0 -10 -2 0 -6 6 -2 12 -9 12 -15 0 -6 -7 -8 -15 -4
-23 8 -45 -4 -45 -26 0 -26 -37 -78 -55 -78 -8 0 -21 -12 -29 -27 -8 -16 -28
-42 -43 -58 -15 -17 -33 -40 -40 -50 -6 -11 -16 -19 -22 -17 -6 1 -11 -5 -11
-14 0 -8 -4 -13 -10 -9 -5 3 -14 -13 -20 -36 -9 -31 -14 -39 -20 -28 -7 10
-13 5 -24 -21 -8 -19 -10 -36 -5 -38 5 -2 9 -8 9 -13 0 -6 -4 -8 -9 -4 -6 3
-13 -11 -16 -32 -10 -56 -36 -123 -46 -117 -5 3 -6 -2 -3 -10 3 -8 0 -32 -6
-52 -12 -35 -14 -36 -26 -19 -19 25 -42 109 -50 181 l-6 62 90 158 c49 88 118
215 152 284 69 140 147 270 162 270 5 0 6 6 2 13 -6 8 -3 8 9 -1 9 -8 22 -10
28 -6z m6053 -76 c72 -28 139 -88 173 -158 37 -76 39 -192 4 -263 -32 -68 -81
-120 -142 -154 -49 -27 -62 -30 -149 -30 -108 0 -148 15 -225 86 -62 58 -89
125 -90 224 0 68 4 89 28 137 72 146 247 215 401 158z m-4047 -136 c-3 -3 -12
-4 -19 -1 -8 3 -5 6 6 6 11 1 17 -2 13 -5z m-306 -51 c-12 -20 -14 -14 -5 12
4 9 9 14 11 11 3 -2 0 -13 -6 -23z m-190 -63 c-7 -3 -9 -14 -5 -23 3 -10 1
-17 -5 -17 -12 0 -14 20 -5 44 3 9 11 13 16 10 7 -4 6 -9 -1 -14z m6488 -214
c46 -32 69 -72 77 -130 9 -60 -29 -140 -82 -176 -55 -37 -144 -36 -203 3 -124
82 -101 267 40 327 40 17 127 4 168 -24z m-6127 -20 c6 4 5 -3 -2 -15 -6 -12
-9 -42 -7 -66 2 -26 -1 -46 -7 -49 -6 -2 -3 -5 7 -5 9 -1 17 -3 17 -6 0 -4
-42 -46 -94 -93 -14 -13 -24 -27 -23 -31 4 -14 -65 -84 -72 -73 -8 14 -41 -37
-57 -88 -8 -28 -10 -9 -7 95 2 72 8 163 13 203 6 40 10 77 10 82 0 5 7 7 15 4
10 -4 15 0 16 12 1 18 2 17 6 -1 3 -10 12 -30 21 -43 10 -16 11 -22 2 -20 -7
2 -13 -10 -16 -32 l-3 -35 24 45 c31 58 57 90 75 95 40 9 60 18 61 29 0 7 2 6
6 -2 2 -6 9 -9 15 -6z m-399 -56 c-3 -12 -8 -19 -11 -16 -5 6 5 36 12 36 2 0
2 -9 -1 -20z m85 -2 c8 -8 12 -9 12 -1 0 13 33 11 37 -3 5 -17 8 -302 3 -297
-3 2 -10 -44 -16 -104 -8 -79 -8 -111 1 -121 8 -9 11 -7 12 9 1 12 4 23 7 26
10 10 26 -9 27 -30 0 -21 1 -21 9 -2 8 18 9 18 9 -5 1 -32 -18 -66 -20 -35 0
13 -5 8 -13 -15 -7 -19 -11 -57 -10 -85 3 -69 3 -67 17 -59 9 6 9 4 -1 -8 -7
-8 -10 -24 -6 -34 18 -55 28 -74 33 -65 4 6 7 -5 7 -24 0 -29 -4 -35 -20 -35
-18 -1 -19 -2 -5 -10 38 -22 129 -115 129 -131 0 -11 3 -18 8 -17 21 7 82 -65
64 -76 -5 -3 -26 -5 -49 -4 -22 0 -48 -4 -56 -9 -11 -5 2 -8 37 -7 30 1 60 -3
68 -8 10 -8 10 -9 -2 -5 -8 2 -23 0 -32 -4 -9 -5 -19 -5 -22 -1 -2 4 -29 7
-58 6 -30 -2 -62 3 -73 10 -11 7 -50 23 -87 35 -36 12 -72 28 -78 36 -15 18 4
48 39 63 l26 11 -25 -6 c-37 -8 -62 -34 -56 -57 3 -11 -1 -24 -10 -30 -21 -16
-27 -61 -9 -76 9 -8 13 -21 9 -32 -3 -10 5 -39 17 -65 13 -26 22 -63 22 -82
-1 -20 5 -48 13 -63 11 -20 11 -27 1 -31 -7 -2 0 -10 16 -17 15 -7 27 -17 27
-22 0 -5 -10 -3 -22 3 -21 11 -22 11 -9 -5 9 -10 24 -16 36 -14 12 3 27 -2 34
-9 7 -8 19 -12 27 -9 7 3 16 0 20 -6 5 -7 2 -8 -7 -4 -8 4 -5 0 5 -8 18 -14
22 -25 28 -73 1 -7 5 -13 10 -13 11 0 63 -61 60 -71 -1 -5 3 -9 10 -9 8 0 6
-6 -5 -17 -16 -16 -18 -16 -40 5 -13 12 -29 22 -36 22 -7 0 -9 5 -5 13 4 6 4
9 -1 5 -4 -4 -20 1 -35 12 -16 11 -36 20 -47 20 -17 -1 -17 -2 2 -15 61 -43
105 -81 105 -91 0 -18 -111 -27 -173 -14 -68 14 -137 62 -137 96 0 31 27 44
91 44 42 0 50 3 41 12 -8 8 -39 12 -77 12 -77 -1 -105 -20 -104 -68 1 -52 13
-67 79 -108 35 -21 60 -38 55 -38 -16 0 46 -50 70 -56 14 -3 25 -10 25 -15 0
-5 7 -6 15 -3 12 5 14 -1 11 -27 -3 -23 -14 -41 -36 -59 -41 -31 -91 -53 -87
-38 1 6 -4 13 -12 16 -8 2 -11 0 -7 -6 3 -5 -1 -12 -9 -16 -8 -3 -15 -1 -15 4
0 6 -6 10 -14 10 -15 0 -29 27 -21 40 3 4 -4 6 -15 3 -24 -6 -34 -19 -21 -27
5 -3 7 -14 4 -24 -2 -10 5 -26 16 -36 12 -11 21 -25 21 -31 0 -18 -30 -27 -46
-14 -20 17 -47 3 -39 -20 8 -25 -44 -64 -66 -50 -21 13 -23 12 -42 -20 -9 -16
-29 -32 -44 -36 -15 -3 -52 -18 -83 -33 -59 -28 -72 -32 -107 -34 -13 0 -23
-5 -23 -10 0 -5 -6 -8 -12 -6 -20 4 -108 -33 -108 -45 0 -6 -6 -2 -14 9 -12
16 -18 17 -35 7 -14 -9 -21 -9 -23 -1 -7 19 -38 0 -38 -23 0 -15 -4 -19 -16
-15 -8 3 -12 2 -9 -3 3 -5 -13 -9 -35 -8 -38 2 -40 4 -48 42 -6 31 -13 41 -30
43 -20 3 -21 0 -16 -30 3 -18 7 -39 10 -45 2 -8 -5 -13 -17 -13 -11 0 -22 -6
-25 -14 -7 -18 -62 -15 -74 4 -9 15 -40 6 -40 -12 0 -9 -17 -13 -59 -11 -33 0
-64 4 -70 7 -5 4 -13 2 -16 -4 -11 -18 -168 -10 -181 8 -10 13 -19 14 -58 5
-30 -7 -49 -7 -52 -1 -4 7 -9 7 -13 0 -9 -14 -121 7 -128 24 -3 8 -11 14 -19
14 -7 0 -17 8 -23 18 -8 14 -13 15 -29 5 -20 -12 -62 -7 -62 7 0 5 -8 6 -18 3
-10 -2 -24 3 -31 11 -8 9 -20 16 -27 16 -8 0 -22 9 -31 19 -9 11 -20 18 -25
15 -4 -3 -8 9 -8 25 0 32 -16 41 -38 19 -9 -9 -12 -8 -12 4 0 9 -7 24 -16 33
-10 10 -14 26 -11 43 14 75 37 137 64 165 16 18 45 52 65 77 47 60 188 204
188 193 0 -4 5 0 11 9 10 19 32 15 63 -11 12 -10 16 -11 12 -3 -6 10 0 12 26
7 18 -3 47 -1 63 4 17 5 24 10 17 10 -7 1 -11 5 -8 10 3 5 -11 19 -32 31 l-37
23 25 11 c14 6 25 17 25 25 0 21 25 26 26 4 0 -10 3 -13 6 -5 2 6 11 12 19 12
8 0 11 -6 7 -16 -4 -12 -2 -15 8 -12 8 3 13 11 11 17 -1 7 2 10 7 7 5 -4 12 0
14 6 3 8 6 6 6 -4 1 -10 6 -18 12 -18 5 0 7 -5 3 -12 -4 -7 -3 -8 5 -4 6 4 9
11 6 16 -3 4 2 14 11 21 19 16 166 14 196 -2 31 -17 114 -2 188 34 115 55 170
102 188 157 12 35 11 51 -8 143 -13 64 -13 93 3 109 6 7 11 33 10 58 -2 57 6
88 17 70 6 -9 11 0 15 26 3 21 8 49 11 61 2 12 30 49 62 81 31 33 57 64 58 71
1 6 2 15 3 21 2 15 70 30 95 20 33 -12 49 -36 41 -62 -7 -21 -6 -22 7 -5 7 10
20 19 28 21 31 6 50 19 50 32 0 8 4 14 8 14 4 0 9 12 10 28 1 15 5 38 8 52 3
14 7 56 8 93 2 37 7 71 11 75 4 4 4 -11 1 -32 -6 -33 -5 -38 6 -28 8 6 24 9
35 6 22 -6 25 -2 88 100 13 22 19 26 26 15 7 -11 9 -9 9 7 0 27 26 79 56 111
13 14 24 30 24 35 0 5 4 7 9 4 5 -3 11 8 15 25 4 22 10 30 21 25 12 -4 15 3
15 31 0 32 2 34 16 22 15 -13 16 -11 11 16 -3 17 -9 41 -13 54 -6 19 -4 23 7
17 8 -4 5 0 -6 9 -14 12 -16 16 -5 15 33 -5 46 1 65 30 21 32 43 38 63 18z
m522 -138 c0 -5 -2 -10 -4 -10 -3 0 -8 5 -11 10 -3 6 -1 10 4 10 6 0 11 -4 11
-10z m-895 -123 c-1 -17 -10 -48 -19 -67 -16 -35 -17 -35 -12 -5 3 17 8 49 11
73 8 48 25 48 20 -1z m-35 1 c0 -7 -5 -20 -10 -28 -8 -12 -10 -9 -10 13 0 15
5 27 10 27 6 0 10 -6 10 -12z m5505 -52 c68 -29 99 -117 66 -191 -50 -112
-208 -115 -263 -5 -34 67 -13 145 51 187 39 27 95 30 146 9z m-5498 -88 c-3
-8 -6 -5 -6 6 -1 11 2 17 5 13 3 -3 4 -12 1 -19z m-26 -31 c-10 -9 -11 -8 -5
6 3 10 9 15 12 12 3 -3 0 -11 -7 -18z m524 14 c-3 -5 -1 -12 5 -16 5 -3 10
-11 10 -17 0 -7 -6 -6 -15 2 -17 14 -20 40 -4 40 5 0 8 -4 4 -9z m86 -162 c13
-26 7 -24 -22 7 -17 19 -19 23 -6 18 10 -3 22 -15 28 -25z m203 -80 c-7 -13
-31 -11 -40 2 -9 16 18 30 33 17 7 -6 10 -14 7 -19z m-1010 -22 c-3 -9 -12
-17 -20 -17 -8 0 -14 -4 -14 -10 0 -5 -15 -10 -32 -9 -28 0 -30 2 -13 9 11 5
15 9 9 9 -24 2 -8 36 21 47 35 12 60 -2 49 -29z m1041 3 c3 -5 1 -10 -4 -10
-6 0 -11 5 -11 10 0 6 2 10 4 10 3 0 8 -4 11 -10z m-91 -12 c4 4 7 3 5 -3 -4
-17 12 -45 26 -45 20 0 35 -24 25 -40 -7 -11 -13 -9 -34 11 -14 13 -26 29 -26
35 0 6 -7 17 -15 24 -8 7 -15 17 -15 22 0 7 5 6 13 -1 8 -6 17 -7 21 -3z m16
-95 c0 -7 5 -13 12 -13 6 0 3 -9 -7 -20 -20 -22 -40 -22 -40 1 -1 8 -7 13 -15
11 -11 -3 -12 -1 -4 8 9 9 8 18 -2 38 -10 20 -11 28 -1 34 13 8 56 -37 57 -59z
m-65 -44 c1 -8 6 -13 13 -11 14 2 16 -4 3 -12 -4 -3 -18 5 -31 19 -20 21 -20
23 -4 21 11 -2 19 -9 19 -17z m89 -4 c-4 -8 -11 -15 -16 -15 -6 0 -5 6 2 15 7
8 14 15 16 15 2 0 1 -7 -2 -15z m81 -26 c-4 -5 -1 -9 6 -9 7 0 9 -3 6 -6 -4
-4 -14 -1 -24 7 -11 9 -14 10 -9 2 5 -9 0 -13 -13 -13 -28 0 -27 28 2 32 27 5
39 0 32 -13z m-1920 -19 c-3 -5 -11 -10 -16 -10 -6 0 -7 5 -4 10 3 6 11 10 16
10 6 0 7 -4 4 -10z m1897 -19 c5 15 38 5 38 -11 0 -11 -30 -13 -54 -4 -9 3
-16 11 -16 16 0 6 6 6 14 -1 11 -9 15 -9 18 0z m-2175 -43 c-3 -8 -6 -5 -6 6
-1 11 2 17 5 13 3 -3 4 -12 1 -19z m2171 -9 c26 -10 29 -37 6 -46 -11 -4 -22
1 -31 13 -8 10 -19 18 -25 16 -6 -2 -18 0 -26 3 -11 4 -12 8 -2 20 13 15 23
14 78 -6z m-1358 -5 c0 -8 -5 -12 -10 -9 -6 4 -8 11 -5 16 9 14 15 11 15 -7z
m1259 -8 c10 -12 8 -13 -8 -9 -12 3 -18 9 -15 14 7 12 10 11 23 -5z m-2078
-59 c-13 -13 -15 11 -4 40 7 16 8 15 11 -6 2 -13 -1 -28 -7 -34z m2104 23 c3
-5 -4 -6 -15 -3 -11 3 -22 9 -25 13 -3 5 4 6 15 3 11 -3 22 -9 25 -13z
m-11357 -17 c-37 -3 -48 -8 -48 -21 0 -9 -3 -27 -6 -39 -6 -22 -3 -23 45 -23
28 0 51 -4 51 -10 0 -5 -23 -10 -51 -10 l-50 0 3 -42 3 -43 50 -6 50 -6 -57
-1 -58 -2 0 105 0 105 58 -2 c56 -2 56 -2 10 -5z m196 -83 c32 -50 59 -90 60
-90 0 0 0 40 -2 90 -2 59 0 90 7 90 7 0 11 -37 11 -105 0 -58 -4 -105 -9 -105
-5 0 -35 40 -67 89 l-59 90 -6 -92 -5 -92 -2 108 c-1 59 1 107 6 107 4 0 33
-41 66 -90z m301 80 c4 -7 -7 -8 -32 -4 -71 11 -118 -55 -93 -130 12 -38 54
-61 95 -54 14 3 25 1 25 -3 0 -5 -20 -9 -45 -9 -67 0 -95 31 -95 103 0 72 31
107 96 107 23 0 46 -5 49 -10z m85 -72 c0 -90 14 -118 58 -118 49 0 62 25 62
117 0 49 4 83 10 83 6 0 10 -34 10 -83 0 -100 -17 -127 -78 -127 -43 0 -55 7
-71 37 -14 27 -15 173 -1 173 6 0 10 -34 10 -82z m293 75 l-53 -4 0 -40 0 -39
45 0 c25 0 45 -4 45 -10 0 -5 -20 -10 -45 -10 l-45 0 0 -44 0 -45 53 -4 52 -3
-62 -2 -63 -2 0 105 0 105 63 -2 62 -2 -52 -3z m197 -88 l60 -90 0 93 c0 60 4
91 10 87 13 -8 13 -205 0 -205 -5 0 -36 39 -67 87 l-58 86 -3 -86 c-4 -125
-22 -109 -22 19 0 66 4 104 10 102 6 -2 37 -44 70 -93z m280 85 c0 -5 -13 -10
-29 -10 l-28 0 -10 -97 -10 -98 -1 98 -2 97 -29 0 c-17 0 -33 5 -36 10 -4 6
22 10 69 10 44 0 76 -4 76 -10z m162 -2 c27 -22 30 -53 8 -81 -25 -32 -25 -29
6 -78 15 -24 20 -39 12 -37 -7 3 -23 23 -36 46 -18 31 -30 42 -48 42 -22 0
-24 -4 -24 -45 0 -25 -4 -45 -10 -45 -6 0 -10 42 -10 105 l0 105 43 0 c24 0
50 -6 59 -12z m202 -89 c21 -55 36 -103 33 -106 -3 -3 -13 11 -21 31 -14 34
-18 36 -60 36 -42 0 -45 -2 -56 -35 -6 -19 -16 -35 -21 -35 -5 0 1 24 12 53
12 28 30 76 41 105 12 28 24 52 27 52 4 0 24 -45 45 -101z m294 89 l-38 -10
-2 -96 -2 -97 -3 98 -4 97 -34 0 c-19 0 -35 5 -35 10 0 6 32 10 78 9 70 -1 74
-2 40 -11z m102 -68 c0 -88 17 -120 63 -120 49 0 61 21 68 116 l6 89 1 -87 c2
-104 -12 -128 -76 -128 -60 0 -76 25 -81 126 -2 57 1 84 8 84 7 0 11 -28 11
-80z m475 70 c4 -6 -10 -8 -37 -4 -76 10 -124 -52 -98 -130 12 -38 50 -60 96
-54 26 3 29 8 32 41 3 35 2 37 -27 37 -17 0 -31 5 -31 11 0 6 16 9 38 7 36 -3
37 -4 40 -47 4 -53 -5 -61 -71 -61 -68 0 -97 30 -97 100 0 44 5 56 29 81 24
23 38 29 75 29 24 0 48 -4 51 -10z m193 -6 c28 -19 30 -68 3 -86 -19 -14 -19
-15 5 -57 26 -47 28 -51 16 -51 -4 0 -18 20 -32 45 -20 36 -30 45 -52 45 -25
0 -27 -3 -31 -47 -2 -27 -4 0 -5 60 l-2 107 38 0 c21 0 48 -7 60 -16z m112
-64 c0 -88 17 -120 63 -120 49 0 61 21 68 116 l6 89 1 -87 c2 -104 -12 -128
-76 -128 -60 0 -76 25 -81 126 -2 57 1 84 8 84 7 0 11 -28 11 -80z m328 64
c49 -34 16 -104 -50 -104 l-38 0 0 -45 c0 -25 -4 -45 -10 -45 -6 0 -10 42 -10
105 l0 105 43 0 c23 0 53 -7 65 -16z m243 -10 c19 -20 24 -36 24 -79 0 -71
-29 -105 -90 -105 -61 0 -90 34 -90 105 0 71 29 105 90 105 32 0 47 -6 66 -26z
m319 13 c37 -19 56 -78 41 -127 -14 -47 -50 -70 -111 -70 l-40 0 0 105 0 105
43 0 c23 0 53 -6 67 -13z m188 6 l-48 -4 0 -40 0 -39 45 0 c25 0 45 -4 45 -10
0 -5 -20 -10 -45 -10 l-45 0 0 -44 0 -45 48 -4 c46 -3 46 -3 -10 -5 l-58 -2 0
105 0 105 58 -2 c56 -2 56 -2 10 -5z m282 -78 c18 -47 36 -85 39 -85 4 0 22
38 40 85 47 117 61 113 61 -20 0 -128 -18 -142 -22 -18 l-3 88 -35 -87 c-19
-49 -38 -88 -41 -88 -3 0 -22 39 -42 88 l-36 87 -1 -87 c0 -52 -4 -88 -10 -88
-6 0 -10 42 -10 105 0 133 14 138 60 20z m240 1 c0 -64 4 -88 16 -100 20 -20
53 -20 82 0 20 14 22 24 22 100 0 49 4 84 10 84 6 0 10 -33 10 -79 0 -99 -20
-131 -81 -131 -64 0 -79 23 -79 125 0 50 4 85 10 85 6 0 10 -35 10 -84z m326
73 c4 -8 -3 -9 -25 -4 -46 10 -71 -2 -71 -34 0 -23 8 -31 49 -50 55 -24 69
-52 45 -88 -12 -19 -24 -23 -64 -23 -28 0 -50 4 -50 9 0 5 17 7 38 4 28 -4 43
-1 56 12 26 27 15 48 -39 75 -55 28 -70 63 -40 94 19 18 90 22 101 5z m94 -94
c0 -63 -4 -105 -10 -105 -6 0 -10 42 -10 105 0 63 4 105 10 105 6 0 10 -42 10
-105z m225 95 c4 -7 -7 -8 -32 -4 -71 11 -118 -55 -93 -130 12 -38 54 -61 95
-54 14 3 25 1 25 -3 0 -5 -20 -9 -45 -9 -67 0 -95 31 -95 103 0 72 31 107 96
107 23 0 46 -5 49 -10z m176 -97 c44 -112 42 -103 30 -103 -5 0 -15 16 -21 35
-11 33 -14 35 -56 35 -41 0 -45 -2 -59 -37 -8 -20 -18 -33 -21 -30 -4 3 8 44
26 89 41 103 50 121 57 114 3 -3 23 -50 44 -103z m4208 32 c-9 -9 -78 -12 -91
-4 -8 5 8 9 41 9 30 0 52 -2 50 -5z m4639 -21 c169 -70 182 -312 22 -394 -141
-72 -299 9 -323 164 -14 87 44 189 127 227 50 23 124 24 174 3z m-4687 -9 c44
-9 31 -16 -24 -14 -31 1 -57 6 -57 10 0 8 40 17 52 11 5 -2 18 -5 29 -7z m2
-42 c-7 -2 -21 -2 -30 0 -10 3 -4 5 12 5 17 0 24 -2 18 -5z m40 -20 c3 -5 -19
-9 -49 -11 -33 -2 -54 1 -54 8 0 11 96 14 103 3z m-20 -30 c-7 -2 -21 -2 -30
0 -10 3 -4 5 12 5 17 0 24 -2 18 -5z m-359 -46 c4 4 4 -1 0 -11 -6 -15 -4 -17
7 -11 12 8 12 6 0 -8 -7 -10 -11 -30 -9 -47 4 -24 1 -30 -11 -28 -12 3 -17 18
-19 68 -2 56 0 63 11 48 8 -10 17 -15 21 -11z m-457 -99 c-30 -74 -66 -155
-67 -148 0 3 -4 31 -10 64 l-9 58 46 54 c59 68 74 58 40 -28z m736 15 c-7 -2
-19 -2 -25 0 -7 3 -2 5 12 5 14 0 19 -2 13 -5z m-310 -79 c9 -9 -11 -44 -25
-44 -9 0 -9 3 -1 11 6 6 9 18 6 25 -5 14 8 19 20 8z m2111 -86 c-3 -5 -12 -4
-20 3 -7 6 -11 15 -8 21 3 5 12 4 20 -3 7 -6 11 -15 8 -21z m-77 -13 c-4 -8
-2 -17 3 -20 6 -4 10 -12 10 -18 0 -7 -7 -4 -15 6 -12 17 -11 47 2 47 3 0 3
-7 0 -15z m-2547 -46 c0 -5 -4 -9 -10 -9 -5 0 -10 7 -10 16 0 8 5 12 10 9 6
-3 10 -10 10 -16z m887 -5 c-3 -3 -12 -4 -19 -1 -8 3 -5 6 6 6 11 1 17 -2 13
-5z m-873 -49 c3 -8 1 -15 -4 -15 -6 0 -10 7 -10 15 0 8 2 15 4 15 2 0 6 -7
10 -15z m-119 -385 c3 -5 1 -10 -4 -10 -6 0 -11 -5 -11 -11 0 -6 -23 -59 -52
-118 -28 -58 -52 -110 -52 -114 -1 -5 -9 -14 -18 -21 -9 -7 -38 -74 -64 -149
-26 -75 -51 -137 -55 -137 -21 0 -81 67 -105 116 -83 170 -2 374 175 439 43
16 177 19 186 5z m313 -201 c4 -24 3 -24 -12 -4 -19 24 -20 38 -3 33 6 -3 13
-15 15 -29z m1682 -189 c0 -5 -4 -10 -10 -10 -5 0 -10 5 -10 10 0 6 5 10 10
10 6 0 10 -4 10 -10z m-172 -39 c3 -10 0 -12 -13 -7 -13 4 -16 2 -11 -9 3 -9
0 -15 -9 -15 -21 0 -28 19 -14 36 14 18 40 15 47 -5z m-5925 -27 c66 -22 134
-87 168 -159 24 -50 29 -73 29 -136 0 -64 -5 -85 -30 -137 -55 -108 -157 -173
-274 -174 -97 0 -161 25 -227 91 -65 65 -91 129 -91 221 0 92 26 156 91 221
35 35 73 62 101 72 59 20 174 21 233 1z m5745 -66 c7 -7 12 -16 12 -21 0 -12
-128 -70 -140 -62 -23 14 -7 36 48 64 67 35 64 35 80 19z m-1606 -73 c1 -25 2
-53 2 -62 1 -10 -6 -19 -15 -21 -13 -2 -18 9 -23 53 -7 60 -3 75 20 75 10 0
14 -13 16 -45z m247 -7 c-1 -70 -7 -88 -24 -81 -8 3 -12 9 -9 14 3 5 0 9 -5 9
-6 0 -11 -8 -11 -18 0 -23 -26 -59 -36 -50 -11 12 16 67 37 73 10 4 19 12 19
18 0 18 20 87 26 87 2 0 4 -24 3 -52z m135 -47 c8 -12 -55 -131 -69 -131 -6 0
-16 5 -22 11 -17 17 41 129 67 129 10 0 21 -4 24 -9z m-626 -96 c-1 -14 -6
-25 -11 -25 -5 0 -6 7 -3 16 3 9 6 20 6 25 0 5 2 9 5 9 3 0 4 -11 3 -25z m102
8 c0 -5 -5 -15 -10 -23 -8 -12 -10 -11 -10 8 0 12 5 22 10 22 6 0 10 -3 10 -7z
m1171 -85 l23 -31 -32 23 c-32 23 -41 40 -23 40 5 0 20 -14 32 -32z m523 24
c3 -5 0 -38 -7 -75 -10 -60 -13 -67 -35 -67 -22 0 -23 2 -17 48 12 91 16 102
35 102 10 0 21 -4 24 -8z m-1779 -83 c-3 -13 -15 -35 -25 -49 l-20 -25 0 31
c0 31 21 60 33 47 4 -3 7 2 7 12 0 10 2 16 5 13 4 -3 3 -16 0 -29z m2233 -10
c2 -9 -9 -24 -23 -33 -25 -17 -27 -17 -41 1 -18 24 -18 28 9 41 29 14 51 11
55 -9z m-124 -33 c23 9 44 -60 25 -83 -10 -11 -16 -10 -34 7 -13 12 -25 35
-29 52 -4 19 -13 32 -27 35 -15 4 -17 8 -8 14 8 4 22 0 37 -11 13 -10 29 -17
36 -14z m-3979 -95 c82 -38 119 -96 120 -188 0 -52 -4 -68 -30 -105 -90 -130
-289 -113 -351 29 -19 43 -18 127 1 168 46 96 165 140 260 96z m1900 -26 c6
-30 6 -30 -10 4 -17 38 -19 49 -6 36 5 -6 12 -23 16 -40z m-65 25 c0 -5 -2
-10 -4 -10 -3 0 -8 5 -11 10 -3 6 -1 10 4 10 6 0 11 -4 11 -10z m30 -42 c0 7
5 12 10 12 6 0 10 -12 10 -27 0 -16 4 -34 9 -42 13 -20 2 -54 -14 -41 -6 5
-16 6 -20 2 -5 -4 -5 -2 -1 5 3 6 1 15 -6 20 -7 4 -14 15 -15 23 -1 8 -5 29
-9 45 l-7 30 22 -19 c11 -11 21 -14 21 -8z m27 -212 c3 -29 0 -46 -6 -46 -7 0
-11 22 -11 52 0 61 10 58 17 -6z m-4015 0 c60 -21 115 -72 145 -134 l28 -57 5
-675 c3 -371 8 -658 12 -637 9 52 41 92 91 116 53 26 90 26 142 2 52 -24 83
-59 100 -112 12 -38 14 38 14 577 1 607 1 622 21 647 30 37 80 52 122 34 66
-28 63 -3 68 -526 4 -414 7 -469 18 -422 27 116 102 209 210 259 49 23 70 27
152 27 82 0 103 -4 152 -27 79 -37 142 -98 181 -177 l32 -66 5 -485 c3 -267 8
-470 13 -451 4 18 23 48 41 66 75 70 186 40 221 -60 12 -35 14 62 15 779 0
814 0 820 21 864 51 103 191 134 276 59 70 -61 72 -76 73 -402 1 -264 3 -286
16 -251 35 97 108 149 209 150 111 0 194 -71 215 -183 5 -29 10 -171 10 -315
1 -236 2 -257 15 -222 20 57 45 87 96 114 36 19 55 23 106 20 69 -4 97 -20
147 -82 l31 -38 2 -377 c1 -314 -1 -378 -12 -378 -8 0 -12 4 -9 9 7 10 6 10
-184 12 -95 0 -165 5 -173 12 -9 6 -77 10 -181 10 -91 -1 -164 2 -162 6 6 10
4 10 -184 12 -95 0 -165 5 -173 12 -9 6 -77 10 -181 10 -91 -1 -164 2 -162 6
6 10 4 10 -184 12 -95 0 -165 5 -173 12 -9 6 -77 10 -181 10 -91 -1 -164 2
-162 6 6 10 4 10 -183 12 -87 1 -165 6 -173 11 -8 5 -89 10 -180 10 -91 0
-172 5 -180 10 -8 5 -85 10 -170 10 -85 0 -162 5 -170 10 -8 5 -90 10 -181 10
-102 0 -171 4 -180 11 -8 6 -65 10 -140 9 l-126 0 2 25 c1 14 -2 30 -7 36 -5
7 -7 218 -6 475 3 458 3 465 25 506 96 179 356 151 409 -45 11 -40 13 29 13
438 1 316 5 499 12 524 23 83 87 154 166 182 48 17 137 17 185 0z m4091 -160
c6 -14 0 -26 -14 -26 -3 0 -9 9 -12 20 -6 23 18 28 26 6z m-1187 -231 c63 -37
104 -111 104 -188 0 -75 -17 -112 -72 -163 -189 -174 -471 73 -326 286 66 97
193 124 294 65z m-3759 3 c30 -25 45 -76 33 -114 -35 -106 -190 -94 -206 16
-6 41 23 95 59 110 28 12 93 6 114 -12z m5133 -223 c0 -5 -5 -3 -10 5 -5 8
-10 20 -10 25 0 6 5 3 10 -5 5 -8 10 -19 10 -25z m3701 -88 c-10 -9 -11 -8 -5
6 3 10 9 15 12 12 3 -3 0 -11 -7 -18z m59 -27 c-20 -13 -33 -13 -25 0 3 6 14
10 23 10 15 0 15 -2 2 -10z m-3600 -330 c0 -13 -1 -13 -10 0 -5 8 -10 22 -10
30 0 13 1 13 10 0 5 -8 10 -22 10 -30z m1340 11 c0 -23 -15 -35 -35 -27 -20 7
-7 46 16 46 12 0 19 -7 19 -19z m-1182 -72 c-3 -8 -7 -3 -11 10 -4 17 -3 21 5
13 5 -5 8 -16 6 -23z m1827 -109 c-3 -5 -13 -10 -21 -10 -8 0 -12 5 -9 10 3 6
13 10 21 10 8 0 12 -4 9 -10z m1325 -49 c0 -30 -25 -45 -41 -25 -12 15 -11 16
11 10 l25 -7 -24 14 c-18 11 -20 16 -10 20 27 11 39 7 39 -12z m-9008 -103
c54 -16 123 -79 143 -131 13 -36 15 -84 13 -327 l-3 -285 -55 -1 c-30 0 -61 5
-69 10 -8 7 -74 11 -165 11 l-151 0 -3 282 c-3 267 -2 284 17 320 26 49 39 64
76 89 62 43 126 53 197 32z m8911 -90 c-11 -20 -31 -4 -42 33 -10 32 -10 44 0
55 10 12 15 7 29 -33 9 -26 15 -51 13 -55z m254 -3 c7 -20 5 -21 -33 -29 -26
-6 -32 -4 -37 13 -3 15 1 21 17 24 40 8 47 7 53 -8z m-344 -115 c16 -37 22
-62 15 -66 -14 -9 -23 3 -52 69 -23 52 -23 57 -7 57 12 0 26 -19 44 -60z
m-1988 -71 c-9 -13 9 -11 24 4 24 21 3 -23 -32 -70 -34 -46 -48 -51 -67 -28
-10 12 -5 24 25 65 20 27 41 48 46 44 5 -3 7 -10 4 -15z m2316 -176 c-9 -16
-10 -16 -11 4 0 12 3 30 7 40 7 16 8 16 11 -4 2 -12 -1 -30 -7 -40z m89 43 c0
-3 -4 -8 -10 -11 -5 -3 -10 -1 -10 4 0 6 5 11 10 11 6 0 10 -2 10 -4z m40 -5
c0 -12 -20 -25 -27 -18 -7 7 6 27 18 27 5 0 9 -4 9 -9z m-1144 -38 c-3 -4 -6
-1 -6 5 0 7 -5 12 -11 12 -6 0 -8 -8 -4 -19 8 -25 -62 -81 -76 -60 -7 10 4 26
38 57 40 37 48 41 56 27 5 -9 6 -19 3 -22z m879 -51 c-3 -9 -9 -12 -14 -6 -16
16 -16 59 -1 76 14 14 15 12 18 -19 2 -19 1 -42 -3 -51z m-570 -152 c3 -5 -1
-10 -10 -10 -9 0 -13 5 -10 10 3 6 8 10 10 10 2 0 7 -4 10 -10z m179 -46 c7
-19 -2 -37 -15 -29 -12 8 -12 45 0 45 5 0 12 -7 15 -16z m72 -50 c-4 -12 -10
-14 -17 -7 -5 5 -7 17 -3 27 4 12 10 14 17 7 5 -5 7 -17 3 -27z m661 -1 c-3
-10 -5 -4 -5 12 0 17 2 24 5 18 2 -7 2 -21 0 -30z m-889 -1 c2 -7 -2 -10 -12
-6 -9 3 -16 2 -16 -4 0 -6 6 -12 13 -15 9 -3 8 -13 -5 -40 -17 -36 -31 -46
-42 -28 -3 4 4 31 16 60 21 48 37 60 46 33z m1192 -164 c0 -5 -6 -6 -12 -2 -8
5 -7 0 2 -11 11 -14 12 -19 3 -22 -7 -3 -13 -17 -13 -31 0 -23 -2 -24 -14 -12
-21 21 -2 117 20 99 8 -6 14 -16 14 -21z m-4916 -49 c-6 -10 57 -14 208 -14
75 0 134 -3 132 -7 -5 -8 18 -10 138 -11 36 -1 65 -4 63 -7 -2 -3 -84 -4 -182
-3 -98 2 -250 4 -339 6 -97 1 -167 6 -175 13 -8 6 -26 10 -40 9 -14 -1 -26 3
-26 9 0 8 38 11 113 11 62 0 110 -3 108 -6z"/>
<path d="M1841 10005 c-7 -23 -11 -52 -9 -65 l3 -25 13 23 c7 12 12 42 10 65
l-3 42 -14 -40z"/>
<path d="M800 9994 c-106 -34 -234 -104 -238 -131 -3 -20 2 -21 105 -24 88 -3
115 -8 144 -25 l36 -22 16 112 c9 61 15 111 14 112 -1 1 -36 -9 -77 -22z"/>
<path d="M2752 10048 c-18 -18 -15 -32 14 -59 l26 -24 -8 30 c-14 59 -19 66
-32 53z"/>
<path d="M2757 9869 c-28 -38 -53 -96 -44 -105 22 -22 84 78 75 122 -3 16 -8
13 -31 -17z"/>
<path d="M2256 9840 c-32 -30 -72 -74 -88 -98 -51 -74 -48 -142 7 -142 25 0
80 56 96 99 20 52 50 172 46 184 -2 6 -29 -13 -61 -43z"/>
<path d="M12532 8421 c-11 -6 -10 -10 4 -15 14 -5 15 -9 5 -15 -10 -7 -9 -10
3 -14 9 -4 16 -2 16 2 0 12 93 -13 121 -33 27 -18 54 -21 43 -5 -3 6 5 4 19
-5 13 -9 35 -19 47 -21 12 -2 28 -9 35 -15 9 -7 16 -6 26 7 12 14 12 16 0 8
-10 -5 -12 -4 -7 4 4 6 2 19 -5 27 -10 12 -9 13 5 8 9 -3 24 -22 33 -41 12
-25 21 -33 35 -30 10 3 16 1 12 -4 -3 -5 -1 -9 4 -9 6 0 12 7 16 15 3 8 1 15
-5 15 -6 0 -7 6 -3 13 4 6 3 9 -1 4 -5 -4 -17 1 -28 10 -10 10 -22 18 -26 17
-3 -1 -22 9 -41 22 -35 23 -117 47 -132 38 -4 -3 -17 0 -28 6 -25 13 -120 20
-120 9 0 -5 -5 -9 -11 -9 -5 0 -7 5 -4 10 7 12 4 12 -13 1z"/>
<path d="M12415 8212 c-2 -3 -19 -6 -37 -7 -18 -2 -34 -8 -36 -14 -2 -6 -8 -9
-13 -5 -5 3 -9 2 -10 -3 -6 -59 -3 -70 28 -104 32 -36 33 -58 3 -38 -8 5 -21
9 -29 9 -17 0 46 -43 108 -74 25 -13 61 -31 79 -40 20 -11 45 -16 68 -13 20 3
55 -1 78 -9 28 -10 42 -11 44 -4 3 7 9 5 16 -5 10 -14 15 -13 43 13 24 21 31
34 26 50 -4 17 -1 22 16 23 36 2 41 4 42 12 1 5 -8 20 -20 33 -11 13 -16 24
-11 24 6 0 10 4 10 9 0 5 -11 4 -24 -2 -16 -8 -21 -14 -13 -19 7 -5 2 -8 -13
-8 -20 0 -22 -2 -10 -10 11 -7 -3 -10 -47 -10 -35 0 -63 3 -63 8 0 4 -12 8
-27 9 -44 2 -108 30 -111 48 -3 11 -10 15 -22 12 -10 -2 -24 -1 -31 4 -9 5 -4
10 16 15 26 6 27 8 10 15 -19 7 -19 8 2 8 26 1 21 31 -6 31 -11 0 -12 3 -4 8
7 4 9 12 5 18 -8 12 -59 24 -67 16z"/>
<path d="M13335 8040 c3 -5 2 -10 -4 -10 -6 0 -17 -13 -26 -30 -10 -20 -12
-30 -4 -30 8 0 8 -4 -1 -15 -7 -9 -10 -18 -6 -22 3 -3 6 -1 6 6 0 8 6 11 16 7
8 -3 12 -2 9 4 -3 6 1 13 10 16 9 4 14 13 11 20 -3 7 -1 16 5 19 5 4 7 11 4
16 -4 5 2 9 11 9 22 0 10 13 -17 17 -12 2 -18 -1 -14 -7z"/>
<path d="M13245 7433 c0 -58 -4 -72 -24 -95 -31 -35 -61 -37 -61 -5 0 22 -24
65 -44 79 -6 4 -14 1 -19 -7 -4 -8 -15 -15 -22 -15 -8 0 -33 -16 -55 -36 -22
-20 -44 -33 -48 -29 -4 4 -1 10 6 12 6 3 12 9 12 14 0 4 -7 6 -15 3 -8 -4 -15
-1 -15 6 0 10 -3 10 -15 0 -32 -26 -8 -60 47 -66 17 -2 44 -10 60 -18 15 -8
26 -10 23 -5 -4 5 -1 9 4 9 6 0 11 -8 11 -17 0 -14 2 -15 9 -5 6 10 10 9 14
-7 4 -15 10 -19 23 -14 12 4 15 3 10 -5 -4 -7 -2 -10 6 -7 8 3 47 -1 88 -9 65
-12 77 -12 91 0 20 18 25 116 7 159 -14 33 -14 33 -61 88 l-33 38 1 -68z"/>
<path d="M12795 7448 c-39 -22 -48 -58 -14 -58 12 0 37 8 56 17 l36 17 -23 18
c-26 21 -28 21 -55 6z"/>
<path d="M12011 7364 c0 -11 3 -14 6 -6 3 7 2 16 -1 19 -3 4 -6 -2 -5 -13z"/>
<path d="M12758 7154 c-2 -1 -22 -4 -43 -5 -22 -1 -44 -5 -50 -8 -5 -3 -16 -6
-25 -6 -52 -5 -211 -39 -216 -46 -3 -5 2 -9 10 -9 9 0 23 -11 31 -24 21 -31
45 -40 59 -22 7 9 17 11 31 6 11 -5 14 -9 8 -9 -7 -1 -13 -5 -13 -10 0 -4 11
-7 24 -6 21 3 24 0 17 -18 -10 -26 -48 -30 -73 -9 -16 13 -18 13 -18 -1 0 -16
70 -88 115 -117 15 -10 35 -32 46 -49 10 -17 25 -31 32 -31 8 0 43 -13 78 -28
40 -18 84 -30 117 -31 29 -1 63 -6 74 -10 12 -4 40 -4 62 1 23 5 52 10 66 11
27 3 34 26 12 43 -12 8 -6 17 29 43 34 24 53 31 84 30 51 -2 122 27 131 53 6
20 -22 62 -37 53 -4 -3 -10 -1 -14 5 -4 6 -17 5 -38 -3 -50 -21 -87 -6 -177
69 -82 68 -85 69 -141 69 -44 0 -64 5 -82 22 -29 25 -89 48 -99 37z m32 -19
c0 -1 -11 -5 -25 -7 -20 -4 -23 -2 -14 8 8 10 39 10 39 -1z m-134 -160 c4 -14
9 -24 11 -21 3 3 11 -1 18 -7 15 -14 1 -37 -22 -37 -21 0 -69 53 -65 73 6 28
50 22 58 -8z m94 -49 c0 -3 -4 -8 -10 -11 -5 -3 -10 -1 -10 4 0 6 5 11 10 11
6 0 10 -2 10 -4z m80 -26 c12 -8 11 -10 -7 -10 -13 0 -23 5 -23 10 0 13 11 13
30 0z m40 0 c0 -5 -5 -10 -11 -10 -5 0 -7 5 -4 10 3 6 8 10 11 10 2 0 4 -4 4
-10z"/>
<path d="M11616 9081 l-28 -6 20 -25 c16 -20 22 -22 35 -12 14 12 17 36 6 45
-2 2 -17 1 -33 -2z"/>
<path d="M11598 8930 c-4 -14 -8 -34 -8 -45 0 -18 -68 -85 -87 -85 -10 0 -85
-82 -79 -87 2 -2 24 6 50 19 29 14 46 29 46 40 0 10 17 27 40 40 44 25 53 44
48 104 -3 35 -4 36 -10 14z"/>
<path d="M680 7685 l0 -365 60 0 c51 0 65 4 85 25 l25 24 0 305 c0 168 -4 316
-9 329 -11 29 -56 47 -117 47 l-44 0 0 -365z"/>
<path d="M2610 7896 l0 -156 53 0 c43 0 58 5 75 23 20 21 22 34 22 129 0 132
-9 146 -92 155 l-58 6 0 -157z"/>
<path d="M6140 7742 l-35 -237 69 -3 c37 -2 70 -1 72 1 5 4 -63 468 -69 473
-1 1 -18 -104 -37 -234z"/>
<path d="M14045 5670 c-4 -6 -11 -8 -16 -5 -5 4 -9 1 -9 -4 0 -6 -7 -11 -15
-11 -8 0 -19 -9 -25 -19 -14 -27 -13 -31 10 -31 11 0 20 -5 20 -11 0 -5 -4 -8
-9 -5 -5 3 -12 -1 -15 -9 -4 -12 -2 -13 13 -6 10 6 21 8 24 5 3 -3 8 4 12 16
4 11 17 28 31 36 29 20 30 30 5 44 -14 7 -22 7 -26 0z"/>
<path d="M14550 5150 c0 -5 7 -7 15 -4 8 4 15 8 15 10 0 2 -7 4 -15 4 -8 0
-15 -4 -15 -10z"/>
<path d="M13780 2053 c-1 -5 -3 -35 -7 -68 -3 -33 -2 -57 1 -54 9 9 20 129 12
129 -3 0 -6 -3 -6 -7z"/>
<path d="M13505 1740 c-3 -6 1 -7 9 -4 18 7 21 14 7 14 -6 0 -13 -4 -16 -10z"/>
<path d="M13540 1740 c0 -5 4 -10 9 -10 6 0 13 5 16 10 3 6 -1 10 -9 10 -9 0
-16 -4 -16 -10z"/>
<path d="M13268 1663 c6 -2 9 -9 6 -15 -4 -6 -1 -9 6 -6 24 8 23 28 -2 27 -12
0 -17 -3 -10 -6z"/>
<path d="M4810 6322 l-35 -237 69 -3 c37 -2 70 -1 72 1 5 4 -63 468 -69 473
-1 1 -18 -104 -37 -234z"/>
<path d="M12310 6140 c0 -5 -7 -10 -16 -10 -14 0 -14 -3 -4 -15 7 -9 15 -13
18 -10 8 7 13 45 7 45 -3 0 -5 -4 -5 -10z"/>
<path d="M12300 5515 c0 -14 2 -25 4 -25 2 0 6 11 8 25 3 14 1 25 -3 25 -5 0
-9 -11 -9 -25z"/>
<path d="M12290 5455 c0 -16 3 -24 8 -19 4 5 11 11 15 15 4 3 1 12 -8 19 -13
11 -15 9 -15 -15z"/>
<path d="M12360 5449 c0 -5 5 -7 10 -4 6 3 10 8 10 11 0 2 -4 4 -10 4 -5 0
-10 -5 -10 -11z"/>
<path d="M11760 5129 c0 -5 5 -7 10 -4 6 3 10 8 10 11 0 2 -4 4 -10 4 -5 0
-10 -5 -10 -11z"/>
<path d="M12213 4673 c9 -2 23 -2 30 0 6 3 -1 5 -18 5 -16 0 -22 -2 -12 -5z"/>
<path d="M10680 4058 c-12 -22 -12 -22 6 -6 10 10 15 20 12 24 -4 3 -12 -5
-18 -18z"/>
<path d="M10635 4020 c-3 -5 -1 -10 4 -10 6 0 11 5 11 10 0 6 -2 10 -4 10 -3
0 -8 -4 -11 -10z"/>
<path d="M12041 3774 c0 -11 3 -14 6 -6 3 7 2 16 -1 19 -3 4 -6 -2 -5 -13z"/>
<path d="M11987 3753 c-4 -3 -7 -11 -7 -17 0 -6 5 -5 12 2 6 6 9 14 7 17 -3 3
-9 2 -12 -2z"/>
<path d="M2610 4610 l0 -52 32 6 c38 8 58 23 58 46 0 23 -20 38 -58 46 l-32 7
0 -53z"/>
<path d="M2829 4595 l-17 -45 35 0 c31 0 34 2 27 23 -11 36 -23 67 -26 67 -2
0 -10 -20 -19 -45z"/>
<path d="M3874 4647 c-3 -8 -4 -30 -2 -49 3 -31 5 -33 38 -31 30 1 60 23 60
43 0 33 -84 66 -96 37z"/>
<path d="M4310 4610 c0 -50 0 -50 33 -50 40 0 57 15 57 52 0 29 -27 48 -71 48
-16 0 -19 -7 -19 -50z"/>
<path d="M4525 4635 c-53 -52 -19 -165 50 -165 14 0 37 11 50 25 53 52 19 165
-50 165 -14 0 -37 -11 -50 -25z"/>
<path d="M4867 4654 c-4 -4 -7 -48 -7 -97 l0 -90 42 6 c112 15 118 163 8 182
-19 4 -39 3 -43 -1z"/>
<path d="M6427 4599 c-9 -23 -15 -44 -13 -46 2 -3 18 -3 34 -1 l30 3 -17 43
-17 44 -17 -43z"/>
<path d="M4694 308 c-3 -5 -3 -9 0 -9 10 -2 65 -6 102 -8 19 0 33 -4 30 -9 -2
-4 57 -7 132 -7 152 0 214 -4 208 -14 -2 -3 61 -6 142 -6 161 0 224 -4 218
-14 -2 -3 57 -6 132 -6 152 0 214 -4 208 -14 -2 -3 61 -6 142 -6 161 0 224 -4
218 -14 -2 -3 57 -6 132 -6 152 0 214 -4 208 -14 -2 -3 61 -6 142 -6 161 0
224 -4 218 -14 -2 -3 57 -6 132 -6 152 0 214 -4 208 -14 -2 -3 61 -6 142 -6
161 0 224 -4 218 -14 -2 -3 57 -6 132 -6 152 0 214 -4 208 -14 -2 -3 61 -6
142 -6 162 0 224 -4 218 -14 -3 -4 30 -6 72 -6 45 0 76 4 75 10 -2 6 -11 10
-20 10 -10 0 -25 5 -33 10 -8 5 -89 10 -180 10 -91 0 -172 5 -180 10 -8 5 -85
10 -170 10 -85 0 -162 5 -170 10 -8 5 -89 10 -180 10 -91 0 -172 5 -180 10 -8
5 -85 10 -170 10 -85 0 -162 5 -170 10 -8 5 -89 10 -180 10 -91 0 -172 5 -180
10 -8 5 -85 10 -170 10 -85 0 -162 5 -170 10 -8 5 -89 10 -180 10 -91 0 -172
5 -180 10 -8 5 -85 10 -170 10 -85 0 -162 5 -170 10 -8 5 -89 10 -180 10 -91
0 -172 5 -180 10 -8 5 -85 10 -170 10 -85 0 -162 5 -170 10 -18 11 -220 14
-226 3z"/>
<path d="M3943 345 c0 -6 24 -11 56 -12 109 -1 132 -3 127 -11 -2 -4 51 -7
118 -7 79 0 123 4 123 10 0 7 -26 10 -66 10 -36 -1 -72 3 -80 9 -19 15 -278
15 -278 1z"/>
<path d="M13000 860 c0 -5 5 -10 11 -10 5 0 7 5 4 10 -3 6 -8 10 -11 10 -2 0
-4 -4 -4 -10z"/>
</g>
</svg>
